{
.appVersion = "911";
classes = (
{
code = "a' b c d e f g h i j k l m n o p q r s t u v w x y z ae oe";
name = lowercase;
},
{
code = "A.sc' B.sc C.sc D.sc E.sc F.sc G.sc H.sc I.sc J.sc K.sc L.sc M.sc N.sc O.sc P.sc Q.sc R.sc S.sc T.sc U.sc V.sc W.sc X.sc Y.sc Z.sc AE.sc OE.sc";
name = smallcaps;
}
);
copyright = "Copyright (c) 2011 by Pablo Impallari. www.impallari.com Igino Marini. www.ikern.com. All rights reserved.";
customParameters = (
{
name = licenseURL;
value = "http://scripts.sil.org/OFL";
},
{
name = description;
value = "Copyright (c) 2011 by Pablo Impallari. www.impallari.com Copyright (c) 2011 by Igino Marini. www.ikern.com All rights reserved.";
},
{
name = trademark;
value = "Cabin is a trademark of Pablo Impallari. www.impallari.com Igino Marini. www.ikern.com.";
},
{
name = license;
value = "Copyright (c) 2010, Pablo Impallari (www.impallari.com|impallari@gmail.com),\012with Reserved Font Name Cabin.\012This Font Software is licensed under the SIL Open Font License, Version 1.1.\012This license is available with a FAQ at: http://scripts.sil.org/OFL";
},
{
name = panose;
value = (
2,
11,
8,
3,
5,
2,
2,
2,
0,
4
);
},
{
name = glyphOrder;
value = (
A,
A.sc,
AE,
AE.sc,
Aacute,
Acircumflex,
Adieresis,
Agrave,
Aring,
Atilde,
B,
B.sc,
C,
C.sc,
Ccedilla,
D,
D.sc,
E,
E.sc,
Eacute,
Ecircumflex,
Edieresis,
Egrave,
Eth,
Euro,
F,
F.sc,
G,
G.sc,
H,
H.sc,
I,
I.sc,
Iacute,
Icircumflex,
Idieresis,
Igrave,
J,
J.sc,
K,
K.sc,
L,
L.sc,
M,
M.sc,
N,
N.sc,
Ntilde,
O,
O.sc,
OE,
OE.sc,
Oacute,
Ocircumflex,
Odieresis,
Ograve,
Oslash,
Otilde,
P,
P.sc,
Q,
Q.sc,
R,
R.sc,
S,
S.sc,
Scaron,
T,
T.sc,
Thorn,
U,
U.sc,
Uacute,
Ucircumflex,
Udieresis,
Ugrave,
V,
V.sc,
W,
W.sc,
X,
X.sc,
Y,
Y.sc,
Yacute,
Ydieresis,
Z,
Z.sc,
Zcaron,
a,
aacute,
acircumflex,
acute,
adieresis,
ae,
agrave,
ampersand,
aring,
asciicircum,
asciitilde,
asterisk,
at,
atilde,
b,
backslash,
bar,
braceleft,
braceright,
bracketleft,
bracketright,
brokenbar,
bullet,
c,
caron,
ccedilla,
cedilla,
cent,
circumflex,

glyphs = (
{
glyphname = A;
lastChange = "2016-08-23 13:01:52 +0000";
layers = (
{
background = {
paths = (
{
closed = 1;
nodes = (
"555 0 LINE",
"453 700 LINE",
"357 700 LINE",
"8 0 LINE",
"108 0 LINE",
"199 189 LINE",
"430 189 LINE",
"455 0 LINE"
);
},
{
closed = 1;
nodes = (
"414 275 LINE",
"245 275 LINE",
"381 567 LINE"
);
}
);
};
layerId = UUID0;
paths = (
{
closed = 1;
nodes = (
"555 0 LINE",
"453 700 LINE",
"357 700 LINE",
"8 0 LINE",
"108 0 LINE",
"199 189 LINE",
"430 189 LINE",
"455 0 LINE"
);
},
{
closed = 1;
nodes = (
"414 275 LINE",
"245 275 LINE",
"381 567 LINE"
);
}
);
width = 564;
},
{
background = {
paths = (
{
closed = 1;
nodes = (
"598 0 LINE",
"483 700 LINE",
"363 700 LINE",
"1 0 LINE",
"134 0 LINE",
"220 169 LINE",
"438 169 LINE",
"465 0 LINE"
);
},
{
closed = 1;
nodes = (
"416 293 LINE",
"286 293 LINE",
"387 498 LINE"
);
}
);
};
layerId = "D879A026-05F7-4E99-AC55-D533E46CE7AB";
paths = (
{
closed = 1;
nodes = (
"598 0 LINE",
"483 700 LINE",
"363 700 LINE",
"1 0 LINE",
"134 0 LINE",
"220 169 LINE",
"438 169 LINE",
"465 0 LINE"
);
},
{
closed = 1;
nodes = (
"416 293 LINE",
"286 293 LINE",
"387 498 LINE"
);
}
);
width = 599;
}
);
leftKerningGroup = A;
rightKerningGroup = A;
unicode = 0041;
},
{
glyphname = A.sc;
lastChange = "2016-08-23 13:01:52 +0000";
layers = (
{
background = {
paths = (
{
closed = 1;
nodes = (
"506 0 LINE",
"413 560 LINE",
"323 560 LINE",
"31 0 LINE",
"128 0 LINE",
"200 141 LINE",
"387 141 LINE",
"410 0 LINE"
);
},
{
closed = 1;
nodes = (
"371 229 LINE",
"247 229 LINE",
"342 418 LINE"
);
}
);
};
layerId = UUID0;
paths = (
{
closed = 1;
nodes = (
"506 0 LINE",
"413 560 LINE",
"323 560 LINE",
"31 0 LINE",
"128 0 LINE",
"200 141 LINE",
"387 141 LINE",
"410 0 LINE"
);
},
{
closed = 1;
nodes = (
"371 229 LINE",
"247 229 LINE",
"342 418 LINE"
);
}
);
width = 538;
},
{
background = {
paths = (
{
closed = 1;
nodes = (
"561 0 LINE",
"453 581 LINE",
"341 581 LINE",
"28 0 LINE",
"156 0 LINE",
"226 131 LINE",
"409 131 LINE",
"434 0 LINE"
);
},
{
closed = 1;
nodes = (
"387 251 LINE",
"290 251 LINE",
"361 382 LINE"
);
}
);
};
layerId = "D879A026-05F7-4E99-AC55-D533E46CE7AB";
paths = (
{
closed = 1;
nodes = (
"561 0 LINE",
"453 581 LINE",
"341 581 LINE",
"28 0 LINE",
"156 0 LINE",
"226 131 LINE",
"409 131 LINE",
"434 0 LINE"
);
},
{
closed = 1;
nodes = (
"387 251 LINE",
"290 251 LINE",
"361 382 LINE"
);
}
);
width = 587;
}
);
},
{
glyphname = AE;
lastChange = "2016-08-23 13:01:52 +0000";
layers = (
{
background = {
paths = (
{
closed = 1;
nodes = (
"750 0 LINE",
"765 86 LINE",
"480 86 LINE",
"522 323 LINE",
"735 323 LINE",
"750 409 LINE",
"537 409 LINE",
"573 613 LINE",
"849 613 LINE",
"865 700 LINE",
"427 700 LINE",
"-4 0 LINE",
"91 0 LINE",
"203 180 LINE",
"389 180 LINE",
"358 0 LINE"
);
},
{
closed = 1;
nodes = (
"406 272 LINE",
"262 272 LINE",
"465 611 LINE"
);
}
);
};
layerId = UUID0;
paths = (
{
closed = 1;
nodes = (
"750 0 LINE",
"765 86 LINE",
"480 86 LINE",
"522 323 LINE",
"735 323 LINE",
"750 409 LINE",
"537 409 LINE",
"573 613 LINE",
"849 613 LINE",
"865 700 LINE",
"427 700 LINE",
"-4 0 LINE",
"91 0 LINE",
"203 180 LINE",
"389 180 LINE",
"358 0 LINE"
);
},
{
closed = 1;
nodes = (
"406 272 LINE",
"262 272 LINE",
"465 611 LINE"
);
}
);
width = 781;
},
{
background = {
paths = (
{
closed = 1;
nodes = (
"800 0 LINE",
"822 124 LINE",
"531 124 LINE",
"563 303 LINE",
"780 303 LINE",
"802 427 LINE",
"585 427 LINE",
"611 576 LINE",
"893 576 LINE",
"915 700 LINE",
"439 700 LINE",
"-12 0 LINE",
"122 0 LINE",
"228 169 LINE",
"411 169 LINE",
"381 0 LINE"
);
},
{
closed = 1;
nodes = (
"433 293 LINE",
"309 293 LINE",
"482 573 LINE"
);
}
);
};
layerId = "D879A026-05F7-4E99-AC55-D533E46CE7AB";
paths = (
{
closed = 1;
nodes = (
"800 0 LINE",
"822 124 LINE",
"531 124 LINE",
"563 303 LINE",
"780 303 LINE",
"802 427 LINE",
"585 427 LINE",
"611 576 LINE",
"893 576 LINE",
"915 700 LINE",
"439 700 LINE",
"-12 0 LINE",
"122 0 LINE",
"228 169 LINE",
"411 169 LINE",
"381 0 LINE"
);
},
{
closed = 1;
nodes = (
"433 293 LINE",
"309 293 LINE",
"482 573 LINE"
);
}
);
width = 833;
}
);
rightKerningGroup = E;
unicode = 00C6;
},
{
glyphname = AE.sc;
lastChange = "2016-08-23 13:01:52 +0000";
layers = (
{
background = {
paths = (
{
closed = 1;
nodes = (
"671 0 LINE",
"687 88 LINE",
"448 88 LINE",
"476 248 LINE",
"655 248 LINE",
"670 336 LINE",
"491 336 LINE",
"515 471 LINE",
"747 471 LINE",
"763 560 LINE",
"383 560 LINE",
"20 0 LINE",
"115 0 LINE",
"204 138 LINE",
"359 138 LINE",
"334 0 LINE"
);
},
{
closed = 1;
nodes = (
"374 228 LINE",
"263 228 LINE",
"417 469 LINE"
);
}
);
};
layerId = UUID0;
paths = (
{
closed = 1;
nodes = (
"671 0 LINE",
"687 88 LINE",
"448 88 LINE",
"476 248 LINE",
"655 248 LINE",
"670 336 LINE",
"491 336 LINE",
"515 471 LINE",
"747 471 LINE",
"763 560 LINE",
"383 560 LINE",
"20 0 LINE",
"115 0 LINE",
"204 138 LINE",
"359 138 LINE",
"334 0 LINE"
);
},
{
closed = 1;
nodes = (
"374 228 LINE",
"263 228 LINE",
"417 469 LINE"
);
}
);
width = 725;
},
{
background = {
paths = (
{
closed = 1;
nodes = (
"736 0 LINE",
"757 120 LINE",
"506 120 LINE",
"527 243 LINE",
"715 243 LINE",
"736 362 LINE",
"548 362 LINE",
"566 461 LINE",
"810 461 LINE",
"831 581 LINE",
"407 581 LINE",
"15 0 LINE",
"145 0 LINE",
"234 135 LINE",
"389 135 LINE",
"365 0 LINE"
);
},
{
closed = 1;
nodes = (
"410 253 LINE",
"311 253 LINE",
"446 459 LINE"
);
}
);
};
layerId = "D879A026-05F7-4E99-AC55-D533E46CE7AB";
paths = (
{
closed = 1;
nodes = (
"736 0 LINE",
"757 120 LINE",
"506 120 LINE",
"527 243 LINE",
"715 243 LINE",
"736 362 LINE",
"548 362 LINE",
"566 461 LINE",
"810 461 LINE",
"831 581 LINE",
"407 581 LINE",
"15 0 LINE",
"145 0 LINE",
"234 135 LINE",
"389 135 LINE",
"365 0 LINE"
);
},
{
closed = 1;
nodes = (
"410 253 LINE",
"311 253 LINE",
"446 459 LINE"
);
}
);
width = 794;
}
);
},
{
glyphname = B;
lastChange = "2016-08-23 13:01:52 +0000";
layers = (
{
background = {
paths = (
{
closed = 1;
nodes = (
"281 0 LINE SMOOTH",
"401 0 OFFCURVE",
"541 37 OFFCURVE",
"541 242 CURVE SMOOTH",
"541 299 OFFCURVE",
"518 345 OFFCURVE",
"460 373 CURVE",
"515 429 OFFCURVE",
"543 468 OFFCURVE",
"543 566 CURVE SMOOTH",
"543 679 OFFCURVE",
"460 700 OFFCURVE",
"331 700 CURVE SMOOTH",
"179 700 LINE",
"56 0 LINE"
);
},
{
closed = 1;
nodes = (
"347 615 LINE SMOOTH",
"403 615 OFFCURVE",
"446 609 OFFCURVE",
"446 545 CURVE SMOOTH",
"446 418 OFFCURVE",
"388 409 OFFCURVE",
"331 409 CURVE SMOOTH",
"223 409 LINE",
"259 615 LINE"
);
},
{
closed = 1;
nodes = (
"337 323 LINE SMOOTH",
"394 323 OFFCURVE",
"441 305 OFFCURVE",
"441 229 CURVE SMOOTH",
"441 102 OFFCURVE",
"374 86 OFFCURVE",
"262 86 CURVE SMOOTH",
"166 86 LINE",
"208 323 LINE"
);
}
);
};
layerId = UUID0;
paths = (
{
closed = 1;
nodes = (
"281 0 LINE SMOOTH",
"393 0 OFFCURVE",
"541 37 OFFCURVE",
"541 231 CURVE SMOOTH",
"541 307 OFFCURVE",
"518 343 OFFCURVE",
"460 373 CURVE",
"508 421 OFFCURVE",
"543 468 OFFCURVE",
"543 555 CURVE SMOOTH",
"543 678 OFFCURVE",
"472 700 OFFCURVE",
"331 700 CURVE SMOOTH",
"179 700 LINE",
"56 0 LINE"
);
},
{
closed = 1;
nodes = (
"347 615 LINE SMOOTH",
"425 615 OFFCURVE",
"446 600 OFFCURVE",
"446 534 CURVE SMOOTH",
"446 418 OFFCURVE",
"380 409 OFFCURVE",
"331 409 CURVE SMOOTH",
"223 409 LINE",
"259 615 LINE"
);
},
{
closed = 1;
nodes = (
"337 323 LINE SMOOTH",
"418 323 OFFCURVE",
"441 288 OFFCURVE",
"441 221 CURVE SMOOTH",
"441 102 OFFCURVE",
"367 86 OFFCURVE",
"262 86 CURVE SMOOTH",
"166 86 LINE",
"208 323 LINE"
);
}
);
width = 548;
},
{
background = {
paths = (
{
closed = 1;
nodes = (
"314 0 LINE SMOOTH",
"440 0 OFFCURVE",
"595 53 OFFCURVE",
"595 239 CURVE SMOOTH",
"595 307 OFFCURVE",
"562 348 OFFCURVE",
"503 374 CURVE",
"560 419 OFFCURVE",
"590 482 OFFCURVE",
"590 559 CURVE SMOOTH",
"590 679 OFFCURVE",
"497 700 OFFCURVE",
"360 700 CURVE SMOOTH",
"173 700 LINE",
"50 0 LINE"
);
},
{
closed = 1;
nodes = (
"394 591 LINE SMOOTH",
"440 591 OFFCURVE",
"468 578 OFFCURVE",
"468 526 CURVE SMOOTH",
"468 438 OFFCURVE",
"409 419 OFFCURVE",
"373 419 CURVE SMOOTH",
"252 419 LINE",
"282 591 LINE"
);
},
{
closed = 1;
nodes = (
"359 318 LINE SMOOTH",
"420 318 OFFCURVE",
"463 298 OFFCURVE",
"463 235 CURVE SMOOTH",
"463 142 OFFCURVE",
"410 109 OFFCURVE",
"323 109 CURVE SMOOTH",
"197 109 LINE",
"234 318 LINE"
);
}
);
};
layerId = "D879A026-05F7-4E99-AC55-D533E46CE7AB";
paths = (
{
closed = 1;
nodes = (
"314 0 LINE SMOOTH",
"440 0 OFFCURVE",
"595 57 OFFCURVE",
"595 232 CURVE SMOOTH",
"595 310 OFFCURVE",
"564 346 OFFCURVE",
"503 374 CURVE",
"562 420 OFFCURVE",
"590 487 OFFCURVE",
"590 556 CURVE SMOOTH",
"590 679 OFFCURVE",
"500 700 OFFCURVE",
"360 700 CURVE SMOOTH",
"173 700 LINE",
"50 0 LINE"
);
},
{
closed = 1;
nodes = (
"394 591 LINE SMOOTH",
"442 591 OFFCURVE",
"468 578 OFFCURVE",
"468 523 CURVE SMOOTH",
"468 440 OFFCURVE",
"409 419 OFFCURVE",
"373 419 CURVE SMOOTH",
"252 419 LINE",
"282 591 LINE"
);
},
{
closed = 1;
nodes = (
"359 318 LINE SMOOTH",
"436 318 OFFCURVE",
"463 288 OFFCURVE",
"463 228 CURVE SMOOTH",
"463 145 OFFCURVE",
"410 109 OFFCURVE",
"323 109 CURVE SMOOTH",
"197 109 LINE",
"234 318 LINE"
);
}
);
width = 607;
}
);
leftKerningGroup = I;
unicode = 0042;
},
{
glyphname = B.sc;
lastChange = "2016-08-23 13:01:52 +0000";
layers = (
{
background = {
paths = (
{
closed = 1;
nodes = (
"274 0 LINE SMOOTH",
"376 0 OFFCURVE",
"498 38 OFFCURVE",
"498 192 CURVE SMOOTH",
"498 243 OFFCURVE",
"475 278 OFFCURVE",
"425 299 CURVE",
"465 332 OFFCURVE",
"495 369 OFFCURVE",
"495 448 CURVE SMOOTH",
"495 543 OFFCURVE",
"421 560 OFFCURVE",
"310 560 CURVE SMOOTH",
"170 560 LINE",
"71 0 LINE"
);
},
{
closed = 1;
nodes = (
"331 480 LINE SMOOTH",
"374 480 OFFCURVE",
"404 471 OFFCURVE",
"404 424 CURVE SMOOTH",
"404 345 OFFCURVE",
"355 332 OFFCURVE",
"317 332 CURVE SMOOTH",
"222 332 LINE",
"248 480 LINE"
);
},
{
closed = 1;
nodes = (
"314 256 LINE SMOOTH",
"364 256 OFFCURVE",
"401 240 OFFCURVE",
"401 186 CURVE SMOOTH",
"401 102 OFFCURVE",
"352 81 OFFCURVE",
"270 81 CURVE SMOOTH",
"178 81 LINE",
"208 256 LINE"
);
}
);
};
layerId = UUID0;
paths = (
{
closed = 1;
nodes = (
"274 0 LINE SMOOTH",
"376 0 OFFCURVE",
"498 38 OFFCURVE",
"498 192 CURVE SMOOTH",
"498 243 OFFCURVE",
"475 278 OFFCURVE",
"425 299 CURVE",
"465 332 OFFCURVE",
"495 369 OFFCURVE",
"495 448 CURVE SMOOTH",
"495 543 OFFCURVE",
"421 560 OFFCURVE",
"310 560 CURVE SMOOTH",
"170 560 LINE",
"71 0 LINE"
);
},
{
closed = 1;
nodes = (
"331 480 LINE SMOOTH",
"374 480 OFFCURVE",
"404 471 OFFCURVE",
"404 424 CURVE SMOOTH",
"404 345 OFFCURVE",
"355 332 OFFCURVE",
"317 332 CURVE SMOOTH",
"222 332 LINE",
"248 480 LINE"
);
},
{
closed = 1;
nodes = (
"314 256 LINE SMOOTH",
"364 256 OFFCURVE",
"401 240 OFFCURVE",
"401 186 CURVE SMOOTH",
"401 102 OFFCURVE",
"352 81 OFFCURVE",
"270 81 CURVE SMOOTH",
"178 81 LINE",
"208 256 LINE"
);
}
);
width = 534;
},
{
background = {
paths = (
{
closed = 1;
nodes = (
"312 0 LINE SMOOTH",
"423 0 OFFCURVE",
"561 50 OFFCURVE",
"561 197 CURVE SMOOTH",
"561 258 OFFCURVE",
"529 291 OFFCURVE",
"477 311 CURVE",
"517 333 OFFCURVE",
"552 390 OFFCURVE",
"552 460 CURVE SMOOTH",
"552 563 OFFCURVE",
"467 581 OFFCURVE",
"346 581 CURVE SMOOTH",
"172 581 LINE",
"70 0 LINE"
);
},
{
closed = 1;
nodes = (
"383 480 LINE SMOOTH",
"418 480 OFFCURVE",
"437 466 OFFCURVE",
"437 427 CURVE SMOOTH",
"437 371 OFFCURVE",
"389 352 OFFCURVE",
"364 352 CURVE SMOOTH",
"255 352 LINE",
"277 480 LINE"
);
},
{
closed = 1;
nodes = (
"345 262 LINE SMOOTH",
"399 262 OFFCURVE",
"436 244 OFFCURVE",
"436 197 CURVE SMOOTH",
"436 134 OFFCURVE",
"395 101 OFFCURVE",
"330 101 CURVE SMOOTH",
"211 101 LINE",
"239 262 LINE"
);
}
);
};
layerId = "D879A026-05F7-4E99-AC55-D533E46CE7AB";
paths = (
{
closed = 1;
nodes = (
"312 0 LINE SMOOTH",
"423 0 OFFCURVE",
"561 50 OFFCURVE",
"561 197 CURVE SMOOTH",
"561 258 OFFCURVE",
"529 291 OFFCURVE",
"477 311 CURVE",
"517 333 OFFCURVE",
"552 390 OFFCURVE",
"552 460 CURVE SMOOTH",
"552 563 OFFCURVE",
"467 581 OFFCURVE",
"346 581 CURVE SMOOTH",
"172 581 LINE",
"70 0 LINE"
);
},
{
closed = 1;
nodes = (
"383 480 LINE SMOOTH",
"418 480 OFFCURVE",
"437 466 OFFCURVE",
"437 427 CURVE SMOOTH",
"437 371 OFFCURVE",
"389 352 OFFCURVE",
"364 352 CURVE SMOOTH",
"255 352 LINE",
"277 480 LINE"
);
},
{
closed = 1;
nodes = (
"345 262 LINE SMOOTH",
"399 262 OFFCURVE",
"436 244 OFFCURVE",
"436 197 CURVE SMOOTH",
"436 134 OFFCURVE",
"395 101 OFFCURVE",
"330 101 CURVE SMOOTH",
"211 101 LINE",
"239 262 LINE"
);
}
);
width = 603;
}
);
},
{
glyphname = C;
lastChange = "2016-08-23 13:01:52 +0000";
layers = (
{
background = {
paths = (
{
closed = 1;
nodes = (
"407 -14 OFFCURVE",
"476 3 OFFCURVE",
"525 26 CURVE",
"531 114 LINE",
"477 95 OFFCURVE",
"423 72 OFFCURVE",
"359 72 CURVE SMOOTH",
"244 72 OFFCURVE",
"190 165 OFFCURVE",
"190 286 CURVE SMOOTH",
"190 464 OFFCURVE",
"290 628 OFFCURVE",
"456 628 CURVE SMOOTH",
"521 628 OFFCURVE",
"567 604 OFFCURVE",
"614 585 CURVE",
"640 673 LINE",
"600 696 OFFCURVE",
"535 714 OFFCURVE",
"471 714 CURVE SMOOTH",
"262 714 OFFCURVE",
"85 536 OFFCURVE",
"85 278 CURVE SMOOTH",
"85 100 OFFCURVE",
"186 -14 OFFCURVE",
"343 -14 CURVE SMOOTH"
);
}
);
};
layerId = UUID0;
paths = (
{
closed = 1;
nodes = (
"344 -14 LINE",
"406 -14 OFFCURVE",
"476 3 OFFCURVE",
"525 26 CURVE",
"531 114 LINE",
"477 95 OFFCURVE",
"422 72 OFFCURVE",
"362 72 CURVE SMOOTH",
"244 72 OFFCURVE",
"190 162 OFFCURVE",
"190 289 CURVE SMOOTH",
"190 463 OFFCURVE",
"290 628 OFFCURVE",
"457 628 CURVE SMOOTH",
"521 628 OFFCURVE",
"567 604 OFFCURVE",
"614 585 CURVE",
"640 673 LINE",
"600 696 OFFCURVE",
"535 714 OFFCURVE",
"470 714 CURVE SMOOTH",
"262 714 OFFCURVE",
"85 532 OFFCURVE",
"85 284 CURVE SMOOTH",
"85 96 OFFCURVE",
"186 -14 OFFCURVE",
"344 -14 CURVE SMOOTH"
);
}
);
width = 548;
},
{
background = {
paths = (
{
closed = 1;
nodes = (
"432 -14 OFFCURVE",
"507 2 OFFCURVE",
"561 27 CURVE",
"568 149 LINE",
"508 126 OFFCURVE",
"454 109 OFFCURVE",
"383 109 CURVE SMOOTH",
"279 109 OFFCURVE",
"229 186 OFFCURVE",
"229 294 CURVE SMOOTH",
"229 454 OFFCURVE",
"315 591 OFFCURVE",
"468 591 CURVE SMOOTH",
"539 591 OFFCURVE",
"587 574 OFFCURVE",
"639 551 CURVE",
"675 673 LINE",
"630 698 OFFCURVE",
"560 714 OFFCURVE",
"490 714 CURVE SMOOTH",
"270 714 OFFCURVE",
"88 536 OFFCURVE",
"88 282 CURVE SMOOTH",
"88 103 OFFCURVE",
"195 -14 OFFCURVE",
"362 -14 CURVE SMOOTH"
);
}
);
};
layerId = "D879A026-05F7-4E99-AC55-D533E46CE7AB";
paths = (
{
closed = 1;
nodes = (
"366 -14 LINE",
"430 -14 OFFCURVE",
"507 2 OFFCURVE",
"561 27 CURVE",
"568 149 LINE",
"512 127 OFFCURVE",
"449 109 OFFCURVE",
"392 109 CURVE SMOOTH",
"273 109 OFFCURVE",
"229 186 OFFCURVE",
"229 299 CURVE SMOOTH",
"229 455 OFFCURVE",
"313 591 OFFCURVE",
"476 591 CURVE SMOOTH",
"541 591 OFFCURVE",
"599 569 OFFCURVE",
"639 551 CURVE",
"675 673 LINE",
"630 698 OFFCURVE",
"559 714 OFFCURVE",
"493 714 CURVE SMOOTH",
"270 714 OFFCURVE",
"88 534 OFFCURVE",
"88 287 CURVE SMOOTH",
"88 98 OFFCURVE",
"195 -14 OFFCURVE",
"366 -14 CURVE SMOOTH"
);
}
);
width = 585;
}
);
leftKerningGroup = O;
rightKerningGroup = C;
unicode = 0043;
},
{
glyphname = C.sc;
lastChange = "2016-08-23 13:01:52 +0000";
layers = (
{
background = {
paths = (
{
closed = 1;
nodes = (
"377 -11 OFFCURVE",
"436 2 OFFCURVE",
"479 21 CURVE",
"484 109 LINE",
"437 92 OFFCURVE",
"392 77 OFFCURVE",
"337 77 CURVE SMOOTH",
"244 77 OFFCURVE",
"200 144 OFFCURVE",
"200 235 CURVE SMOOTH",
"200 368 OFFCURVE",
"276 483 OFFCURVE",
"408 483 CURVE SMOOTH",
"464 483 OFFCURVE",
"503 468 OFFCURVE",
"545 451 CURVE",
"570 538 LINE",
"535 558 OFFCURVE",
"480 571 OFFCURVE",
"423 571 CURVE SMOOTH",
"246 571 OFFCURVE",
"98 430 OFFCURVE",
"98 226 CURVE SMOOTH",
"98 82 OFFCURVE",
"186 -11 OFFCURVE",
"321 -11 CURVE SMOOTH"
);
}
);
};
layerId = UUID0;
paths = (
{
closed = 1;
nodes = (
"321 -11 LINE",
"377 -11 OFFCURVE",
"436 2 OFFCURVE",
"479 21 CURVE",
"484 109 LINE",
"437 92 OFFCURVE",
"392 77 OFFCURVE",
"337 77 CURVE SMOOTH",
"244 77 OFFCURVE",
"200 144 OFFCURVE",
"200 235 CURVE SMOOTH",
"200 368 OFFCURVE",
"276 483 OFFCURVE",
"408 483 CURVE SMOOTH",
"464 483 OFFCURVE",
"503 468 OFFCURVE",
"545 451 CURVE",
"570 538 LINE",
"535 558 OFFCURVE",
"480 571 OFFCURVE",
"423 571 CURVE SMOOTH",
"246 571 OFFCURVE",
"98 430 OFFCURVE",
"98 226 CURVE SMOOTH",
"98 82 OFFCURVE",
"186 -11 OFFCURVE",
"321 -11 CURVE SMOOTH"
);
}
);
width = 526;
},
{
background = {
paths = (
{
closed = 1;
nodes = (
"410 -12 OFFCURVE",
"478 1 OFFCURVE",
"525 23 CURVE",
"532 139 LINE",
"477 118 OFFCURVE",
"431 107 OFFCURVE",
"367 107 CURVE SMOOTH",
"281 107 OFFCURVE",
"240 164 OFFCURVE",
"240 248 CURVE SMOOTH",
"240 374 OFFCURVE",
"306 474 OFFCURVE",
"433 474 CURVE SMOOTH",
"496 474 OFFCURVE",
"538 463 OFFCURVE",
"585 442 CURVE",
"620 559 LINE",
"579 580 OFFCURVE",
"517 593 OFFCURVE",
"454 593 CURVE SMOOTH",
"263 593 OFFCURVE",
"104 445 OFFCURVE",
"104 238 CURVE SMOOTH",
"104 88 OFFCURVE",
"200 -12 OFFCURVE",
"347 -12 CURVE SMOOTH"
);
}
);
};
layerId = "D879A026-05F7-4E99-AC55-D533E46CE7AB";
paths = (
{
closed = 1;
nodes = (
"347 -12 LINE",
"410 -12 OFFCURVE",
"478 1 OFFCURVE",
"525 23 CURVE",
"532 139 LINE",
"477 118 OFFCURVE",
"431 107 OFFCURVE",
"367 107 CURVE SMOOTH",
"281 107 OFFCURVE",
"240 164 OFFCURVE",
"240 248 CURVE SMOOTH",
"240 374 OFFCURVE",
"306 474 OFFCURVE",
"433 474 CURVE SMOOTH",
"496 474 OFFCURVE",
"538 463 OFFCURVE",
"585 442 CURVE",
"620 559 LINE",
"579 580 OFFCURVE",
"517 593 OFFCURVE",
"454 593 CURVE SMOOTH",
"263 593 OFFCURVE",
"104 445 OFFCURVE",
"104 238 CURVE SMOOTH",
"104 88 OFFCURVE",
"200 -12 OFFCURVE",
"347 -12 CURVE SMOOTH"
);
}
);
width = 575;
}
);
},
{
glyphname = D;
lastChange = "2016-08-23 13:01:52 +0000";
layers = (
{
background = {
paths = (
{
closed = 1;
nodes = (
"303 0 LINE SMOOTH",
"514 0 OFFCURVE",
"685 163 OFFCURVE",
"685 420 CURVE SMOOTH",
"685 596 OFFCURVE",
"583 700 OFFCURVE",
"426 700 CURVE SMOOTH",
"192 700 LINE",
"69 0 LINE"
);
},
{
closed = 1;
nodes = (
"411 614 LINE SMOOTH",
"525 614 OFFCURVE",
"580 533 OFFCURVE",
"580 413 CURVE SMOOTH",
"580 232 OFFCURVE",
"485 86 OFFCURVE",
"318 86 CURVE SMOOTH",
"179 86 LINE",
"272 614 LINE"
);
}
);
};
layerId = UUID0;
paths = (
{
closed = 1;
nodes = (
"303 0 LINE SMOOTH",
"514 0 OFFCURVE",
"685 167 OFFCURVE",
"685 411 CURVE SMOOTH",
"685 600 OFFCURVE",
"583 700 OFFCURVE",
"426 700 CURVE SMOOTH",
"192 700 LINE",
"69 0 LINE"
);
},
{
closed = 1;
nodes = (
"411 614 LINE SMOOTH",
"525 614 OFFCURVE",
"580 536 OFFCURVE",
"580 406 CURVE SMOOTH",
"580 235 OFFCURVE",
"485 86 OFFCURVE",
"318 86 CURVE SMOOTH",
"179 86 LINE",
"272 614 LINE"
);
}
);
width = 648;
},
{
background = {
paths = (
{
closed = 1;
nodes = (
"326 0 LINE SMOOTH",
"546 0 OFFCURVE",
"726 162 OFFCURVE",
"726 416 CURVE SMOOTH",
"726 594 OFFCURVE",
"616 700 OFFCURVE",
"449 700 CURVE SMOOTH",
"197 700 LINE",
"74 0 LINE"
);
},
{
closed = 1;
nodes = (
"428 577 LINE SMOOTH",
"533 577 OFFCURVE",
"585 510 OFFCURVE",
"585 404 CURVE SMOOTH",
"585 243 OFFCURVE",
"503 123 OFFCURVE",
"348 123 CURVE SMOOTH",
"224 123 LINE",
"304 577 LINE"
);
}
);
};
layerId = "D879A026-05F7-4E99-AC55-D533E46CE7AB";
paths = (
{
closed = 1;
nodes = (
"326 0 LINE SMOOTH",
"546 0 OFFCURVE",
"726 166 OFFCURVE",
"726 408 CURVE SMOOTH",
"726 598 OFFCURVE",
"616 700 OFFCURVE",
"449 700 CURVE SMOOTH",
"197 700 LINE",
"74 0 LINE"
);
},
{
closed = 1;
nodes = (
"428 577 LINE SMOOTH",
"533 577 OFFCURVE",
"585 514 OFFCURVE",
"585 396 CURVE SMOOTH",
"585 247 OFFCURVE",
"503 123 OFFCURVE",
"348 123 CURVE SMOOTH",
"224 123 LINE",
"304 577 LINE"
);
}
);
width = 691;
}
);
leftKerningGroup = I;
rightKerningGroup = D;
unicode = 0044;
},
{
glyphname = D.sc;
lastChange = "2016-08-23 13:01:52 +0000";
layers = (
{
background = {
paths = (
{
closed = 1;
nodes = (
"288 0 LINE SMOOTH",
"467 0 OFFCURVE",
"611 129 OFFCURVE",
"611 333 CURVE SMOOTH",
"611 475 OFFCURVE",
"522 560 OFFCURVE",
"387 560 CURVE SMOOTH",
"185 560 LINE",
"86 0 LINE"
);
},
{
closed = 1;
nodes = (
"371 472 LINE SMOOTH",
"464 472 OFFCURVE",
"509 414 OFFCURVE",
"509 324 CURVE SMOOTH",
"509 189 OFFCURVE",
"437 88 OFFCURVE",
"304 88 CURVE SMOOTH",
"194 88 LINE",
"262 472 LINE"
);
}
);
};
layerId = UUID0;
paths = (
{
closed = 1;
nodes = (
"288 0 LINE SMOOTH",
"467 0 OFFCURVE",
"611 129 OFFCURVE",
"611 333 CURVE SMOOTH",
"611 475 OFFCURVE",
"522 560 OFFCURVE",
"387 560 CURVE SMOOTH",
"185 560 LINE",
"86 0 LINE"
);
},
{
closed = 1;
nodes = (
"371 472 LINE SMOOTH",
"464 472 OFFCURVE",
"509 414 OFFCURVE",
"509 324 CURVE SMOOTH",
"509 189 OFFCURVE",
"437 88 OFFCURVE",
"304 88 CURVE SMOOTH",
"194 88 LINE",
"262 472 LINE"
);
}
);
width = 611;
},
{
background = {
paths = (
{
closed = 1;
nodes = (
"319 0 LINE SMOOTH",
"512 0 OFFCURVE",
"668 133 OFFCURVE",
"668 343 CURVE SMOOTH",
"668 492 OFFCURVE",
"570 581 OFFCURVE",
"422 581 CURVE SMOOTH",
"197 581 LINE",
"95 0 LINE"
);
},
{
closed = 1;
nodes = (
"401 462 LINE SMOOTH",
"489 462 OFFCURVE",
"532 413 OFFCURVE",
"532 331 CURVE SMOOTH",
"532 206 OFFCURVE",
"469 119 OFFCURVE",
"340 119 CURVE SMOOTH",
"239 119 LINE",
"299 462 LINE"
);
}
);
};
layerId = "D879A026-05F7-4E99-AC55-D533E46CE7AB";
paths = (
{
closed = 1;
nodes = (
"319 0 LINE SMOOTH",
"512 0 OFFCURVE",
"668 133 OFFCURVE",
"668 343 CURVE SMOOTH",
"668 492 OFFCURVE",
"570 581 OFFCURVE",
"422 581 CURVE SMOOTH",
"197 581 LINE",
"95 0 LINE"
);
},
{
closed = 1;
nodes = (
"401 462 LINE SMOOTH",
"489 462 OFFCURVE",
"532 413 OFFCURVE",
"532 331 CURVE SMOOTH",
"532 206 OFFCURVE",
"469 119 OFFCURVE",
"340 119 CURVE SMOOTH",
"239 119 LINE",
"299 462 LINE"
);
}
);
width = 671;
}
);
},
{
glyphname = E;
lastChange = "2016-08-23 13:01:52 +0000";
layers = (
{
background = {
paths = (
{
closed = 1;
nodes = (
"468 0 LINE",
"483 86 LINE",
"180 86 LINE",
"222 323 LINE",
"454 323 LINE",
"469 409 LINE",
"237 409 LINE",
"273 614 LINE",
"568 614 LINE",
"583 700 LINE",
"192 700 LINE",
"69 0 LINE"
);
}
);
};
layerId = UUID0;
paths = (
{
closed = 1;
nodes = (
"468 0 LINE",
"483 86 LINE",
"180 86 LINE",
"222 323 LINE",
"454 323 LINE",
"469 409 LINE",
"237 409 LINE",
"273 614 LINE",
"568 614 LINE",
"583 700 LINE",
"192 700 LINE",
"69 0 LINE"
);
}
);
width = 499;
},
{
background = {
paths = (
{
closed = 1;
nodes = (
"517 0 LINE",
"539 124 LINE",
"227 124 LINE",
"259 303 LINE",
"492 303 LINE",
"514 427 LINE",
"281 427 LINE",
"307 576 LINE",
"609 576 LINE",
"631 700 LINE",
"197 700 LINE",
"74 0 LINE"
);
}
);
};
layerId = "D879A026-05F7-4E99-AC55-D533E46CE7AB";
paths = (
{
closed = 1;
nodes = (
"517 0 LINE",
"539 124 LINE",
"227 124 LINE",
"259 303 LINE",
"492 303 LINE",
"514 427 LINE",
"281 427 LINE",
"307 576 LINE",
"609 576 LINE",
"631 700 LINE",
"197 700 LINE",
"74 0 LINE"
);
}
);
width = 550;
}
);
leftKerningGroup = E;
rightKerningGroup = E;
unicode = 0045;
},
{
glyphname = E.sc;
lastChange = "2016-08-23 13:01:52 +0000";
layers = (
{
background = {
paths = (
{
closed = 1;
nodes = (
"436 0 LINE",
"452 88 LINE",
"196 88 LINE",
"224 248 LINE",
"418 248 LINE",
"434 336 LINE",
"240 336 LINE",
"264 472 LINE",
"512 472 LINE",
"527 560 LINE",
"185 560 LINE",
"86 0 LINE"
);
}
);
};
layerId = UUID0;
paths = (
{
closed = 1;
nodes = (
"436 0 LINE",
"452 88 LINE",
"196 88 LINE",
"224 248 LINE",
"418 248 LINE",
"434 336 LINE",
"240 336 LINE",
"264 472 LINE",
"512 472 LINE",
"527 560 LINE",
"185 560 LINE",
"86 0 LINE"
);
}
);
width = 489;
},
{
background = {
paths = (
{
closed = 1;
nodes = (
"493 0 LINE",
"515 120 LINE",
"243 120 LINE",
"265 243 LINE",
"466 243 LINE",
"487 362 LINE",
"286 362 LINE",
"303 461 LINE",
"566 461 LINE",
"587 581 LINE",
"197 581 LINE",
"95 0 LINE"
);
}
);
};
layerId = "D879A026-05F7-4E99-AC55-D533E46CE7AB";
paths = (
{
closed = 1;
nodes = (
"493 0 LINE",
"515 120 LINE",
"243 120 LINE",
"265 243 LINE",
"466 243 LINE",
"487 362 LINE",
"286 362 LINE",
"303 461 LINE",
"566 461 LINE",
"587 581 LINE",
"197 581 LINE",
"95 0 LINE"
);
}
);
width = 551;
}
);
},
{
glyphname = Eth;
lastChange = "2016-08-23 13:01:52 +0000";
layers = (
{
background = {
paths = (
{
closed = 1;
nodes = (
"315 0 LINE SMOOTH",
"525 0 OFFCURVE",
"695 163 OFFCURVE",
"695 421 CURVE SMOOTH",
"695 596 OFFCURVE",
"594 700 OFFCURVE",
"438 700 CURVE SMOOTH",
"206 700 LINE",
"149 377 LINE",
"63 377 LINE",
"52 313 LINE",
"138 313 LINE",
"83 0 LINE"
);
},
{
closed = 1;
nodes = (
"423 614 LINE SMOOTH",
"537 614 OFFCURVE",
"592 534 OFFCURVE",
"592 414 CURVE SMOOTH",
"592 231 OFFCURVE",
"499 87 OFFCURVE",
"330 87 CURVE SMOOTH",
"190 87 LINE",
"230 313 LINE",
"346 313 LINE",
"358 377 LINE",
"241 377 LINE",
"283 614 LINE"
);
}
);
};
layerId = UUID0;
paths = (
{
closed = 1;
nodes = (
"315 0 LINE SMOOTH",
"525 0 OFFCURVE",
"695 163 OFFCURVE",
"695 421 CURVE SMOOTH",
"695 596 OFFCURVE",
"594 700 OFFCURVE",
"438 700 CURVE SMOOTH",
"206 700 LINE",
"149 377 LINE",
"63 377 LINE",
"52 313 LINE",
"138 313 LINE",
"83 0 LINE"
);
},
{
closed = 1;
nodes = (
"423 614 LINE SMOOTH",
"537 614 OFFCURVE",
"592 534 OFFCURVE",
"592 414 CURVE SMOOTH",
"592 231 OFFCURVE",
"499 87 OFFCURVE",
"330 87 CURVE SMOOTH",
"190 87 LINE",
"230 313 LINE",
"346 313 LINE",
"358 377 LINE",
"241 377 LINE",
"283 614 LINE"
);
}
);
width = 658;
},
{
background = {
paths = (
{
closed = 1;
nodes = (
"336 0 LINE SMOOTH",
"557 0 OFFCURVE",
"737 162 OFFCURVE",
"737 416 CURVE SMOOTH",
"737 594 OFFCURVE",
"627 700 OFFCURVE",
"460 700 CURVE SMOOTH",
"207 700 LINE",
"153 393 LINE",
"66 393 LINE",
"49 299 LINE",
"137 299 LINE",
"84 0 LINE"
);
},
{
closed = 1;
nodes = (
"438 577 LINE SMOOTH",
"544 577 OFFCURVE",
"595 510 OFFCURVE",
"595 404 CURVE SMOOTH",
"595 243 OFFCURVE",
"513 123 OFFCURVE",
"358 123 CURVE SMOOTH",
"234 123 LINE",
"265 299 LINE",
"381 299 LINE",
"397 393 LINE",
"282 393 LINE",
"314 577 LINE"
);
}
);
};
layerId = "D879A026-05F7-4E99-AC55-D533E46CE7AB";
paths = (
{
closed = 1;
nodes = (
"336 0 LINE SMOOTH",
"557 0 OFFCURVE",
"737 162 OFFCURVE",
"737 416 CURVE SMOOTH",
"737 594 OFFCURVE",
"627 700 OFFCURVE",
"460 700 CURVE SMOOTH",
"207 700 LINE",
"153 393 LINE",
"66 393 LINE",
"49 299 LINE",
"137 299 LINE",
"84 0 LINE"
);
},
{
closed = 1;
nodes = (
"438 577 LINE SMOOTH",
"544 577 OFFCURVE",
"595 510 OFFCURVE",
"595 404 CURVE SMOOTH",
"595 243 OFFCURVE",
"513 123 OFFCURVE",
"358 123 CURVE SMOOTH",
"234 123 LINE",
"265 299 LINE",
"381 299 LINE",
"397 393 LINE",
"282 393 LINE",
"314 577 LINE"
);
}
);
width = 702;
}
);
leftKerningGroup = I;
rightKerningGroup = D;
unicode = 00D0;
},
{
glyphname = Euro;
lastChange = "2016-08-23 13:01:52 +0000";
layers = (
{
background = {
paths = (
{
closed = 1;
nodes = (
"488 17 OFFCURVE",
"548 28 OFFCURVE",
"597 51 CURVE",
"603 149 LINE",
"552 127 OFFCURVE",
"505 111 OFFCURVE",
"448 111 CURVE SMOOTH",
"378 111 OFFCURVE",
"335 143 OFFCURVE",
"314 215 CURVE",
"488 215 LINE",
"523 284 LINE",
"305 284 LINE",
"306 310 OFFCURVE",
"309 329 OFFCURVE",
"313 350 CURVE SMOOTH",
"317 374 LINE",
"534 374 LINE",
"568 438 LINE",
"338 438 LINE",
"380 534 OFFCURVE",
"443 589 OFFCURVE",
"532 589 CURVE SMOOTH",
"589 589 OFFCURVE",
"631 573 OFFCURVE",
"674 551 CURVE",
"703 649 LINE",
"661 672 OFFCURVE",
"605 683 OFFCURVE",
"549 683 CURVE SMOOTH",
"412 683 OFFCURVE",
"289 592 OFFCURVE",
"228 438 CURVE",
"161 438 LINE",
"128 374 LINE",
"208 374 LINE",
"204 350 LINE",
"201 331 OFFCURVE",
"198 312 OFFCURVE",
"196 284 CURVE",
"108 284 LINE",
"73 215 LINE",
"201 215 LINE",
"224 89 OFFCURVE",
"310 17 OFFCURVE",
"431 17 CURVE SMOOTH"
);
}
);
};
layerId = UUID0;
paths = (
{
closed = 1;
nodes = (
"431 17 LINE",
"488 17 OFFCURVE",
"548 28 OFFCURVE",
"597 51 CURVE",
"603 149 LINE",
"552 127 OFFCURVE",
"505 111 OFFCURVE",
"448 111 CURVE SMOOTH",
"378 111 OFFCURVE",
"335 143 OFFCURVE",
"314 215 CURVE",
"488 215 LINE",
"523 284 LINE",
"305 284 LINE",
"306 310 OFFCURVE",
"309 329 OFFCURVE",
"313 350 CURVE SMOOTH",
"317 374 LINE",
"534 374 LINE",
"568 438 LINE",
"338 438 LINE",
"380 534 OFFCURVE",
"443 589 OFFCURVE",
"532 589 CURVE SMOOTH",
"589 589 OFFCURVE",
"631 573 OFFCURVE",
"674 551 CURVE",
"703 649 LINE",
"661 672 OFFCURVE",
"605 683 OFFCURVE",
"549 683 CURVE SMOOTH",
"412 683 OFFCURVE",
"289 592 OFFCURVE",
"228 438 CURVE",
"161 438 LINE",
"128 374 LINE",
"208 374 LINE",
"204 350 LINE",
"201 331 OFFCURVE",
"198 312 OFFCURVE",
"196 284 CURVE",
"108 284 LINE",
"73 215 LINE",
"201 215 LINE",
"224 89 OFFCURVE",
"310 17 OFFCURVE",
"431 17 CURVE SMOOTH"
);
}
);
width = 636;
},
{
background = {
paths = (
{
closed = 1;
nodes = (
"513 17 OFFCURVE",
"579 29 OFFCURVE",
"633 54 CURVE",
"639 167 LINE",
"583 144 OFFCURVE",
"533 127 OFFCURVE",
"471 127 CURVE SMOOTH",
"401 127 OFFCURVE",
"358 157 OFFCURVE",
"340 209 CURVE",
"513 209 LINE",
"558 295 LINE",
"327 295 LINE",
"327 312 OFFCURVE",
"330 330 OFFCURVE",
"333 350 CURVE SMOOTH",
"335 364 LINE",
"559 364 LINE",
"603 445 LINE",
"363 445 LINE",
"399 523 OFFCURVE",
"461 573 OFFCURVE",
"550 573 CURVE SMOOTH",
"611 573 OFFCURVE",
"655 556 OFFCURVE",
"703 533 CURVE",
"737 646 LINE",
"692 671 OFFCURVE",
"631 683 OFFCURVE",
"569 683 CURVE SMOOTH",
"423 683 OFFCURVE",
"293 592 OFFCURVE",
"233 445 CURVE",
"163 445 LINE",
"121 364 LINE",
"208 364 LINE",
"205 350 LINE",
"202 331 OFFCURVE",
"199 312 OFFCURVE",
"198 295 CURVE",
"111 295 LINE",
"66 209 LINE",
"205 209 LINE",
"229 89 OFFCURVE",
"322 17 OFFCURVE",
"452 17 CURVE SMOOTH"
);
}
);
};
layerId = "D879A026-05F7-4E99-AC55-D533E46CE7AB";
paths = (
{
closed = 1;
nodes = (
"452 17 LINE",
"513 17 OFFCURVE",
"579 29 OFFCURVE",
"633 54 CURVE",
"639 167 LINE",
"583 144 OFFCURVE",
"533 127 OFFCURVE",
"471 127 CURVE SMOOTH",
"401 127 OFFCURVE",
"358 157 OFFCURVE",
"340 209 CURVE",
"513 209 LINE",
"558 295 LINE",
"327 295 LINE",
"327 312 OFFCURVE",
"330 330 OFFCURVE",
"333 350 CURVE SMOOTH",
"335 364 LINE",
"559 364 LINE",
"603 445 LINE",
"363 445 LINE",
"399 523 OFFCURVE",
"461 573 OFFCURVE",
"550 573 CURVE SMOOTH",
"611 573 OFFCURVE",
"655 556 OFFCURVE",
"703 533 CURVE",
"737 646 LINE",
"692 671 OFFCURVE",
"631 683 OFFCURVE",
"569 683 CURVE SMOOTH",
"423 683 OFFCURVE",
"293 592 OFFCURVE",
"233 445 CURVE",
"163 445 LINE",
"121 364 LINE",
"208 364 LINE",
"205 350 LINE",
"202 331 OFFCURVE",
"199 312 OFFCURVE",
"198 295 CURVE",
"111 295 LINE",
"66 209 LINE",
"205 209 LINE",
"229 89 OFFCURVE",
"322 17 OFFCURVE",
"452 17 CURVE SMOOTH"
);
}
);
width = 672;
}
);
unicode = 20AC;
},
{
glyphname = F;
lastChange = "2016-08-23 13:01:52 +0000";
layers = (
{
background = {
paths = (
{
closed = 1;
nodes = (
"563 614 LINE",
"578 700 LINE",
"192 700 LINE",
"69 0 LINE",
"164 0 LINE",
"221 323 LINE",
"445 323 LINE",
"460 409 LINE",
"236 409 LINE",
"272 614 LINE"
);
}
);
};
layerId = UUID0;
paths = (
{
closed = 1;
nodes = (
"563 614 LINE",
"578 700 LINE",
"192 700 LINE",
"69 0 LINE",
"164 0 LINE",
"221 323 LINE",
"445 323 LINE",
"460 409 LINE",
"236 409 LINE",
"272 614 LINE"
);
}
);
width = 470;
},
{
background = {
paths = (
{
closed = 1;
nodes = (
"590 576 LINE",
"612 700 LINE",
"197 700 LINE",
"74 0 LINE",
"202 0 LINE",
"255 303 LINE",
"477 303 LINE",
"499 427 LINE",
"277 427 LINE",
"304 576 LINE"
);
}
);
};
layerId = "D879A026-05F7-4E99-AC55-D533E46CE7AB";
paths = (
{
closed = 1;
nodes = (
"590 576 LINE",
"612 700 LINE",
"197 700 LINE",
"74 0 LINE",
"202 0 LINE",
"255 303 LINE",
"477 303 LINE",
"499 427 LINE",
"277 427 LINE",
"304 576 LINE"
);
}
);
width = 505;
}
);
leftKerningGroup = I;
unicode = 0046;
},
{
glyphname = F.sc;
lastChange = "2016-08-23 13:01:52 +0000";
layers = (
{
background = {
paths = (
{
closed = 1;
nodes = (
"502 472 LINE",
"517 560 LINE",
"185 560 LINE",
"86 0 LINE",
"178 0 LINE",
"222 248 LINE",
"408 248 LINE",
"423 336 LINE",
"238 336 LINE",
"262 472 LINE"
);
}
);
};
layerId = UUID0;
paths = (
{
closed = 1;
nodes = (
"502 472 LINE",
"517 560 LINE",
"185 560 LINE",
"86 0 LINE",
"178 0 LINE",
"222 248 LINE",
"408 248 LINE",
"423 336 LINE",
"238 336 LINE",
"262 472 LINE"
);
}
);
width = 458;
},
{
background = {
paths = (
{
closed = 1;
nodes = (
"545 461 LINE",
"566 581 LINE",
"197 581 LINE",
"95 0 LINE",
"218 0 LINE",
"261 243 LINE",
"450 243 LINE",
"471 362 LINE",
"282 362 LINE",
"299 461 LINE"
);
}
);
};
layerId = "D879A026-05F7-4E99-AC55-D533E46CE7AB";
paths = (
{
closed = 1;
nodes = (
"545 461 LINE",
"566 581 LINE",
"197 581 LINE",
"95 0 LINE",
"218 0 LINE",
"261 243 LINE",
"450 243 LINE",
"471 362 LINE",
"282 362 LINE",
"299 461 LINE"
);
}
);
width = 507;
}
);
},
{
glyphname = G;
lastChange = "2016-08-23 13:01:52 +0000";
layers = (
{
background = {
paths = (
{
closed = 1;
nodes = (
"409 -14 OFFCURVE",
"508 10 OFFCURVE",
"562 39 CURVE",
"617 351 LINE",
"432 351 LINE",
"417 265 LINE",
"507 265 LINE",
"476 91 LINE",
"441 76 OFFCURVE",
"400 72 OFFCURVE",
"373 72 CURVE SMOOTH",
"247 72 OFFCURVE",
"189 162 OFFCURVE",
"189 285 CURVE SMOOTH",
"189 459 OFFCURVE",
"281 628 OFFCURVE",
"460 628 CURVE SMOOTH",
"517 628 OFFCURVE",
"581 611 OFFCURVE",
"629 591 CURVE",
"653 674 LINE",
"610 697 OFFCURVE",
"534 714 OFFCURVE",
"472 714 CURVE SMOOTH",
"259 714 OFFCURVE",
"85 536 OFFCURVE",
"85 279 CURVE SMOOTH",
"85 100 OFFCURVE",
"186 -14 OFFCURVE",
"337 -14 CURVE SMOOTH"
);
}
);
};
layerId = UUID0;
paths = (
{
closed = 1;
nodes = (
"338 -14 LINE",
"409 -14 OFFCURVE",
"508 10 OFFCURVE",
"562 39 CURVE",
"617 351 LINE",
"432 351 LINE",
"417 265 LINE",
"507 265 LINE",
"476 91 LINE",
"441 76 OFFCURVE",
"400 72 OFFCURVE",
"373 72 CURVE SMOOTH",
"247 72 OFFCURVE",
"189 159 OFFCURVE",
"189 290 CURVE SMOOTH",
"189 456 OFFCURVE",
"281 628 OFFCURVE",
"460 628 CURVE SMOOTH",
"517 628 OFFCURVE",
"581 611 OFFCURVE",
"629 591 CURVE",
"653 674 LINE",
"610 697 OFFCURVE",
"535 714 OFFCURVE",
"470 714 CURVE SMOOTH",
"259 714 OFFCURVE",
"85 532 OFFCURVE",
"85 285 CURVE SMOOTH",
"85 97 OFFCURVE",
"186 -14 OFFCURVE",
"338 -14 CURVE SMOOTH"
);
}
);
width = 597;
},
{
background = {
paths = (
{
closed = 1;
nodes = (
"436 -14 OFFCURVE",
"546 10 OFFCURVE",
"599 39 CURVE",
"654 351 LINE",
"458 351 LINE",
"439 245 LINE",
"508 245 LINE",
"486 120 LINE",
"452 113 OFFCURVE",
"423 109 OFFCURVE",
"395 109 CURVE SMOOTH",
"284 109 OFFCURVE",
"230 187 OFFCURVE",
"230 298 CURVE SMOOTH",
"230 452 OFFCURVE",
"310 591 OFFCURVE",
"476 591 CURVE SMOOTH",
"535 591 OFFCURVE",
"606 573 OFFCURVE",
"653 551 CURVE",
"689 673 LINE",
"645 698 OFFCURVE",
"559 714 OFFCURVE",
"494 714 CURVE SMOOTH",
"268 714 OFFCURVE",
"88 535 OFFCURVE",
"88 283 CURVE SMOOTH",
"88 103 OFFCURVE",
"196 -14 OFFCURVE",
"359 -14 CURVE SMOOTH"
);
}
);
};
layerId = "D879A026-05F7-4E99-AC55-D533E46CE7AB";
paths = (
{
closed = 1;
nodes = (
"361 -14 LINE",
"436 -14 OFFCURVE",
"546 10 OFFCURVE",
"599 39 CURVE",
"654 351 LINE",
"458 351 LINE",
"439 245 LINE",
"508 245 LINE",
"486 120 LINE",
"452 113 OFFCURVE",
"422 109 OFFCURVE",
"396 109 CURVE SMOOTH",
"284 109 OFFCURVE",
"230 184 OFFCURVE",
"230 304 CURVE SMOOTH",
"230 449 OFFCURVE",
"310 591 OFFCURVE",
"476 591 CURVE SMOOTH",
"535 591 OFFCURVE",
"606 573 OFFCURVE",
"653 551 CURVE",
"689 673 LINE",
"645 698 OFFCURVE",
"559 714 OFFCURVE",
"492 714 CURVE SMOOTH",
"268 714 OFFCURVE",
"88 532 OFFCURVE",
"88 289 CURVE SMOOTH",
"88 100 OFFCURVE",
"196 -14 OFFCURVE",
"361 -14 CURVE SMOOTH"
);
}
);
width = 638;
}
);
leftKerningGroup = O;
unicode = 0047;
},
{
glyphname = G.sc;
lastChange = "2016-08-23 13:01:52 +0000";
layers = (
{
background = {
paths = (
{
closed = 1;
nodes = (
"379 -11 OFFCURVE",
"466 8 OFFCURVE",
"510 31 CURVE",
"554 281 LINE",
"396 281 LINE",
"382 202 LINE",
"448 202 LINE",
"427 88 LINE",
"399 80 OFFCURVE",
"370 77 OFFCURVE",
"347 77 CURVE SMOOTH",
"247 77 OFFCURVE",
"200 143 OFFCURVE",
"200 237 CURVE SMOOTH",
"200 366 OFFCURVE",
"270 483 OFFCURVE",
"412 483 CURVE SMOOTH",
"461 483 OFFCURVE",
"517 469 OFFCURVE",
"557 452 CURVE",
"582 539 LINE",
"546 558 OFFCURVE",
"478 571 OFFCURVE",
"426 571 CURVE SMOOTH",
"244 571 OFFCURVE",
"98 430 OFFCURVE",
"98 227 CURVE SMOOTH",
"98 82 OFFCURVE",
"186 -11 OFFCURVE",
"317 -11 CURVE SMOOTH"
);
}
);
};
layerId = UUID0;
paths = (
{
closed = 1;
nodes = (
"317 -11 LINE",
"379 -11 OFFCURVE",
"466 8 OFFCURVE",
"510 31 CURVE",
"554 281 LINE",
"396 281 LINE",
"382 202 LINE",
"448 202 LINE",
"427 88 LINE",
"399 80 OFFCURVE",
"370 77 OFFCURVE",
"347 77 CURVE SMOOTH",
"247 77 OFFCURVE",
"200 143 OFFCURVE",
"200 237 CURVE SMOOTH",
"200 366 OFFCURVE",
"270 483 OFFCURVE",
"412 483 CURVE SMOOTH",
"461 483 OFFCURVE",
"517 469 OFFCURVE",
"557 452 CURVE",
"582 539 LINE",
"546 558 OFFCURVE",
"478 571 OFFCURVE",
"426 571 CURVE SMOOTH",
"244 571 OFFCURVE",
"98 430 OFFCURVE",
"98 227 CURVE SMOOTH",
"98 82 OFFCURVE",
"186 -11 OFFCURVE",
"317 -11 CURVE SMOOTH"
);
}
);
width = 568;
},
{
background = {
paths = (
{
closed = 1;
nodes = (
"414 -12 OFFCURVE",
"513 8 OFFCURVE",
"558 32 CURVE",
"604 291 LINE",
"430 291 LINE",
"413 194 LINE",
"464 194 LINE",
"450 113 LINE",
"422 110 OFFCURVE",
"400 107 OFFCURVE",
"376 107 CURVE SMOOTH",
"285 107 OFFCURVE",
"241 166 OFFCURVE",
"241 254 CURVE SMOOTH",
"241 373 OFFCURVE",
"304 474 OFFCURVE",
"440 474 CURVE SMOOTH",
"492 474 OFFCURVE",
"556 459 OFFCURVE",
"597 439 CURVE",
"632 558 LINE",
"594 580 OFFCURVE",
"516 593 OFFCURVE",
"458 593 CURVE SMOOTH",
"260 593 OFFCURVE",
"104 445 OFFCURVE",
"104 238 CURVE SMOOTH",
"104 88 OFFCURVE",
"200 -12 OFFCURVE",
"347 -12 CURVE SMOOTH"
);
}
);
};
layerId = "D879A026-05F7-4E99-AC55-D533E46CE7AB";
paths = (
{
closed = 1;
nodes = (
"347 -12 LINE",
"414 -12 OFFCURVE",
"513 8 OFFCURVE",
"558 32 CURVE",
"604 291 LINE",
"430 291 LINE",
"413 194 LINE",
"464 194 LINE",
"450 113 LINE",
"422 110 OFFCURVE",
"400 107 OFFCURVE",
"376 107 CURVE SMOOTH",
"285 107 OFFCURVE",
"241 166 OFFCURVE",
"241 254 CURVE SMOOTH",
"241 373 OFFCURVE",
"304 474 OFFCURVE",
"440 474 CURVE SMOOTH",
"492 474 OFFCURVE",
"556 459 OFFCURVE",
"597 439 CURVE",
"632 558 LINE",
"594 580 OFFCURVE",
"516 593 OFFCURVE",
"458 593 CURVE SMOOTH",
"260 593 OFFCURVE",
"104 445 OFFCURVE",
"104 238 CURVE SMOOTH",
"104 88 OFFCURVE",
"200 -12 OFFCURVE",
"347 -12 CURVE SMOOTH"
);
}
);
width = 621;
}
);
},
{
glyphname = H;
lastChange = "2016-08-23 13:01:52 +0000";
layers = (
{
background = {
paths = (
{
closed = 1;
nodes = (
"596 0 LINE",
"720 700 LINE",
"625 700 LINE",
"574 411 LINE",
"236 411 LINE",
"287 700 LINE",
"192 700 LINE",
"69 0 LINE",
"164 0 LINE",
"221 321 LINE",
"558 321 LINE",
"501 0 LINE"
);
}
);
};
layerId = UUID0;
paths = (
{
closed = 1;
nodes = (
"596 0 LINE",
"720 700 LINE",
"625 700 LINE",
"574 411 LINE",
"236 411 LINE",
"287 700 LINE",
"192 700 LINE",
"69 0 LINE",
"164 0 LINE",
"221 321 LINE",
"558 321 LINE",
"501 0 LINE"
);
}
);
width = 666;
},
{
background = {
paths = (
{
closed = 1;
nodes = (
"637 0 LINE",
"760 700 LINE",
"632 700 LINE",
"584 427 LINE",
"277 427 LINE",
"325 700 LINE",
"197 700 LINE",
"74 0 LINE",
"202 0 LINE",
"255 303 LINE",
"562 303 LINE",
"509 0 LINE"
);
}
);
};
layerId = "D879A026-05F7-4E99-AC55-D533E46CE7AB";
paths = (
{
closed = 1;
nodes = (
"637 0 LINE",
"760 700 LINE",
"632 700 LINE",
"584 427 LINE",
"277 427 LINE",
"325 700 LINE",
"197 700 LINE",
"74 0 LINE",
"202 0 LINE",
"255 303 LINE",
"562 303 LINE",
"509 0 LINE"
);
}
);
width = 710;
}
);
leftKerningGroup = I;
rightKerningGroup = I;
unicode = 0048;
},
{
glyphname = H.sc;
lastChange = "2016-08-23 13:01:52 +0000";
layers = (
{
background = {
paths = (
{
closed = 1;
nodes = (
"539 0 LINE",
"638 560 LINE",
"546 560 LINE",
"506 337 LINE",
"238 337 LINE",
"277 560 LINE",
"185 560 LINE",
"86 0 LINE",
"178 0 LINE",
"222 248 LINE",
"490 248 LINE",
"447 0 LINE"
);
}
);
};
layerId = UUID0;
paths = (
{
closed = 1;
nodes = (
"539 0 LINE",
"638 560 LINE",
"546 560 LINE",
"506 337 LINE",
"238 337 LINE",
"277 560 LINE",
"185 560 LINE",
"86 0 LINE",
"178 0 LINE",
"222 248 LINE",
"490 248 LINE",
"447 0 LINE"
);
}
);
width = 626;
},
{
background = {
paths = (
{
closed = 1;
nodes = (
"593 0 LINE",
"696 581 LINE",
"572 581 LINE",
"533 362 LINE",
"282 362 LINE",
"320 581 LINE",
"197 581 LINE",
"95 0 LINE",
"218 0 LINE",
"261 243 LINE",
"512 243 LINE",
"469 0 LINE"
);
}
);
};
layerId = "D879A026-05F7-4E99-AC55-D533E46CE7AB";
paths = (
{
closed = 1;
nodes = (
"593 0 LINE",
"696 581 LINE",
"572 581 LINE",
"533 362 LINE",
"282 362 LINE",
"320 581 LINE",
"197 581 LINE",
"95 0 LINE",
"218 0 LINE",
"261 243 LINE",
"512 243 LINE",
"469 0 LINE"
);
}
);
width = 688;
}
);
},
{
glyphname = I;
lastChange = "2016-08-23 13:01:52 +0000";
layers = (
{
background = {
paths = (
{
closed = 1;
nodes = (
"174 0 LINE",
"297 700 LINE",
"202 700 LINE",
"79 0 LINE"
);
}
);
};
layerId = UUID0;
paths = (
{
closed = 1;
nodes = (
"174 0 LINE",
"297 700 LINE",
"202 700 LINE",
"79 0 LINE"
);
}
);
width = 253;
},
{
background = {
paths = (
{
closed = 1;
nodes = (
"199 0 LINE",
"322 700 LINE",
"194 700 LINE",
"71 0 LINE"
);
}
);
};
layerId = "D879A026-05F7-4E99-AC55-D533E46CE7AB";
paths = (
{
closed = 1;
nodes = (
"199 0 LINE",
"322 700 LINE",
"194 700 LINE",
"71 0 LINE"
);
}
);
width = 270;
}
);
leftKerningGroup = I;
rightKerningGroup = I;
unicode = 0049;
},
{
glyphname = I.sc;
lastChange = "2016-08-23 13:01:52 +0000";
layers = (
{
background = {
paths = (
{
closed = 1;
nodes = (
"182 0 LINE",
"281 560 LINE",
"189 560 LINE",
"90 0 LINE"
);
}
);
};
layerId = UUID0;
paths = (
{
closed = 1;
nodes = (
"182 0 LINE",
"281 560 LINE",
"189 560 LINE",
"90 0 LINE"
);
}
);
width = 272;
},
{
background = {
paths = (
{
closed = 1;
nodes = (
"211 0 LINE",
"313 581 LINE",
"190 581 LINE",
"88 0 LINE"
);
}
);
};
layerId = "D879A026-05F7-4E99-AC55-D533E46CE7AB";
paths = (
{
closed = 1;
nodes = (
"211 0 LINE",
"313 581 LINE",
"190 581 LINE",
"88 0 LINE"
);
}
);
width = 297;
}
);
},
{
glyphname = J;
lastChange = "2016-08-23 13:01:52 +0000";
layers = (
{
background = {
paths = (
{
closed = 1;
nodes = (
"-2 -172 LINE SMOOTH",
"97 -172 OFFCURVE",
"155 -122 OFFCURVE",
"171 -32 CURVE SMOOTH",
"300 700 LINE",
"205 700 LINE",
"81 -3 LINE SMOOTH",
"67 -81 OFFCURVE",
"47 -116 OFFCURVE",
"-12 -116 CURVE SMOOTH",
"-21 -116 LINE",
"-22 -172 LINE"
);
}
);
};
layerId = UUID0;
paths = (
{
closed = 1;
nodes = (
"-2 -172 LINE SMOOTH",
"97 -172 OFFCURVE",
"155 -122 OFFCURVE",
"171 -32 CURVE SMOOTH",
"300 700 LINE",
"205 700 LINE",
"81 -3 LINE SMOOTH",
"67 -81 OFFCURVE",
"47 -116 OFFCURVE",
"-12 -116 CURVE SMOOTH",
"-21 -116 LINE",
"-23 -172 LINE"
);
}
);
width = 253;
},
{
background = {
paths = (
{
closed = 1;
nodes = (
"14 -172 LINE SMOOTH",
"107 -172 OFFCURVE",
"177 -124 OFFCURVE",
"195 -24 CURVE SMOOTH",
"323 700 LINE",
"195 700 LINE",
"72 4 LINE SMOOTH",
"62 -51 OFFCURVE",
"46 -76 OFFCURVE",
"13 -76 CURVE SMOOTH",
"-17 -76 LINE",
"-24 -172 LINE"
);
}
);
};
layerId = "D879A026-05F7-4E99-AC55-D533E46CE7AB";
paths = (
{
closed = 1;
nodes = (
"14 -172 LINE SMOOTH",
"107 -172 OFFCURVE",
"177 -124 OFFCURVE",
"195 -24 CURVE SMOOTH",
"323 700 LINE",
"195 700 LINE",
"72 4 LINE SMOOTH",
"62 -51 OFFCURVE",
"46 -76 OFFCURVE",
"13 -76 CURVE SMOOTH",
"-17 -76 LINE",
"-24 -172 LINE"
);
}
);
width = 271;
}
);
unicode = 004A;
},
{
glyphname = J.sc;
lastChange = "2016-08-23 13:01:52 +0000";
layers = (
{
background = {
paths = (
{
closed = 1;
nodes = (
"33 -138 LINE SMOOTH",
"113 -138 OFFCURVE",
"166 -99 OFFCURVE",
"179 -22 CURVE SMOOTH",
"282 560 LINE",
"190 560 LINE",
"91 1 LINE SMOOTH",
"82 -49 OFFCURVE",
"67 -72 OFFCURVE",
"29 -72 CURVE SMOOTH",
"13 -72 LINE",
"9 -138 LINE"
);
}
);
};
layerId = UUID0;
paths = (
{
closed = 1;
nodes = (
"33 -138 LINE SMOOTH",
"113 -138 OFFCURVE",
"166 -99 OFFCURVE",
"179 -22 CURVE SMOOTH",
"282 560 LINE",
"190 560 LINE",
"91 1 LINE SMOOTH",
"82 -49 OFFCURVE",
"67 -72 OFFCURVE",
"29 -72 CURVE SMOOTH",
"13 -72 LINE",
"9 -138 LINE"
);
}
);
width = 272;
},
{
background = {
paths = (
{
closed = 1;
nodes = (
"47 -143 LINE SMOOTH",
"125 -143 OFFCURVE",
"189 -104 OFFCURVE",
"205 -16 CURVE SMOOTH",
"310 581 LINE",
"187 581 LINE",
"86 6 LINE SMOOTH",
"80 -29 OFFCURVE",
"68 -45 OFFCURVE",
"49 -45 CURVE SMOOTH",
"17 -45 LINE",
"8 -143 LINE"
);
}
);
};
layerId = "D879A026-05F7-4E99-AC55-D533E46CE7AB";
paths = (
{
closed = 1;
nodes = (
"47 -143 LINE SMOOTH",
"125 -143 OFFCURVE",
"189 -104 OFFCURVE",
"205 -16 CURVE SMOOTH",
"310 581 LINE",
"187 581 LINE",
"86 6 LINE SMOOTH",
"80 -29 OFFCURVE",
"68 -45 OFFCURVE",
"49 -45 CURVE SMOOTH",
"17 -45 LINE",
"8 -143 LINE"
);
}
);
width = 297;
}
);
},
{
glyphname = K;
lastChange = "2016-08-23 13:01:52 +0000";
layers = (
{
background = {
paths = (
{
closed = 1;
nodes = (
"548 0 LINE",
"384 371 LINE",
"671 700 LINE",
"568 700 LINE",
"281 371 LINE",
"445 0 LINE"
);
},
{
closed = 1;
nodes = (
"185 0 LINE",
"308 700 LINE",
"213 700 LINE",
"90 0 LINE"
);
}
);
};
layerId = UUID0;
paths = (
{
closed = 1;
nodes = (
"548 0 LINE",
"384 371 LINE",
"671 700 LINE",
"568 700 LINE",
"281 371 LINE",
"445 0 LINE"
);
},
{
closed = 1;
nodes = (
"185 0 LINE",
"308 700 LINE",
"213 700 LINE",
"90 0 LINE"
);
}
);
width = 572;
},
{
background = {
paths = (
{
closed = 1;
nodes = (
"596 0 LINE",
"429 370 LINE",
"719 700 LINE",
"574 700 LINE",
"284 370 LINE",
"451 0 LINE"
);
},
{
closed = 1;
nodes = (
"197 0 LINE",
"320 700 LINE",
"192 700 LINE",
"69 0 LINE"
);
}
);
};
layerId = "D879A026-05F7-4E99-AC55-D533E46CE7AB";
paths = (
{
closed = 1;
nodes = (
"596 0 LINE",
"429 370 LINE",
"719 700 LINE",
"574 700 LINE",
"284 370 LINE",
"451 0 LINE"
);
},
{
closed = 1;
nodes = (
"197 0 LINE",
"320 700 LINE",
"192 700 LINE",
"69 0 LINE"
);
}
);
width = 593;
}
);
leftKerningGroup = I;
unicode = 004B;
},
{
glyphname = K.sc;
lastChange = "2016-08-23 13:01:52 +0000";
layers = (
{
background = {
paths = (
{
closed = 1;
nodes = (
"502 0 LINE",
"363 296 LINE",
"601 560 LINE",
"498 560 LINE",
"260 296 LINE",
"400 0 LINE"
);
},
{
closed = 1;
nodes = (
"185 0 LINE",
"284 560 LINE",
"192 560 LINE",
"93 0 LINE"
);
}
);
};
layerId = UUID0;
paths = (
{
closed = 1;
nodes = (
"502 0 LINE",
"363 296 LINE",
"601 560 LINE",
"498 560 LINE",
"260 296 LINE",
"400 0 LINE"
);
},
{
closed = 1;
nodes = (
"185 0 LINE",
"284 560 LINE",
"192 560 LINE",
"93 0 LINE"
);
}
);
width = 538;
},
{
background = {
paths = (
{
closed = 1;
nodes = (
"560 0 LINE",
"413 307 LINE",
"662 581 LINE",
"522 581 LINE",
"273 307 LINE",
"419 0 LINE"
);
},
{
closed = 1;
nodes = (
"203 0 LINE",
"305 581 LINE",
"182 581 LINE",
"80 0 LINE"
);
}
);
};
layerId = "D879A026-05F7-4E99-AC55-D533E46CE7AB";
paths = (
{
closed = 1;
nodes = (
"560 0 LINE",
"413 307 LINE",
"662 581 LINE",
"522 581 LINE",
"273 307 LINE",
"419 0 LINE"
);
},
{
closed = 1;
nodes = (
"203 0 LINE",
"305 581 LINE",
"182 581 LINE",
"80 0 LINE"
);
}
);
width = 575;
}
);
},
{
glyphname = L;
lastChange = "2016-08-23 13:01:52 +0000";
layers = (
{
background = {
paths = (
{
closed = 1;
nodes = (
"443 0 LINE",
"459 86 LINE",
"179 86 LINE",
"287 700 LINE",
"192 700 LINE",
"69 0 LINE"
);
}
);
};
layerId = UUID0;
paths = (
{
closed = 1;
nodes = (
"443 0 LINE",
"459 86 LINE",
"179 86 LINE",
"287 700 LINE",
"192 700 LINE",
"69 0 LINE"
);
}
);
width = 450;
},
{
background = {
paths = (
{
closed = 1;
nodes = (
"473 0 LINE",
"495 124 LINE",
"224 124 LINE",
"325 700 LINE",
"197 700 LINE",
"74 0 LINE"
);
}
);
};
layerId = "D879A026-05F7-4E99-AC55-D533E46CE7AB";
paths = (
{
closed = 1;
nodes = (
"473 0 LINE",
"495 124 LINE",
"224 124 LINE",
"325 700 LINE",
"197 700 LINE",
"74 0 LINE"
);
}
);
width = 480;
}
);
leftKerningGroup = I;
unicode = 004C;
},
{
glyphname = L.sc;
lastChange = "2016-08-23 13:01:52 +0000";
layers = (
{
background = {
paths = (
{
closed = 1;
nodes = (
"408 0 LINE",
"424 88 LINE",
"194 88 LINE",
"277 560 LINE",
"185 560 LINE",
"86 0 LINE"
);
}
);
};
layerId = UUID0;
paths = (
{
closed = 1;
nodes = (
"408 0 LINE",
"424 88 LINE",
"194 88 LINE",
"277 560 LINE",
"185 560 LINE",
"86 0 LINE"
);
}
);
width = 441;
},
{
background = {
paths = (
{
closed = 1;
nodes = (
"448 0 LINE",
"469 120 LINE",
"239 120 LINE",
"320 581 LINE",
"197 581 LINE",
"95 0 LINE"
);
}
);
};
layerId = "D879A026-05F7-4E99-AC55-D533E46CE7AB";
paths = (
{
closed = 1;
nodes = (
"448 0 LINE",
"469 120 LINE",
"239 120 LINE",
"320 581 LINE",
"197 581 LINE",
"95 0 LINE"
);
}
);
width = 482;
}
);
},
{
glyphname = M;
lastChange = "2016-08-23 13:01:52 +0000";
layers = (
{
background = {
paths = (
{
closed = 1;
nodes = (
"703 0 LINE",
"741 700 LINE",
"661 700 LINE",
"439 353 LINE",
"339 700 LINE",
"259 700 LINE",
"50 0 LINE",
"150 0 LINE",
"300 529 LINE",
"407 166 LINE",
"639 529 LINE",
"603 0 LINE"
);
}
);
};
layerId = UUID0;
paths = (
{
closed = 1;
nodes = (
"703 0 LINE",
"741 700 LINE",
"655 700 LINE",
"439 353 LINE",
"345 700 LINE",
"259 700 LINE",
"50 0 LINE",
"150 0 LINE",
"298 516 LINE",
"407 166 LINE",
"637 516 LINE",
"603 0 LINE"
);
}
);
width = 740;
},
{
background = {
paths = (
{
closed = 1;
nodes = (
"763 0 LINE",
"792 700 LINE",
"688 700 LINE",
"470 381 LINE",
"365 700 LINE",
"260 700 LINE",
"43 0 LINE",
"176 0 LINE",
"315 468 LINE",
"429 147 LINE",
"656 469 LINE",
"630 0 LINE"
);
}
);
};
layerId = "D879A026-05F7-4E99-AC55-D533E46CE7AB";
paths = (
{
closed = 1;
nodes = (
"763 0 LINE",
"792 700 LINE",
"682 700 LINE",
"470 381 LINE",
"371 700 LINE",
"260 700 LINE",
"43 0 LINE",
"176 0 LINE",
"314 465 LINE",
"429 147 LINE",
"658 465 LINE",
"630 0 LINE"
);
}
);
width = 809;
}
);
unicode = 004D;
},
{
glyphname = M.sc;
lastChange = "2016-08-23 13:01:52 +0000";
layers = (
{
background = {
paths = (
{
closed = 1;
nodes = (
"637 0 LINE",
"661 560 LINE",
"585 560 LINE",
"405 297 LINE",
"316 560 LINE",
"239 560 LINE",
"66 0 LINE",
"163 0 LINE",
"279 392 LINE",
"374 123 LINE",
"562 392 LINE",
"540 0 LINE"
);
}
);
};
layerId = UUID0;
paths = (
{
closed = 1;
nodes = (
"637 0 LINE",
"661 560 LINE",
"585 560 LINE",
"405 297 LINE",
"316 560 LINE",
"239 560 LINE",
"66 0 LINE",
"163 0 LINE",
"279 392 LINE",
"374 123 LINE",
"562 392 LINE",
"540 0 LINE"
);
}
);
width = 699;
},
{
background = {
paths = (
{
closed = 1;
nodes = (
"708 0 LINE",
"726 581 LINE",
"627 581 LINE",
"444 329 LINE",
"348 581 LINE",
"249 581 LINE",
"63 0 LINE",
"191 0 LINE",
"302 361 LINE",
"405 113 LINE",
"596 362 LINE",
"581 0 LINE"
);
}
);
};
layerId = "D879A026-05F7-4E99-AC55-D533E46CE7AB";
paths = (
{
closed = 1;
nodes = (
"708 0 LINE",
"726 581 LINE",
"627 581 LINE",
"444 329 LINE",
"348 581 LINE",
"249 581 LINE",
"63 0 LINE",
"191 0 LINE",
"302 361 LINE",
"405 113 LINE",
"596 362 LINE",
"581 0 LINE"
);
}
);
width = 780;
}
);
},
{
glyphname = N;
lastChange = "2016-08-23 13:01:52 +0000";
layers = (
{
background = {
paths = (
{
closed = 1;
nodes = (
"561 0 LINE",
"685 700 LINE",
"589 700 LINE",
"497 176 LINE",
"292 700 LINE",
"192 700 LINE",
"69 0 LINE",
"164 0 LINE",
"262 553 LINE",
"481 0 LINE"
);
}
);
};
layerId = UUID0;
paths = (
{
closed = 1;
nodes = (
"561 0 LINE",
"685 700 LINE",
"589 700 LINE",
"497 176 LINE",
"292 700 LINE",
"192 700 LINE",
"69 0 LINE",
"164 0 LINE",
"262 553 LINE",
"481 0 LINE"
);
}
);
width = 631;
},
{
background = {
paths = (
{
closed = 1;
nodes = (
"606 0 LINE",
"730 700 LINE",
"602 700 LINE",
"522 248 LINE",
"322 700 LINE",
"197 700 LINE",
"74 0 LINE",
"202 0 LINE",
"287 480 LINE",
"502 0 LINE"
);
}
);
};
layerId = "D879A026-05F7-4E99-AC55-D533E46CE7AB";
paths = (
{
closed = 1;
nodes = (
"606 0 LINE",
"730 700 LINE",
"602 700 LINE",
"522 248 LINE",
"322 700 LINE",
"197 700 LINE",
"74 0 LINE",
"202 0 LINE",
"287 480 LINE",
"502 0 LINE"
);
}
);
width = 680;
}
);
leftKerningGroup = I;
rightKerningGroup = I;
unicode = 004E;
},
{
glyphname = N.sc;
lastChange = "2016-08-23 13:01:52 +0000";
layers = (
{
background = {
paths = (
{
closed = 1;
nodes = (
"512 0 LINE",
"611 560 LINE",
"518 560 LINE",
"451 178 LINE",
"277 560 LINE",
"185 560 LINE",
"86 0 LINE",
"178 0 LINE",
"250 405 LINE",
"435 0 LINE"
);
}
);
};
layerId = UUID0;
paths = (
{
closed = 1;
nodes = (
"512 0 LINE",
"611 560 LINE",
"518 560 LINE",
"451 178 LINE",
"277 560 LINE",
"185 560 LINE",
"86 0 LINE",
"178 0 LINE",
"250 405 LINE",
"435 0 LINE"
);
}
);
width = 599;
},
{
background = {
paths = (
{
closed = 1;
nodes = (
"569 0 LINE",
"672 581 LINE",
"549 581 LINE",
"489 238 LINE",
"314 581 LINE",
"197 581 LINE",
"95 0 LINE",
"218 0 LINE",
"282 366 LINE",
"469 0 LINE"
);
}
);
};
layerId = "D879A026-05F7-4E99-AC55-D533E46CE7AB";
paths = (
{
closed = 1;
nodes = (
"569 0 LINE",
"672 581 LINE",
"549 581 LINE",
"489 238 LINE",
"314 581 LINE",
"197 581 LINE",
"95 0 LINE",
"218 0 LINE",
"282 366 LINE",
"469 0 LINE"
);
}
);
width = 664;
}
);
},
{
glyphname = O;
lastChange = "2016-08-23 13:01:52 +0000";
layers = (
{
background = {
paths = (
{
closed = 1;
nodes = (
"547 -14 OFFCURVE",
"722 165 OFFCURVE",
"722 423 CURVE SMOOTH",
"722 600 OFFCURVE",
"623 714 OFFCURVE",
"468 714 CURVE SMOOTH",
"259 714 OFFCURVE",
"85 535 OFFCURVE",
"85 277 CURVE SMOOTH",
"85 100 OFFCURVE",
"184 -14 OFFCURVE",
"339 -14 CURVE SMOOTH"
);
},
{
closed = 1;
nodes = (
"565 628 OFFCURVE",
"618 535 OFFCURVE",
"618 415 CURVE SMOOTH",
"618 238 OFFCURVE",
"520 72 OFFCURVE",
"355 72 CURVE SMOOTH",
"242 72 OFFCURVE",
"190 165 OFFCURVE",
"190 285 CURVE SMOOTH",
"190 462 OFFCURVE",
"287 628 OFFCURVE",
"453 628 CURVE SMOOTH"
);
}
);
};
layerId = UUID0;
paths = (
{
closed = 1;
nodes = (
"342 -14 LINE",
"547 -14 OFFCURVE",
"722 170 OFFCURVE",
"722 418 CURVE SMOOTH",
"722 605 OFFCURVE",
"623 714 OFFCURVE",
"465 714 CURVE SMOOTH",
"259 714 OFFCURVE",
"85 530 OFFCURVE",
"85 282 CURVE SMOOTH",
"85 95 OFFCURVE",
"184 -14 OFFCURVE",
"342 -14 CURVE SMOOTH"
);
},
{
closed = 1;
nodes = (
"449 628 LINE",
"568 628 OFFCURVE",
"618 535 OFFCURVE",
"618 412 CURVE SMOOTH",
"618 238 OFFCURVE",
"517 72 OFFCURVE",
"358 72 CURVE SMOOTH",
"239 72 OFFCURVE",
"190 166 OFFCURVE",
"190 288 CURVE SMOOTH",
"190 462 OFFCURVE",
"290 628 OFFCURVE",
"449 628 CURVE SMOOTH"
);
}
);
width = 684;
},
{
background = {
paths = (
{
closed = 1;
nodes = (
"583 -14 OFFCURVE",
"766 164 OFFCURVE",
"766 418 CURVE SMOOTH",
"766 597 OFFCURVE",
"658 714 OFFCURVE",
"491 714 CURVE SMOOTH",
"271 714 OFFCURVE",
"88 536 OFFCURVE",
"88 282 CURVE SMOOTH",
"88 103 OFFCURVE",
"196 -14 OFFCURVE",
"363 -14 CURVE SMOOTH"
);
},
{
closed = 1;
nodes = (
"574 591 OFFCURVE",
"624 514 OFFCURVE",
"624 406 CURVE SMOOTH",
"624 246 OFFCURVE",
"537 109 OFFCURVE",
"384 109 CURVE SMOOTH",
"279 109 OFFCURVE",
"229 186 OFFCURVE",
"229 294 CURVE SMOOTH",
"229 454 OFFCURVE",
"316 591 OFFCURVE",
"469 591 CURVE SMOOTH"
);
}
);
};
layerId = "D879A026-05F7-4E99-AC55-D533E46CE7AB";
paths = (
{
closed = 1;
nodes = (
"367 -14 LINE",
"583 -14 OFFCURVE",
"766 168 OFFCURVE",
"766 413 CURVE SMOOTH",
"766 601 OFFCURVE",
"658 714 OFFCURVE",
"487 714 CURVE SMOOTH",
"271 714 OFFCURVE",
"88 532 OFFCURVE",
"88 287 CURVE SMOOTH",
"88 99 OFFCURVE",
"196 -14 OFFCURVE",
"367 -14 CURVE SMOOTH"
);
},
{
closed = 1;
nodes = (
"466 591 LINE",
"574 591 OFFCURVE",
"624 518 OFFCURVE",
"624 402 CURVE SMOOTH",
"624 249 OFFCURVE",
"536 109 OFFCURVE",
"387 109 CURVE SMOOTH",
"279 109 OFFCURVE",
"229 182 OFFCURVE",
"229 298 CURVE SMOOTH",
"229 451 OFFCURVE",
"317 591 OFFCURVE",
"466 591 CURVE SMOOTH"
);
}
);
width = 730;
}
);
leftKerningGroup = O;
rightKerningGroup = O;
unicode = 004F;
},
{
glyphname = O.sc;
lastChange = "2016-08-23 13:01:52 +0000";
layers = (
{
background = {
paths = (
{
closed = 1;
nodes = (
"497 -11 OFFCURVE",
"644 130 OFFCURVE",
"644 334 CURVE SMOOTH",
"644 478 OFFCURVE",
"557 571 OFFCURVE",
"422 571 CURVE SMOOTH",
"245 571 OFFCURVE",
"98 430 OFFCURVE",
"98 226 CURVE SMOOTH",
"98 82 OFFCURVE",
"185 -11 OFFCURVE",
"320 -11 CURVE SMOOTH"
);
},
{
closed = 1;
nodes = (
"498 483 OFFCURVE",
"541 416 OFFCURVE",
"541 325 CURVE SMOOTH",
"541 193 OFFCURVE",
"467 77 OFFCURVE",
"335 77 CURVE SMOOTH",
"243 77 OFFCURVE",
"200 144 OFFCURVE",
"200 235 CURVE SMOOTH",
"200 367 OFFCURVE",
"275 483 OFFCURVE",
"407 483 CURVE SMOOTH"
);
}
);
};
layerId = UUID0;
paths = (
{
closed = 1;
nodes = (
"320 -11 LINE",
"497 -11 OFFCURVE",
"644 130 OFFCURVE",
"644 334 CURVE SMOOTH",
"644 478 OFFCURVE",
"557 571 OFFCURVE",
"422 571 CURVE SMOOTH",
"245 571 OFFCURVE",
"98 430 OFFCURVE",
"98 226 CURVE SMOOTH",
"98 82 OFFCURVE",
"185 -11 OFFCURVE",
"320 -11 CURVE SMOOTH"
);
},
{
closed = 1;
nodes = (
"407 483 LINE",
"498 483 OFFCURVE",
"541 416 OFFCURVE",
"541 325 CURVE SMOOTH",
"541 193 OFFCURVE",
"467 77 OFFCURVE",
"335 77 CURVE SMOOTH",
"243 77 OFFCURVE",
"200 144 OFFCURVE",
"200 235 CURVE SMOOTH",
"200 367 OFFCURVE",
"275 483 OFFCURVE",
"407 483 CURVE SMOOTH"
);
}
);
width = 643;
},
{
background = {
paths = (
{
closed = 1;
nodes = (
"543 -12 OFFCURVE",
"702 136 OFFCURVE",
"702 344 CURVE SMOOTH",
"702 493 OFFCURVE",
"606 593 OFFCURVE",
"457 593 CURVE SMOOTH",
"264 593 OFFCURVE",
"104 446 OFFCURVE",
"104 238 CURVE SMOOTH",
"104 88 OFFCURVE",
"201 -12 OFFCURVE",
"350 -12 CURVE SMOOTH"
);
},
{
closed = 1;
nodes = (
"524 474 OFFCURVE",
"566 417 OFFCURVE",
"566 332 CURVE SMOOTH",
"566 207 OFFCURVE",
"498 107 OFFCURVE",
"371 107 CURVE SMOOTH",
"283 107 OFFCURVE",
"240 164 OFFCURVE",
"240 250 CURVE SMOOTH",
"240 375 OFFCURVE",
"310 474 OFFCURVE",
"436 474 CURVE SMOOTH"
);
}
);
};
layerId = "D879A026-05F7-4E99-AC55-D533E46CE7AB";
paths = (
{
closed = 1;
nodes = (
"350 -12 LINE",
"543 -12 OFFCURVE",
"702 136 OFFCURVE",
"702 344 CURVE SMOOTH",
"702 493 OFFCURVE",
"606 593 OFFCURVE",
"457 593 CURVE SMOOTH",
"264 593 OFFCURVE",
"104 446 OFFCURVE",
"104 238 CURVE SMOOTH",
"104 88 OFFCURVE",
"201 -12 OFFCURVE",
"350 -12 CURVE SMOOTH"
);
},
{
closed = 1;
nodes = (
"436 474 LINE",
"524 474 OFFCURVE",
"566 417 OFFCURVE",
"566 332 CURVE SMOOTH",
"566 207 OFFCURVE",
"498 107 OFFCURVE",
"371 107 CURVE SMOOTH",
"283 107 OFFCURVE",
"240 164 OFFCURVE",
"240 250 CURVE SMOOTH",
"240 375 OFFCURVE",
"310 474 OFFCURVE",
"436 474 CURVE SMOOTH"
);
}
);
width = 704;
}
);
},
{
glyphname = OE;
lastChange = "2016-08-23 13:01:52 +0000";
layers = (
{
background = {
paths = (
{
closed = 1;
nodes = (
"926 0 LINE",
"941 86 LINE",
"658 86 LINE",
"700 323 LINE",
"911 323 LINE",
"926 409 LINE",
"715 409 LINE",
"751 614 LINE",
"1026 614 LINE",
"1041 699 LINE",
"673 699 LINE",
"658 617 LINE",
"597 689 OFFCURVE",
"537 714 OFFCURVE",
"464 714 CURVE SMOOTH",
"258 714 OFFCURVE",
"85 535 OFFCURVE",
"85 277 CURVE SMOOTH",
"85 100 OFFCURVE",
"183 -14 OFFCURVE",
"335 -14 CURVE SMOOTH",
"408 -14 OFFCURVE",
"477 11 OFFCURVE",
"564 83 CURVE",
"550 0 LINE"
);
},
{
closed = 1;
nodes = (
"559 628 OFFCURVE",
"611 538 OFFCURVE",
"611 417 CURVE SMOOTH",
"611 238 OFFCURVE",
"517 72 OFFCURVE",
"350 72 CURVE SMOOTH",
"238 72 OFFCURVE",
"187 162 OFFCURVE",
"187 283 CURVE SMOOTH",
"187 462 OFFCURVE",
"281 628 OFFCURVE",
"448 628 CURVE SMOOTH"
);
}
);
};
layerId = UUID0;
paths = (
{
closed = 1;
nodes = (
"926 0 LINE",
"941 86 LINE",
"658 86 LINE",
"700 323 LINE",
"911 323 LINE",
"926 409 LINE",
"715 409 LINE",
"751 614 LINE",
"1026 614 LINE",
"1041 699 LINE",
"673 699 LINE",
"658 617 LINE",
"597 689 OFFCURVE",
"537 714 OFFCURVE",
"464 714 CURVE SMOOTH",
"258 714 OFFCURVE",
"85 535 OFFCURVE",
"85 277 CURVE SMOOTH",
"85 100 OFFCURVE",
"183 -14 OFFCURVE",
"335 -14 CURVE SMOOTH",
"408 -14 OFFCURVE",
"477 11 OFFCURVE",
"564 83 CURVE",
"550 0 LINE"
);
},
{
closed = 1;
nodes = (
"448 628 LINE",
"559 628 OFFCURVE",
"611 538 OFFCURVE",
"611 417 CURVE SMOOTH",
"611 238 OFFCURVE",
"517 72 OFFCURVE",
"350 72 CURVE SMOOTH",
"238 72 OFFCURVE",
"187 162 OFFCURVE",
"187 283 CURVE SMOOTH",
"187 462 OFFCURVE",
"281 628 OFFCURVE",
"448 628 CURVE SMOOTH"
);
}
);
width = 956;
},
{
background = {
paths = (
{
closed = 1;
nodes = (
"988 0 LINE",
"1010 124 LINE",
"719 124 LINE",
"751 303 LINE",
"968 303 LINE",
"990 427 LINE",
"773 427 LINE",
"799 576 LINE",
"1081 576 LINE",
"1103 700 LINE",
"689 700 LINE",
"679 645 LINE",
"637 689 OFFCURVE",
"571 714 OFFCURVE",
"492 714 CURVE SMOOTH",
"271 714 OFFCURVE",
"88 536 OFFCURVE",
"88 282 CURVE SMOOTH",
"88 103 OFFCURVE",
"197 -14 OFFCURVE",
"364 -14 CURVE SMOOTH",
"443 -14 OFFCURVE",
"517 11 OFFCURVE",
"575 55 CURVE",
"565 0 LINE"
);
},
{
closed = 1;
nodes = (
"576 591 OFFCURVE",
"626 514 OFFCURVE",
"626 406 CURVE SMOOTH",
"626 245 OFFCURVE",
"538 109 OFFCURVE",
"385 109 CURVE SMOOTH",
"280 109 OFFCURVE",
"230 186 OFFCURVE",
"230 294 CURVE SMOOTH",
"230 455 OFFCURVE",
"317 591 OFFCURVE",
"470 591 CURVE SMOOTH"
);
}
);
};
layerId = "D879A026-05F7-4E99-AC55-D533E46CE7AB";
paths = (
{
closed = 1;
nodes = (
"988 0 LINE",
"1010 124 LINE",
"719 124 LINE",
"751 303 LINE",
"968 303 LINE",
"990 427 LINE",
"773 427 LINE",
"799 576 LINE",
"1081 576 LINE",
"1103 700 LINE",
"689 700 LINE",
"679 645 LINE",
"637 689 OFFCURVE",
"571 714 OFFCURVE",
"492 714 CURVE SMOOTH",
"271 714 OFFCURVE",
"88 536 OFFCURVE",
"88 282 CURVE SMOOTH",
"88 103 OFFCURVE",
"197 -14 OFFCURVE",
"364 -14 CURVE SMOOTH",
"443 -14 OFFCURVE",
"517 11 OFFCURVE",
"575 55 CURVE",
"565 0 LINE"
);
},
{
closed = 1;
nodes = (
"470 591 LINE",
"576 591 OFFCURVE",
"626 514 OFFCURVE",
"626 406 CURVE SMOOTH",
"626 245 OFFCURVE",
"538 109 OFFCURVE",
"385 109 CURVE SMOOTH",
"280 109 OFFCURVE",
"230 186 OFFCURVE",
"230 294 CURVE SMOOTH",
"230 455 OFFCURVE",
"317 591 OFFCURVE",
"470 591 CURVE SMOOTH"
);
}
);
width = 1021;
}
);
leftKerningGroup = O;
rightKerningGroup = E;
unicode = 0152;
},
{
glyphname = OE.sc;
lastChange = "2016-08-23 13:01:52 +0000";
layers = (
{
background = {
paths = (
{
closed = 1;
nodes = (
"824 0 LINE",
"839 88 LINE",
"601 88 LINE",
"629 248 LINE",
"807 248 LINE",
"823 336 LINE",
"644 336 LINE",
"668 472 LINE",
"900 472 LINE",
"915 560 LINE",
"590 560 LINE",
"581 508 LINE",
"536 551 OFFCURVE",
"484 571 OFFCURVE",
"421 571 CURVE SMOOTH",
"245 571 OFFCURVE",
"98 430 OFFCURVE",
"98 226 CURVE SMOOTH",
"98 82 OFFCURVE",
"185 -11 OFFCURVE",
"318 -11 CURVE SMOOTH",
"381 -11 OFFCURVE",
"441 9 OFFCURVE",
"500 52 CURVE",
"491 0 LINE"
);
},
{
closed = 1;
nodes = (
"496 483 OFFCURVE",
"540 417 OFFCURVE",
"540 326 CURVE SMOOTH",
"540 192 OFFCURVE",
"466 77 OFFCURVE",
"334 77 CURVE SMOOTH",
"242 77 OFFCURVE",
"199 143 OFFCURVE",
"199 234 CURVE SMOOTH",
"199 368 OFFCURVE",
"273 483 OFFCURVE",
"405 483 CURVE SMOOTH"
);
}
);
};
layerId = UUID0;
paths = (
{
closed = 1;
nodes = (
"824 0 LINE",
"839 88 LINE",
"601 88 LINE",
"629 248 LINE",
"807 248 LINE",
"823 336 LINE",
"644 336 LINE",
"668 472 LINE",
"900 472 LINE",
"915 560 LINE",
"590 560 LINE",
"581 508 LINE",
"536 551 OFFCURVE",
"484 571 OFFCURVE",
"421 571 CURVE SMOOTH",
"245 571 OFFCURVE",
"98 430 OFFCURVE",
"98 226 CURVE SMOOTH",
"98 82 OFFCURVE",
"185 -11 OFFCURVE",
"318 -11 CURVE SMOOTH",
"381 -11 OFFCURVE",
"441 9 OFFCURVE",
"500 52 CURVE",
"491 0 LINE"
);
},
{
closed = 1;
nodes = (
"405 483 LINE",
"496 483 OFFCURVE",
"540 417 OFFCURVE",
"540 326 CURVE SMOOTH",
"540 192 OFFCURVE",
"466 77 OFFCURVE",
"334 77 CURVE SMOOTH",
"242 77 OFFCURVE",
"199 143 OFFCURVE",
"199 234 CURVE SMOOTH",
"199 368 OFFCURVE",
"273 483 OFFCURVE",
"405 483 CURVE SMOOTH"
);
}
);
width = 877;
},
{
background = {
paths = (
{
closed = 1;
nodes = (
"903 0 LINE",
"924 120 LINE",
"671 120 LINE",
"693 243 LINE",
"882 243 LINE",
"903 362 LINE",
"714 362 LINE",
"731 461 LINE",
"977 461 LINE",
"998 581 LINE",
"624 581 LINE",
"618 548 LINE",
"588 572 OFFCURVE",
"529 593 OFFCURVE",
"459 593 CURVE SMOOTH",
"265 593 OFFCURVE",
"104 446 OFFCURVE",
"104 239 CURVE SMOOTH",
"104 88 OFFCURVE",
"202 -12 OFFCURVE",
"353 -12 CURVE SMOOTH",
"422 -12 OFFCURVE",
"489 9 OFFCURVE",
"528 33 CURVE",
"522 0 LINE"
);
},
{
closed = 1;
nodes = (
"527 474 OFFCURVE",
"571 415 OFFCURVE",
"571 330 CURVE SMOOTH",
"571 206 OFFCURVE",
"499 107 OFFCURVE",
"374 107 CURVE SMOOTH",
"285 107 OFFCURVE",
"241 165 OFFCURVE",
"241 251 CURVE SMOOTH",
"241 375 OFFCURVE",
"313 474 OFFCURVE",
"438 474 CURVE SMOOTH"
);
}
);
};
layerId = "D879A026-05F7-4E99-AC55-D533E46CE7AB";
paths = (
{
closed = 1;
nodes = (
"903 0 LINE",
"924 120 LINE",
"671 120 LINE",
"693 243 LINE",
"882 243 LINE",
"903 362 LINE",
"714 362 LINE",
"731 461 LINE",
"977 461 LINE",
"998 581 LINE",
"624 581 LINE",
"618 548 LINE",
"588 572 OFFCURVE",
"529 593 OFFCURVE",
"459 593 CURVE SMOOTH",
"265 593 OFFCURVE",
"104 446 OFFCURVE",
"104 239 CURVE SMOOTH",
"104 88 OFFCURVE",
"202 -12 OFFCURVE",
"353 -12 CURVE SMOOTH",
"422 -12 OFFCURVE",
"489 9 OFFCURVE",
"528 33 CURVE",
"522 0 LINE"
);
},
{
closed = 1;
nodes = (
"438 474 LINE",
"527 474 OFFCURVE",
"571 415 OFFCURVE",
"571 330 CURVE SMOOTH",
"571 206 OFFCURVE",
"499 107 OFFCURVE",
"374 107 CURVE SMOOTH",
"285 107 OFFCURVE",
"241 165 OFFCURVE",
"241 251 CURVE SMOOTH",
"241 375 OFFCURVE",
"313 474 OFFCURVE",
"438 474 CURVE SMOOTH"
);
}
);
width = 961;
}
);
},
{
glyphname = Oslash;
lastChange = "2016-08-23 13:01:52 +0000";
layers = (
{
background = {
paths = (
{
closed = 1;
nodes = (
"548 -12 OFFCURVE",
"722 165 OFFCURVE",
"722 420 CURVE SMOOTH",
"722 499 OFFCURVE",
"702 574 OFFCURVE",
"666 627 CURVE",
"739 716 LINE",
"644 716 LINE",
"610 672 LINE",
"565 702 OFFCURVE",
"519 714 OFFCURVE",
"467 714 CURVE SMOOTH",
"259 714 OFFCURVE",
"85 535 OFFCURVE",
"85 279 CURVE SMOOTH",
"85 203 OFFCURVE",
"103 129 OFFCURVE",
"137 75 CURVE",
"50 -30 LINE",
"146 -30 LINE",
"192 31 LINE",
"238 0 OFFCURVE",
"286 -12 OFFCURVE",
"339 -12 CURVE SMOOTH"
);
},
{
closed = 1;
nodes = (
"596 548 LINE",
"610 517 OFFCURVE",
"616 463 OFFCURVE",
"616 424 CURVE SMOOTH",
"616 240 OFFCURVE",
"521 76 OFFCURVE",
"355 76 CURVE SMOOTH",
"322 76 OFFCURVE",
"293 83 OFFCURVE",
"259 105 CURVE"
);
},
{
closed = 1;
nodes = (
"484 625 OFFCURVE",
"510 618 OFFCURVE",
"544 597 CURVE",
"208 156 LINE",
"197 200 OFFCURVE",
"192 249 OFFCURVE",
"192 287 CURVE SMOOTH",
"192 461 OFFCURVE",
"286 625 OFFCURVE",
"451 625 CURVE SMOOTH"
);
}
);
};
layerId = UUID0;
paths = (
{
closed = 1;
nodes = (
"339 -12 LINE",
"548 -12 OFFCURVE",
"722 165 OFFCURVE",
"722 420 CURVE SMOOTH",
"722 499 OFFCURVE",
"702 574 OFFCURVE",
"666 627 CURVE",
"739 716 LINE",
"644 716 LINE",
"610 672 LINE",
"565 702 OFFCURVE",
"519 714 OFFCURVE",
"467 714 CURVE SMOOTH",
"259 714 OFFCURVE",
"85 535 OFFCURVE",
"85 279 CURVE SMOOTH",
"85 203 OFFCURVE",
"103 129 OFFCURVE",
"137 75 CURVE",
"50 -30 LINE",
"146 -30 LINE",
"192 31 LINE",
"238 0 OFFCURVE",
"286 -12 OFFCURVE",
"339 -12 CURVE SMOOTH"
);
},
{
closed = 1;
nodes = (
"596 548 LINE",
"610 517 OFFCURVE",
"616 463 OFFCURVE",
"616 424 CURVE SMOOTH",
"616 240 OFFCURVE",
"521 76 OFFCURVE",
"355 76 CURVE SMOOTH",
"322 76 OFFCURVE",
"293 83 OFFCURVE",
"259 105 CURVE"
);
},
{
closed = 1;
nodes = (
"451 625 LINE",
"484 625 OFFCURVE",
"510 618 OFFCURVE",
"544 597 CURVE",
"208 156 LINE",
"197 200 OFFCURVE",
"192 249 OFFCURVE",
"192 287 CURVE SMOOTH",
"192 461 OFFCURVE",
"286 625 OFFCURVE",
"451 625 CURVE SMOOTH"
);
}
);
width = 683;
},
{
background = {
paths = (
{
closed = 1;
nodes = (
"583 -14 OFFCURVE",
"766 164 OFFCURVE",
"766 418 CURVE SMOOTH",
"766 495 OFFCURVE",
"746 568 OFFCURVE",
"712 615 CURVE",
"797 716 LINE",
"662 716 LINE",
"632 680 LINE",
"594 702 OFFCURVE",
"546 714 OFFCURVE",
"491 714 CURVE SMOOTH",
"271 714 OFFCURVE",
"88 536 OFFCURVE",
"88 281 CURVE SMOOTH",
"88 205 OFFCURVE",
"106 134 OFFCURVE",
"139 87 CURVE",
"39 -31 LINE",
"174 -31 LINE",
"217 22 LINE",
"256 -1 OFFCURVE",
"306 -14 OFFCURVE",
"363 -14 CURVE SMOOTH"
);
},
{
closed = 1;
nodes = (
"613 502 LINE",
"621 478 OFFCURVE",
"625 441 OFFCURVE",
"625 408 CURVE SMOOTH",
"625 245 OFFCURVE",
"538 109 OFFCURVE",
"384 109 CURVE SMOOTH",
"352 109 OFFCURVE",
"325 115 OFFCURVE",
"307 126 CURVE"
);
},
{
closed = 1;
nodes = (
"499 591 OFFCURVE",
"525 585 OFFCURVE",
"542 575 CURVE",
"238 202 LINE",
"232 224 OFFCURVE",
"228 260 OFFCURVE",
"228 291 CURVE SMOOTH",
"228 455 OFFCURVE",
"316 591 OFFCURVE",
"470 591 CURVE SMOOTH"
);
}
);
};
layerId = "D879A026-05F7-4E99-AC55-D533E46CE7AB";
paths = (
{
closed = 1;
nodes = (
"363 -14 LINE",
"583 -14 OFFCURVE",
"766 164 OFFCURVE",
"766 418 CURVE SMOOTH",
"766 495 OFFCURVE",
"746 568 OFFCURVE",
"712 615 CURVE",
"797 716 LINE",
"662 716 LINE",
"632 680 LINE",
"594 702 OFFCURVE",
"546 714 OFFCURVE",
"491 714 CURVE SMOOTH",
"271 714 OFFCURVE",
"88 536 OFFCURVE",
"88 281 CURVE SMOOTH",
"88 205 OFFCURVE",
"106 134 OFFCURVE",
"139 87 CURVE",
"39 -31 LINE",
"174 -31 LINE",
"217 22 LINE",
"256 -1 OFFCURVE",
"306 -14 OFFCURVE",
"363 -14 CURVE SMOOTH"
);
},
{
closed = 1;
nodes = (
"613 502 LINE",
"621 478 OFFCURVE",
"625 441 OFFCURVE",
"625 408 CURVE SMOOTH",
"625 245 OFFCURVE",
"538 109 OFFCURVE",
"384 109 CURVE SMOOTH",
"352 109 OFFCURVE",
"325 115 OFFCURVE",
"307 126 CURVE"
);
},
{
closed = 1;
nodes = (
"470 591 LINE",
"499 591 OFFCURVE",
"525 585 OFFCURVE",
"542 575 CURVE",
"238 202 LINE",
"232 224 OFFCURVE",
"228 260 OFFCURVE",
"228 291 CURVE SMOOTH",
"228 455 OFFCURVE",
"316 591 OFFCURVE",
"470 591 CURVE SMOOTH"
);
}
);
width = 730;
}
);
leftKerningGroup = O;
rightKerningGroup = O;
unicode = 00D8;
},
{
glyphname = P;
lastChange = "2016-08-23 13:01:52 +0000";
layers = (
{
background = {
paths = (
{
closed = 1;
nodes = (
"349 245 LINE SMOOTH",
"448 245 OFFCURVE",
"600 314 OFFCURVE",
"600 538 CURVE SMOOTH",
"600 676 OFFCURVE",
"514 700 OFFCURVE",
"397 700 CURVE SMOOTH",
"202 700 LINE",
"79 0 LINE",
"177 0 LINE",
"220 245 LINE"
);
},
{
closed = 1;
nodes = (
"381 615 LINE SMOOTH",
"467 615 OFFCURVE",
"500 588 OFFCURVE",
"500 519 CURVE SMOOTH",
"500 416 OFFCURVE",
"463 330 OFFCURVE",
"348 330 CURVE SMOOTH",
"235 330 LINE",
"286 615 LINE"
);
}
);
};
layerId = UUID0;
paths = (
{
closed = 1;
nodes = (
"349 245 LINE SMOOTH",
"448 245 OFFCURVE",
"600 320 OFFCURVE",
"600 527 CURVE SMOOTH",
"600 676 OFFCURVE",
"522 700 OFFCURVE",
"397 700 CURVE SMOOTH",
"202 700 LINE",
"79 0 LINE",
"177 0 LINE",
"220 245 LINE"
);
},
{
closed = 1;
nodes = (
"381 615 LINE SMOOTH",
"475 615 OFFCURVE",
"500 585 OFFCURVE",
"500 511 CURVE SMOOTH",
"500 420 OFFCURVE",
"463 330 OFFCURVE",
"348 330 CURVE SMOOTH",
"235 330 LINE",
"286 615 LINE"
);
}
);
width = 527;
},
{
background = {
paths = (
{
closed = 1;
nodes = (
"355 230 LINE SMOOTH",
"464 230 OFFCURVE",
"645 288 OFFCURVE",
"645 534 CURVE SMOOTH",
"645 676 OFFCURVE",
"551 700 OFFCURVE",
"380 700 CURVE SMOOTH",
"194 700 LINE",
"71 0 LINE",
"198 0 LINE",
"239 230 LINE"
);
},
{
closed = 1;
nodes = (
"403 593 LINE SMOOTH",
"485 593 OFFCURVE",
"512 566 OFFCURVE",
"512 510 CURVE SMOOTH",
"512 403 OFFCURVE",
"481 350 OFFCURVE",
"360 350 CURVE SMOOTH",
"260 350 LINE",
"303 593 LINE"
);
}
);
};
layerId = "D879A026-05F7-4E99-AC55-D533E46CE7AB";
paths = (
{
closed = 1;
nodes = (
"355 230 LINE SMOOTH",
"464 230 OFFCURVE",
"645 295 OFFCURVE",
"645 522 CURVE SMOOTH",
"645 676 OFFCURVE",
"562 700 OFFCURVE",
"380 700 CURVE SMOOTH",
"194 700 LINE",
"71 0 LINE",
"198 0 LINE",
"239 230 LINE"
);
},
{
closed = 1;
nodes = (
"403 593 LINE SMOOTH",
"500 593 OFFCURVE",
"512 556 OFFCURVE",
"512 499 CURVE SMOOTH",
"512 403 OFFCURVE",
"477 350 OFFCURVE",
"360 350 CURVE SMOOTH",
"260 350 LINE",
"303 593 LINE"
);
}
);
width = 575;
}
);
leftKerningGroup = I;
unicode = 0050;
},
{
glyphname = P.sc;
lastChange = "2016-08-23 13:01:52 +0000";
layers = (
{
background = {
paths = (
{
closed = 1;
nodes = (
"319 188 LINE SMOOTH",
"405 188 OFFCURVE",
"542 237 OFFCURVE",
"542 428 CURVE SMOOTH",
"542 540 OFFCURVE",
"467 560 OFFCURVE",
"347 560 CURVE SMOOTH",
"189 560 LINE",
"90 0 LINE",
"184 0 LINE",
"217 188 LINE"
);
},
{
closed = 1;
nodes = (
"350 481 LINE SMOOTH",
"420 481 OFFCURVE",
"446 459 OFFCURVE",
"446 410 CURVE SMOOTH",
"446 326 OFFCURVE",
"419 274 OFFCURVE",
"321 274 CURVE SMOOTH",
"232 274 LINE",
"269 481 LINE"
);
}
);
};
layerId = UUID0;
paths = (
{
closed = 1;
nodes = (
"319 188 LINE SMOOTH",
"405 188 OFFCURVE",
"542 237 OFFCURVE",
"542 428 CURVE SMOOTH",
"542 540 OFFCURVE",
"467 560 OFFCURVE",
"347 560 CURVE SMOOTH",
"189 560 LINE",
"90 0 LINE",
"184 0 LINE",
"217 188 LINE"
);
},
{
closed = 1;
nodes = (
"350 481 LINE SMOOTH",
"420 481 OFFCURVE",
"446 459 OFFCURVE",
"446 410 CURVE SMOOTH",
"446 326 OFFCURVE",
"419 274 OFFCURVE",
"321 274 CURVE SMOOTH",
"232 274 LINE",
"269 481 LINE"
);
}
);
width = 513;
},
{
background = {
paths = (
{
closed = 1;
nodes = (
"336 184 LINE SMOOTH",
"434 184 OFFCURVE",
"599 227 OFFCURVE",
"599 440 CURVE SMOOTH",
"599 561 OFFCURVE",
"515 581 OFFCURVE",
"348 581 CURVE SMOOTH",
"190 581 LINE",
"88 0 LINE",
"209 0 LINE",
"242 184 LINE"
);
},
{
closed = 1;
nodes = (
"383 482 LINE SMOOTH",
"452 482 OFFCURVE",
"473 460 OFFCURVE",
"473 419 CURVE SMOOTH",
"473 327 OFFCURVE",
"446 299 OFFCURVE",
"342 299 CURVE SMOOTH",
"262 299 LINE",
"294 482 LINE"
);
}
);
};
layerId = "D879A026-05F7-4E99-AC55-D533E46CE7AB";
paths = (
{
closed = 1;
nodes = (
"336 184 LINE SMOOTH",
"434 184 OFFCURVE",
"599 227 OFFCURVE",
"599 440 CURVE SMOOTH",
"599 561 OFFCURVE",
"515 581 OFFCURVE",
"348 581 CURVE SMOOTH",
"190 581 LINE",
"88 0 LINE",
"209 0 LINE",
"242 184 LINE"
);
},
{
closed = 1;
nodes = (
"383 482 LINE SMOOTH",
"452 482 OFFCURVE",
"473 460 OFFCURVE",
"473 419 CURVE SMOOTH",
"473 327 OFFCURVE",
"446 299 OFFCURVE",
"342 299 CURVE SMOOTH",
"262 299 LINE",
"294 482 LINE"
);
}
);
width = 572;
}
);
},
{
glyphname = Q;
lastChange = "2016-08-23 13:01:52 +0000";
layers = (
{
background = {
paths = (
{
closed = 1;
nodes = (
"655 62 LINE",
"609 111 LINE",
"688 219 OFFCURVE",
"722 312 OFFCURVE",
"722 423 CURVE SMOOTH",
"722 600 OFFCURVE",
"623 714 OFFCURVE",
"468 714 CURVE SMOOTH",
"259 714 OFFCURVE",
"85 535 OFFCURVE",
"85 277 CURVE SMOOTH",
"85 100 OFFCURVE",
"185 -14 OFFCURVE",
"339 -14 CURVE SMOOTH",
"409 -14 OFFCURVE",
"476 8 OFFCURVE",
"542 57 CURVE",
"592 3 LINE"
);
},
{
closed = 1;
nodes = (
"568 628 OFFCURVE",
"623 535 OFFCURVE",
"623 413 CURVE SMOOTH",
"623 294 OFFCURVE",
"593 241 OFFCURVE",
"548 172 CURVE",
"473 257 LINE",
"410 196 LINE",
"485 112 LINE",
"443 79 OFFCURVE",
"393 72 OFFCURVE",
"355 72 CURVE SMOOTH",
"241 72 OFFCURVE",
"190 163 OFFCURVE",
"190 284 CURVE SMOOTH",
"190 462 OFFCURVE",
"285 628 OFFCURVE",
"453 628 CURVE SMOOTH"
);
}
);
};
layerId = UUID0;
paths = (
{
closed = 1;
nodes = (
"655 62 LINE",
"609 111 LINE",
"688 219 OFFCURVE",
"722 313 OFFCURVE",
"722 420 CURVE SMOOTH",
"722 600 OFFCURVE",
"626 714 OFFCURVE",
"464 714 CURVE SMOOTH",
"259 714 OFFCURVE",
"85 530 OFFCURVE",
"85 283 CURVE SMOOTH",
"85 96 OFFCURVE",
"185 -14 OFFCURVE",
"340 -14 CURVE SMOOTH",
"409 -14 OFFCURVE",
"476 8 OFFCURVE",
"542 57 CURVE",
"592 3 LINE"
);
},
{
closed = 1;
nodes = (
"450 628 LINE",
"568 628 OFFCURVE",
"623 541 OFFCURVE",
"623 404 CURVE SMOOTH",
"623 291 OFFCURVE",
"586 230 OFFCURVE",
"548 172 CURVE",
"473 257 LINE",
"410 196 LINE",
"485 112 LINE",
"443 79 OFFCURVE",
"392 72 OFFCURVE",
"359 72 CURVE SMOOTH",
"239 72 OFFCURVE",
"190 162 OFFCURVE",
"190 286 CURVE SMOOTH",
"190 461 OFFCURVE",
"287 628 OFFCURVE",
"450 628 CURVE SMOOTH"
);
}
);
width = 684;
},
{
background = {
paths = (
{
closed = 1;
nodes = (
"712 79 LINE",
"662 130 LINE",
"723 210 OFFCURVE",
"766 305 OFFCURVE",
"766 418 CURVE SMOOTH",
"766 597 OFFCURVE",
"658 714 OFFCURVE",
"491 714 CURVE SMOOTH",
"271 714 OFFCURVE",
"88 536 OFFCURVE",
"88 282 CURVE SMOOTH",
"88 103 OFFCURVE",
"196 -14 OFFCURVE",
"363 -14 CURVE SMOOTH",
"436 -14 OFFCURVE",
"507 7 OFFCURVE",
"565 47 CURVE",
"622 -10 LINE"
);
},
{
closed = 1;
nodes = (
"574 591 OFFCURVE",
"623 514 OFFCURVE",
"623 407 CURVE SMOOTH",
"623 332 OFFCURVE",
"599 271 OFFCURVE",
"570 218 CURVE",
"502 292 LINE",
"411 203 LINE",
"476 132 LINE",
"450 117 OFFCURVE",
"421 109 OFFCURVE",
"384 109 CURVE SMOOTH",
"279 109 OFFCURVE",
"229 186 OFFCURVE",
"229 294 CURVE SMOOTH",
"229 455 OFFCURVE",
"316 591 OFFCURVE",
"469 591 CURVE SMOOTH"
);
}
);
};
layerId = "D879A026-05F7-4E99-AC55-D533E46CE7AB";
paths = (
{
closed = 1;
nodes = (
"712 79 LINE",
"662 130 LINE",
"723 210 OFFCURVE",
"766 305 OFFCURVE",
"766 418 CURVE SMOOTH",
"766 597 OFFCURVE",
"660 714 OFFCURVE",
"487 714 CURVE SMOOTH",
"271 714 OFFCURVE",
"88 531 OFFCURVE",
"88 287 CURVE SMOOTH",
"88 100 OFFCURVE",
"196 -14 OFFCURVE",
"364 -14 CURVE SMOOTH",
"436 -14 OFFCURVE",
"507 7 OFFCURVE",
"565 47 CURVE",
"622 -10 LINE"
);
},
{
closed = 1;
nodes = (
"466 591 LINE",
"576 591 OFFCURVE",
"623 514 OFFCURVE",
"623 408 CURVE SMOOTH",
"623 332 OFFCURVE",
"599 271 OFFCURVE",
"570 218 CURVE",
"502 292 LINE",
"411 203 LINE",
"476 132 LINE",
"450 117 OFFCURVE",
"420 109 OFFCURVE",
"385 109 CURVE SMOOTH",
"279 109 OFFCURVE",
"229 183 OFFCURVE",
"229 299 CURVE SMOOTH",
"229 453 OFFCURVE",
"318 591 OFFCURVE",
"466 591 CURVE SMOOTH"
);
}
);
width = 730;
}
);
leftKerningGroup = O;
rightKerningGroup = O;
unicode = 0051;
},
{
glyphname = Q.sc;
lastChange = "2016-08-23 13:01:52 +0000";
layers = (
{
background = {
paths = (
{
closed = 1;
nodes = (
"596 58 LINE",
"555 99 LINE",
"612 170 OFFCURVE",
"644 245 OFFCURVE",
"644 334 CURVE SMOOTH",
"644 478 OFFCURVE",
"557 571 OFFCURVE",
"422 571 CURVE SMOOTH",
"245 571 OFFCURVE",
"98 430 OFFCURVE",
"98 226 CURVE SMOOTH",
"98 82 OFFCURVE",
"185 -11 OFFCURVE",
"320 -11 CURVE SMOOTH",
"379 -11 OFFCURVE",
"437 6 OFFCURVE",
"487 40 CURVE",
"532 -4 LINE"
);
},
{
closed = 1;
nodes = (
"499 483 OFFCURVE",
"543 417 OFFCURVE",
"543 325 CURVE SMOOTH",
"543 238 OFFCURVE",
"518 198 OFFCURVE",
"492 159 CURVE",
"432 224 LINE",
"368 160 LINE",
"426 100 LINE",
"398 83 OFFCURVE",
"366 77 OFFCURVE",
"335 77 CURVE SMOOTH",
"244 77 OFFCURVE",
"200 143 OFFCURVE",
"200 234 CURVE SMOOTH",
"200 368 OFFCURVE",
"275 483 OFFCURVE",
"407 483 CURVE SMOOTH"
);
}
);
};
layerId = UUID0;
paths = (
{
closed = 1;
nodes = (
"596 58 LINE",
"555 99 LINE",
"612 170 OFFCURVE",
"644 245 OFFCURVE",
"644 334 CURVE SMOOTH",
"644 478 OFFCURVE",
"557 571 OFFCURVE",
"422 571 CURVE SMOOTH",
"245 571 OFFCURVE",
"98 430 OFFCURVE",
"98 226 CURVE SMOOTH",
"98 82 OFFCURVE",
"185 -11 OFFCURVE",
"320 -11 CURVE SMOOTH",
"379 -11 OFFCURVE",
"437 6 OFFCURVE",
"487 40 CURVE",
"532 -4 LINE"
);
},
{
closed = 1;
nodes = (
"407 483 LINE",
"499 483 OFFCURVE",
"543 417 OFFCURVE",
"543 325 CURVE SMOOTH",
"543 238 OFFCURVE",
"518 198 OFFCURVE",
"492 159 CURVE",
"432 224 LINE",
"368 160 LINE",
"426 100 LINE",
"398 83 OFFCURVE",
"366 77 OFFCURVE",
"335 77 CURVE SMOOTH",
"244 77 OFFCURVE",
"200 143 OFFCURVE",
"200 234 CURVE SMOOTH",
"200 368 OFFCURVE",
"275 483 OFFCURVE",
"407 483 CURVE SMOOTH"
);
}
);
width = 643;
},
{
background = {
paths = (
{
closed = 1;
nodes = (
"664 73 LINE",
"617 116 LINE",
"665 171 OFFCURVE",
"702 252 OFFCURVE",
"702 344 CURVE SMOOTH",
"702 493 OFFCURVE",
"606 593 OFFCURVE",
"457 593 CURVE SMOOTH",
"264 593 OFFCURVE",
"104 446 OFFCURVE",
"104 238 CURVE SMOOTH",
"104 88 OFFCURVE",
"201 -12 OFFCURVE",
"350 -12 CURVE SMOOTH",
"414 -12 OFFCURVE",
"477 5 OFFCURVE",
"524 35 CURVE",
"575 -14 LINE"
);
},
{
closed = 1;
nodes = (
"522 474 OFFCURVE",
"562 417 OFFCURVE",
"562 334 CURVE SMOOTH",
"562 269 OFFCURVE",
"538 228 OFFCURVE",
"528 205 CURVE",
"470 258 LINE",
"381 172 LINE",
"435 119 LINE",
"418 114 OFFCURVE",
"401 107 OFFCURVE",
"371 107 CURVE SMOOTH",
"283 107 OFFCURVE",
"240 164 OFFCURVE",
"240 250 CURVE SMOOTH",
"240 375 OFFCURVE",
"310 474 OFFCURVE",
"436 474 CURVE SMOOTH"
);
}
);
};
layerId = "D879A026-05F7-4E99-AC55-D533E46CE7AB";
paths = (
{
closed = 1;
nodes = (
"664 73 LINE",
"617 116 LINE",
"665 171 OFFCURVE",
"702 252 OFFCURVE",
"702 344 CURVE SMOOTH",
"702 493 OFFCURVE",
"606 593 OFFCURVE",
"457 593 CURVE SMOOTH",
"264 593 OFFCURVE",
"104 446 OFFCURVE",
"104 238 CURVE SMOOTH",
"104 88 OFFCURVE",
"201 -12 OFFCURVE",
"350 -12 CURVE SMOOTH",
"414 -12 OFFCURVE",
"477 5 OFFCURVE",
"524 35 CURVE",
"575 -14 LINE"
);
},
{
closed = 1;
nodes = (
"436 474 LINE",
"522 474 OFFCURVE",
"562 417 OFFCURVE",
"562 334 CURVE SMOOTH",
"562 269 OFFCURVE",
"538 228 OFFCURVE",
"528 205 CURVE",
"470 258 LINE",
"381 172 LINE",
"435 119 LINE",
"418 114 OFFCURVE",
"401 107 OFFCURVE",
"371 107 CURVE SMOOTH",
"283 107 OFFCURVE",
"240 164 OFFCURVE",
"240 250 CURVE SMOOTH",
"240 375 OFFCURVE",
"310 474 OFFCURVE",
"436 474 CURVE SMOOTH"
);
}
);
width = 704;
}
);
},
{
glyphname = R;
lastChange = "2016-08-23 13:01:52 +0000";
layers = (
{
background = {
paths = (
{
closed = 1;
nodes = (
"540 0 LINE",
"447 298 LINE",
"535 343 OFFCURVE",
"600 429 OFFCURVE",
"600 542 CURVE SMOOTH",
"600 661 OFFCURVE",
"524 700 OFFCURVE",
"413 700 CURVE SMOOTH",
"200 700 LINE",
"77 0 LINE",
"175 0 LINE",
"223 273 LINE",
"351 273 LINE",
"439 0 LINE"
);
},
{
closed = 1;
nodes = (
"391 623 LINE SMOOTH",
"466 623 OFFCURVE",
"499 586 OFFCURVE",
"499 525 CURVE SMOOTH",
"499 409 OFFCURVE",
"438 365 OFFCURVE",
"359 365 CURVE SMOOTH",
"239 365 LINE",
"285 623 LINE"
);
}
);
};
layerId = UUID0;
paths = (
{
closed = 1;
nodes = (
"540 0 LINE",
"447 298 LINE",
"532 341 OFFCURVE",
"600 427 OFFCURVE",
"600 541 CURVE SMOOTH",
"600 661 OFFCURVE",
"525 700 OFFCURVE",
"413 700 CURVE SMOOTH",
"200 700 LINE",
"77 0 LINE",
"175 0 LINE",
"223 273 LINE",
"351 273 LINE",
"439 0 LINE"
);
},
{
closed = 1;
nodes = (
"391 623 LINE SMOOTH",
"470 623 OFFCURVE",
"499 586 OFFCURVE",
"499 516 CURVE SMOOTH",
"499 414 OFFCURVE",
"438 365 OFFCURVE",
"359 365 CURVE SMOOTH",
"239 365 LINE",
"285 623 LINE"
);
}
);
width = 566;
},
{
background = {
paths = (
{
closed = 1;
nodes = (
"592 0 LINE",
"492 294 LINE",
"575 343 OFFCURVE",
"646 408 OFFCURVE",
"646 538 CURVE SMOOTH",
"646 658 OFFCURVE",
"559 700 OFFCURVE",
"446 700 CURVE SMOOTH",
"195 700 LINE",
"72 0 LINE",
"199 0 LINE",
"245 260 LINE",
"367 260 LINE",
"459 0 LINE"
);
},
{
closed = 1;
nodes = (
"395 593 LINE SMOOTH",
"483 593 OFFCURVE",
"509 564 OFFCURVE",
"509 516 CURVE SMOOTH",
"509 426 OFFCURVE",
"469 380 OFFCURVE",
"348 380 CURVE SMOOTH",
"266 380 LINE",
"304 593 LINE"
);
}
);
};
layerId = "D879A026-05F7-4E99-AC55-D533E46CE7AB";
paths = (
{
closed = 1;
nodes = (
"592 0 LINE",
"492 294 LINE",
"572 340 OFFCURVE",
"646 411 OFFCURVE",
"646 531 CURVE SMOOTH",
"646 658 OFFCURVE",
"564 700 OFFCURVE",
"446 700 CURVE SMOOTH",
"195 700 LINE",
"72 0 LINE",
"199 0 LINE",
"245 260 LINE",
"367 260 LINE",
"459 0 LINE"
);
},
{
closed = 1;
nodes = (
"395 593 LINE SMOOTH",
"492 593 OFFCURVE",
"509 560 OFFCURVE",
"509 509 CURVE SMOOTH",
"509 426 OFFCURVE",
"465 380 OFFCURVE",
"348 380 CURVE SMOOTH",
"266 380 LINE",
"304 593 LINE"
);
}
);
width = 601;
}
);
leftKerningGroup = I;
unicode = 0052;
},
{
glyphname = R.sc;
lastChange = "2016-08-23 13:01:52 +0000";
layers = (
{
background = {
paths = (
{
closed = 1;
nodes = (
"498 0 LINE",
"416 236 LINE",
"487 274 OFFCURVE",
"542 332 OFFCURVE",
"542 431 CURVE SMOOTH",
"542 528 OFFCURVE",
"474 560 OFFCURVE",
"380 560 CURVE SMOOTH",
"188 560 LINE",
"89 0 LINE",
"183 0 LINE",
"220 212 LINE",
"324 212 LINE",
"401 0 LINE"
);
},
{
closed = 1;
nodes = (
"349 483 LINE SMOOTH",
"419 483 OFFCURVE",
"443 457 OFFCURVE",
"443 414 CURVE SMOOTH",
"443 348 OFFCURVE",
"419 300 OFFCURVE",
"319 300 CURVE SMOOTH",
"236 300 LINE",
"268 483 LINE"
);
}
);
};
layerId = UUID0;
paths = (
{
closed = 1;
nodes = (
"498 0 LINE",
"416 236 LINE",
"487 274 OFFCURVE",
"542 332 OFFCURVE",
"542 431 CURVE SMOOTH",
"542 528 OFFCURVE",
"474 560 OFFCURVE",
"380 560 CURVE SMOOTH",
"188 560 LINE",
"89 0 LINE",
"183 0 LINE",
"220 212 LINE",
"324 212 LINE",
"401 0 LINE"
);
},
{
closed = 1;
nodes = (
"349 483 LINE SMOOTH",
"419 483 OFFCURVE",
"443 457 OFFCURVE",
"443 414 CURVE SMOOTH",
"443 348 OFFCURVE",
"419 300 OFFCURVE",
"319 300 CURVE SMOOTH",
"236 300 LINE",
"268 483 LINE"
);
}
);
width = 540;
},
{
background = {
paths = (
{
closed = 1;
nodes = (
"558 0 LINE",
"468 242 LINE",
"538 286 OFFCURVE",
"599 328 OFFCURVE",
"599 445 CURVE SMOOTH",
"599 545 OFFCURVE",
"520 581 OFFCURVE",
"422 581 CURVE SMOOTH",
"191 581 LINE",
"89 0 LINE",
"210 0 LINE",
"247 210 LINE",
"350 210 LINE",
"432 0 LINE"
);
},
{
closed = 1;
nodes = (
"367 479 LINE SMOOTH",
"448 479 OFFCURVE",
"468 457 OFFCURVE",
"468 423 CURVE SMOOTH",
"468 367 OFFCURVE",
"448 322 OFFCURVE",
"322 322 CURVE SMOOTH",
"267 322 LINE",
"295 479 LINE"
);
}
);
};
layerId = "D879A026-05F7-4E99-AC55-D533E46CE7AB";
paths = (
{
closed = 1;
nodes = (
"558 0 LINE",
"468 242 LINE",
"538 286 OFFCURVE",
"599 328 OFFCURVE",
"599 445 CURVE SMOOTH",
"599 545 OFFCURVE",
"520 581 OFFCURVE",
"422 581 CURVE SMOOTH",
"191 581 LINE",
"89 0 LINE",
"210 0 LINE",
"247 210 LINE",
"350 210 LINE",
"432 0 LINE"
);
},
{
closed = 1;
nodes = (
"367 479 LINE SMOOTH",
"448 479 OFFCURVE",
"468 457 OFFCURVE",
"468 423 CURVE SMOOTH",
"468 367 OFFCURVE",
"448 322 OFFCURVE",
"322 322 CURVE SMOOTH",
"267 322 LINE",
"295 479 LINE"
);
}
);
width = 587;
}
);
},
{
glyphname = S;
lastChange = "2016-08-23 13:01:52 +0000";
layers = (
{
background = {
paths = (
{
closed = 1;
nodes = (
"464 -14 OFFCURVE",
"531 107 OFFCURVE",
"531 216 CURVE SMOOTH",
"531 339 OFFCURVE",
"430 374 OFFCURVE",
"340 408 CURVE SMOOTH",
"277 432 OFFCURVE",
"226 456 OFFCURVE",
"226 511 CURVE SMOOTH",
"226 594 OFFCURVE",
"314 628 OFFCURVE",
"379 628 CURVE SMOOTH",
"441 628 OFFCURVE",
"492 599 OFFCURVE",
"550 565 CURVE",
"577 666 LINE",
"546 688 OFFCURVE",
"470 714 OFFCURVE",
"387 714 CURVE SMOOTH",
"192 714 OFFCURVE",
"121 574 OFFCURVE",
"121 485 CURVE SMOOTH",
"121 387 OFFCURVE",
"206 354 OFFCURVE",
"290 321 CURVE SMOOTH",
"363 292 OFFCURVE",
"424 263 OFFCURVE",
"424 197 CURVE SMOOTH",
"424 107 OFFCURVE",
"348 72 OFFCURVE",
"265 72 CURVE SMOOTH",
"177 72 OFFCURVE",
"114 108 OFFCURVE",
"81 142 CURVE",
"49 31 LINE",
"83 8 OFFCURVE",
"154 -14 OFFCURVE",
"248 -14 CURVE SMOOTH"
);
}
);
};
layerId = UUID0;
paths = (
{
closed = 1;
nodes = (
"247 -14 LINE",
"464 -14 OFFCURVE",
"531 108 OFFCURVE",
"531 213 CURVE SMOOTH",
"531 342 OFFCURVE",
"430 373 OFFCURVE",
"340 408 CURVE SMOOTH",
"270 435 OFFCURVE",
"226 457 OFFCURVE",
"226 513 CURVE SMOOTH",
"226 593 OFFCURVE",
"314 628 OFFCURVE",
"380 628 CURVE SMOOTH",
"440 628 OFFCURVE",
"492 599 OFFCURVE",
"550 565 CURVE",
"577 666 LINE",
"546 688 OFFCURVE",
"470 714 OFFCURVE",
"387 714 CURVE SMOOTH",
"192 714 OFFCURVE",
"121 574 OFFCURVE",
"121 485 CURVE SMOOTH",
"121 382 OFFCURVE",
"216 351 OFFCURVE",
"290 321 CURVE SMOOTH",
"364 291 OFFCURVE",
"424 266 OFFCURVE",
"424 192 CURVE SMOOTH",
"424 109 OFFCURVE",
"348 72 OFFCURVE",
"262 72 CURVE SMOOTH",
"178 72 OFFCURVE",
"114 108 OFFCURVE",
"81 142 CURVE",
"49 31 LINE",
"83 8 OFFCURVE",
"155 -14 OFFCURVE",
"247 -14 CURVE SMOOTH"
);
}
);
width = 521;
},
{
background = {
paths = (
{
closed = 1;
nodes = (
"492 -14 OFFCURVE",
"566 110 OFFCURVE",
"566 224 CURVE SMOOTH",
"566 350 OFFCURVE",
"459 387 OFFCURVE",
"372 417 CURVE SMOOTH",
"309 438 OFFCURVE",
"255 459 OFFCURVE",
"255 508 CURVE SMOOTH",
"255 576 OFFCURVE",
"335 592 OFFCURVE",
"388 592 CURVE SMOOTH",
"451 592 OFFCURVE",
"508 570 OFFCURVE",
"574 529 CURVE",
"610 660 LINE",
"580 684 OFFCURVE",
"498 714 OFFCURVE",
"405 714 CURVE SMOOTH",
"201 714 OFFCURVE",
"122 573 OFFCURVE",
"122 476 CURVE SMOOTH",
"122 374 OFFCURVE",
"208 341 OFFCURVE",
"286 310 CURVE SMOOTH",
"354 283 OFFCURVE",
"419 259 OFFCURVE",
"419 198 CURVE SMOOTH",
"419 132 OFFCURVE",
"371 109 OFFCURVE",
"291 109 CURVE SMOOTH",
"189 109 OFFCURVE",
"121 146 OFFCURVE",
"92 183 CURVE",
"52 37 LINE",
"85 11 OFFCURVE",
"164 -14 OFFCURVE",
"266 -14 CURVE SMOOTH"
);
}
);
};
layerId = "D879A026-05F7-4E99-AC55-D533E46CE7AB";
paths = (
{
closed = 1;
nodes = (
"266 -14 LINE",
"492 -14 OFFCURVE",
"566 111 OFFCURVE",
"566 221 CURVE SMOOTH",
"566 349 OFFCURVE",
"465 385 OFFCURVE",
"372 417 CURVE SMOOTH",
"304 440 OFFCURVE",
"255 459 OFFCURVE",
"255 510 CURVE SMOOTH",
"255 575 OFFCURVE",
"335 592 OFFCURVE",
"389 592 CURVE SMOOTH",
"451 592 OFFCURVE",
"508 570 OFFCURVE",
"574 529 CURVE",
"610 660 LINE",
"580 684 OFFCURVE",
"498 714 OFFCURVE",
"405 714 CURVE SMOOTH",
"201 714 OFFCURVE",
"122 573 OFFCURVE",
"122 476 CURVE SMOOTH",
"122 374 OFFCURVE",
"208 341 OFFCURVE",
"286 310 CURVE SMOOTH",
"373 276 OFFCURVE",
"419 254 OFFCURVE",
"419 194 CURVE SMOOTH",
"419 132 OFFCURVE",
"369 109 OFFCURVE",
"290 109 CURVE SMOOTH",
"190 109 OFFCURVE",
"121 146 OFFCURVE",
"92 183 CURVE",
"52 37 LINE",
"85 11 OFFCURVE",
"164 -14 OFFCURVE",
"266 -14 CURVE SMOOTH"
);
}
);
width = 556;
}
);
leftKerningGroup = S;
rightKerningGroup = S;
unicode = 0053;
},
{
glyphname = S.sc;
lastChange = "2016-08-23 13:01:52 +0000";
layers = (
{
background = {
paths = (
{
closed = 1;
nodes = (
"425 -11 OFFCURVE",
"482 87 OFFCURVE",
"482 176 CURVE SMOOTH",
"482 277 OFFCURVE",
"395 306 OFFCURVE",
"321 331 CURVE SMOOTH",
"269 349 OFFCURVE",
"224 367 OFFCURVE",
"224 408 CURVE SMOOTH",
"224 466 OFFCURVE",
"292 484 OFFCURVE",
"342 484 CURVE SMOOTH",
"394 484 OFFCURVE",
"440 464 OFFCURVE",
"491 434 CURVE",
"517 530 LINE",
"492 548 OFFCURVE",
"426 571 OFFCURVE",
"353 571 CURVE SMOOTH",
"188 571 OFFCURVE",
"125 459 OFFCURVE",
"125 384 CURVE SMOOTH",
"125 303 OFFCURVE",
"197 276 OFFCURVE",
"265 251 CURVE SMOOTH",
"325 229 OFFCURVE",
"377 209 OFFCURVE",
"377 158 CURVE SMOOTH",
"377 98 OFFCURVE",
"326 77 OFFCURVE",
"259 77 CURVE SMOOTH",
"179 77 OFFCURVE",
"125 106 OFFCURVE",
"99 135 CURVE",
"69 28 LINE",
"97 8 OFFCURVE",
"160 -11 OFFCURVE",
"241 -11 CURVE SMOOTH"
);
}
);
};
layerId = UUID0;
paths = (
{
closed = 1;
nodes = (
"241 -11 LINE",
"425 -11 OFFCURVE",
"482 87 OFFCURVE",
"482 176 CURVE SMOOTH",
"482 277 OFFCURVE",
"395 306 OFFCURVE",
"321 331 CURVE SMOOTH",
"269 349 OFFCURVE",
"224 367 OFFCURVE",
"224 408 CURVE SMOOTH",
"224 466 OFFCURVE",
"292 484 OFFCURVE",
"342 484 CURVE SMOOTH",
"394 484 OFFCURVE",
"440 464 OFFCURVE",
"491 434 CURVE",
"517 530 LINE",
"492 548 OFFCURVE",
"426 571 OFFCURVE",
"353 571 CURVE SMOOTH",
"188 571 OFFCURVE",
"125 459 OFFCURVE",
"125 384 CURVE SMOOTH",
"125 303 OFFCURVE",
"197 276 OFFCURVE",
"265 251 CURVE SMOOTH",
"325 229 OFFCURVE",
"377 209 OFFCURVE",
"377 158 CURVE SMOOTH",
"377 98 OFFCURVE",
"326 77 OFFCURVE",
"259 77 CURVE SMOOTH",
"179 77 OFFCURVE",
"125 106 OFFCURVE",
"99 135 CURVE",
"69 28 LINE",
"97 8 OFFCURVE",
"160 -11 OFFCURVE",
"241 -11 CURVE SMOOTH"
);
}
);
width = 502;
},
{
background = {
paths = (
{
closed = 1;
nodes = (
"513 -12 OFFCURVE",
"528 140 OFFCURVE",
"528 189 CURVE SMOOTH",
"528 295 OFFCURVE",
"434 327 OFFCURVE",
"360 350 CURVE SMOOTH",
"306 367 OFFCURVE",
"257 382 OFFCURVE",
"257 420 CURVE SMOOTH",
"257 471 OFFCURVE",
"321 475 OFFCURVE",
"362 475 CURVE SMOOTH",
"418 475 OFFCURVE",
"469 460 OFFCURVE",
"529 423 CURVE",
"563 545 LINE",
"538 566 OFFCURVE",
"465 593 OFFCURVE",
"381 593 CURVE SMOOTH",
"203 593 OFFCURVE",
"131 476 OFFCURVE",
"131 392 CURVE SMOOTH",
"131 305 OFFCURVE",
"206 276 OFFCURVE",
"271 252 CURVE SMOOTH",
"328 231 OFFCURVE",
"387 213 OFFCURVE",
"387 165 CURVE SMOOTH",
"387 120 OFFCURVE",
"356 107 OFFCURVE",
"289 107 CURVE SMOOTH",
"196 107 OFFCURVE",
"135 138 OFFCURVE",
"112 170 CURVE",
"74 33 LINE",
"104 10 OFFCURVE",
"173 -12 OFFCURVE",
"265 -12 CURVE SMOOTH"
);
}
);
};
layerId = "D879A026-05F7-4E99-AC55-D533E46CE7AB";
paths = (
{
closed = 1;
nodes = (
"265 -12 LINE",
"513 -12 OFFCURVE",
"528 140 OFFCURVE",
"528 189 CURVE SMOOTH",
"528 295 OFFCURVE",
"434 327 OFFCURVE",
"360 350 CURVE SMOOTH",
"306 367 OFFCURVE",
"257 382 OFFCURVE",
"257 420 CURVE SMOOTH",
"257 471 OFFCURVE",
"321 475 OFFCURVE",
"362 475 CURVE SMOOTH",
"418 475 OFFCURVE",
"469 460 OFFCURVE",
"529 423 CURVE",
"563 545 LINE",
"538 566 OFFCURVE",
"465 593 OFFCURVE",
"381 593 CURVE SMOOTH",
"203 593 OFFCURVE",
"131 476 OFFCURVE",
"131 392 CURVE SMOOTH",
"131 305 OFFCURVE",
"206 276 OFFCURVE",
"271 252 CURVE SMOOTH",
"328 231 OFFCURVE",
"387 213 OFFCURVE",
"387 165 CURVE SMOOTH",
"387 120 OFFCURVE",
"356 107 OFFCURVE",
"289 107 CURVE SMOOTH",
"196 107 OFFCURVE",
"135 138 OFFCURVE",
"112 170 CURVE",
"74 33 LINE",
"104 10 OFFCURVE",
"173 -12 OFFCURVE",
"265 -12 CURVE SMOOTH"
);
}
);
width = 550;
}
);
},
{
glyphname = T;
lastChange = "2016-08-23 13:01:52 +0000";
layers = (
{
background = {
paths = (
{
closed = 1;
nodes = (
"587 614 LINE",
"602 700 LINE",
"143 700 LINE",
"128 614 LINE",
"310 614 LINE",
"202 0 LINE",
"297 0 LINE",
"405 614 LINE"
);
}
);
};
layerId = UUID0;
paths = (
{
closed = 1;
nodes = (
"587 614 LINE",
"602 700 LINE",
"143 700 LINE",
"128 614 LINE",
"310 614 LINE",
"202 0 LINE",
"297 0 LINE",
"405 614 LINE"
);
}
);
width = 499;
},
{
background = {
paths = (
{
closed = 1;
nodes = (
"620 576 LINE",
"642 700 LINE",
"136 700 LINE",
"114 576 LINE",
"303 576 LINE",
"202 0 LINE",
"330 0 LINE",
"431 576 LINE"
);
}
);
};
layerId = "D879A026-05F7-4E99-AC55-D533E46CE7AB";
paths = (
{
closed = 1;
nodes = (
"620 576 LINE",
"642 700 LINE",
"136 700 LINE",
"114 576 LINE",
"303 576 LINE",
"202 0 LINE",
"330 0 LINE",
"431 576 LINE"
);
}
);
width = 531;
}
);
unicode = 0054;
},
{
glyphname = T.sc;
lastChange = "2016-08-23 13:01:52 +0000";
layers = (
{
background = {
paths = (
{
closed = 1;
nodes = (
"526 472 LINE",
"541 560 LINE",
"140 560 LINE",
"124 472 LINE",
"278 472 LINE",
"195 0 LINE",
"288 0 LINE",
"371 472 LINE"
);
}
);
};
layerId = UUID0;
paths = (
{
closed = 1;
nodes = (
"526 472 LINE",
"541 560 LINE",
"140 560 LINE",
"124 472 LINE",
"278 472 LINE",
"195 0 LINE",
"288 0 LINE",
"371 472 LINE"
);
}
);
width = 483;
},
{
background = {
paths = (
{
closed = 1;
nodes = (
"573 461 LINE",
"594 581 LINE",
"140 581 LINE",
"119 461 LINE",
"284 461 LINE",
"203 0 LINE",
"327 0 LINE",
"408 461 LINE"
);
}
);
};
layerId = "D879A026-05F7-4E99-AC55-D533E46CE7AB";
paths = (
{
closed = 1;
nodes = (
"573 461 LINE",
"594 581 LINE",
"140 581 LINE",
"119 461 LINE",
"284 461 LINE",
"203 0 LINE",
"327 0 LINE",
"408 461 LINE"
);
}
);
width = 529;
}
);
},
{
glyphname = Thorn;
lastChange = "2016-08-23 13:01:52 +0000";
layers = (
{
background = {
paths = (
{
closed = 1;
nodes = (
"258 206 LINE SMOOTH",
"483 206 OFFCURVE",
"565 269 OFFCURVE",
"565 429 CURVE SMOOTH",
"565 538 OFFCURVE",
"482 560 OFFCURVE",
"321 560 CURVE SMOOTH",
"266 560 LINE",
"290 700 LINE",
"192 700 LINE",
"69 0 LINE",
"167 0 LINE",
"203 206 LINE"
);
},
{
closed = 1;
nodes = (
"342 503 LINE SMOOTH",
"429 503 OFFCURVE",
"468 478 OFFCURVE",
"468 413 CURVE SMOOTH",
"468 320 OFFCURVE",
"424 261 OFFCURVE",
"299 261 CURVE SMOOTH",
"213 261 LINE",
"256 503 LINE"
);
}
);
};
layerId = UUID0;
paths = (
{
closed = 1;
nodes = (
"258 206 LINE SMOOTH",
"483 206 OFFCURVE",
"565 269 OFFCURVE",
"565 429 CURVE SMOOTH",
"565 538 OFFCURVE",
"482 560 OFFCURVE",
"321 560 CURVE SMOOTH",
"266 560 LINE",
"290 700 LINE",
"192 700 LINE",
"69 0 LINE",
"167 0 LINE",
"203 206 LINE"
);
},
{
closed = 1;
nodes = (
"342 503 LINE SMOOTH",
"429 503 OFFCURVE",
"468 478 OFFCURVE",
"468 413 CURVE SMOOTH",
"468 320 OFFCURVE",
"424 261 OFFCURVE",
"299 261 CURVE SMOOTH",
"213 261 LINE",
"256 503 LINE"
);
}
);
width = 507;
},
{
background = {
paths = (
{
closed = 1;
nodes = (
"276 193 LINE SMOOTH",
"492 193 OFFCURVE",
"598 252 OFFCURVE",
"598 427 CURVE SMOOTH",
"598 549 OFFCURVE",
"500 569 OFFCURVE",
"342 569 CURVE SMOOTH",
"302 569 LINE",
"325 700 LINE",
"197 700 LINE",
"74 0 LINE",
"201 0 LINE",
"235 193 LINE"
);
},
{
closed = 1;
nodes = (
"356 471 LINE SMOOTH",
"438 471 OFFCURVE",
"465 451 OFFCURVE",
"465 405 CURVE SMOOTH",
"465 342 OFFCURVE",
"445 289 OFFCURVE",
"324 289 CURVE SMOOTH",
"252 289 LINE",
"284 471 LINE"
);
}
);
};
layerId = "D879A026-05F7-4E99-AC55-D533E46CE7AB";
paths = (
{
closed = 1;
nodes = (
"276 193 LINE SMOOTH",
"492 193 OFFCURVE",
"598 252 OFFCURVE",
"598 427 CURVE SMOOTH",
"598 549 OFFCURVE",
"500 569 OFFCURVE",
"342 569 CURVE SMOOTH",
"302 569 LINE",
"325 700 LINE",
"197 700 LINE",
"74 0 LINE",
"201 0 LINE",
"235 193 LINE"
);
},
{
closed = 1;
nodes = (
"356 471 LINE SMOOTH",
"438 471 OFFCURVE",
"465 451 OFFCURVE",
"465 405 CURVE SMOOTH",
"465 342 OFFCURVE",
"445 289 OFFCURVE",
"324 289 CURVE SMOOTH",
"252 289 LINE",
"284 471 LINE"
);
}
);
width = 541;
}
);
leftKerningGroup = I;
unicode = 00DE;
},
{
glyphname = U;
lastChange = "2016-08-23 13:01:52 +0000";
layers = (
{
background = {
paths = (
{
closed = 1;
nodes = (
"498 -14 OFFCURVE",
"603 105 OFFCURVE",
"637 297 CURVE SMOOTH",
"708 700 LINE",
"613 700 LINE",
"550 343 LINE SMOOTH",
"526 206 OFFCURVE",
"477 72 OFFCURVE",
"336 72 CURVE SMOOTH",
"196 72 OFFCURVE",
"194 205 OFFCURVE",
"218 343 CURVE SMOOTH",
"281 700 LINE",
"186 700 LINE",
"115 297 LINE SMOOTH",
"81 105 OFFCURVE",
"144 -14 OFFCURVE",
"321 -14 CURVE SMOOTH"
);
}
);
};
layerId = UUID0;
paths = (
{
closed = 1;
nodes = (
"321 -14 LINE",
"498 -14 OFFCURVE",
"603 105 OFFCURVE",
"637 297 CURVE SMOOTH",
"708 700 LINE",
"613 700 LINE",
"550 343 LINE SMOOTH",
"526 206 OFFCURVE",
"477 72 OFFCURVE",
"336 72 CURVE SMOOTH",
"236 72 OFFCURVE",
"206 140 OFFCURVE",
"206 229 CURVE SMOOTH",
"206 265 OFFCURVE",
"211 304 OFFCURVE",
"218 343 CURVE SMOOTH",
"281 700 LINE",
"186 700 LINE",
"115 297 LINE SMOOTH",
"109 264 OFFCURVE",
"106 233 OFFCURVE",
"106 204 CURVE SMOOTH",
"106 67 OFFCURVE",
"175 -14 OFFCURVE",
"321 -14 CURVE SMOOTH"
);
}
);
width = 647;
},
{
background = {
paths = (
{
closed = 1;
nodes = (
"532 -14 OFFCURVE",
"642 110 OFFCURVE",
"676 300 CURVE SMOOTH",
"747 700 LINE",
"619 700 LINE",
"556 343 LINE SMOOTH",
"533 213 OFFCURVE",
"489 109 OFFCURVE",
"364 109 CURVE SMOOTH",
"239 109 OFFCURVE",
"232 213 OFFCURVE",
"255 343 CURVE SMOOTH",
"318 700 LINE",
"191 700 LINE",
"120 300 LINE SMOOTH",
"86 110 OFFCURVE",
"153 -14 OFFCURVE",
"343 -14 CURVE SMOOTH"
);
}
);
};
layerId = "D879A026-05F7-4E99-AC55-D533E46CE7AB";
paths = (
{
closed = 1;
nodes = (
"343 -14 LINE",
"532 -14 OFFCURVE",
"642 110 OFFCURVE",
"676 300 CURVE SMOOTH",
"747 700 LINE",
"619 700 LINE",
"556 343 LINE SMOOTH",
"533 213 OFFCURVE",
"489 109 OFFCURVE",
"364 109 CURVE SMOOTH",
"273 109 OFFCURVE",
"246 164 OFFCURVE",
"245 245 CURVE SMOOTH",
"245 273 OFFCURVE",
"248 304 OFFCURVE",
"255 343 CURVE SMOOTH",
"318 700 LINE",
"191 700 LINE",
"120 300 LINE SMOOTH",
"114 267 OFFCURVE",
"112 235 OFFCURVE",
"112 212 CURVE SMOOTH",
"112 71 OFFCURVE",
"186 -14 OFFCURVE",
"343 -14 CURVE SMOOTH"
);
}
);
width = 690;
}
);
leftKerningGroup = U;
rightKerningGroup = U;
unicode = 0055;
},
{
glyphname = U.sc;
lastChange = "2016-08-23 13:01:52 +0000";
layers = (
{
background = {
paths = (
{
closed = 1;
nodes = (
"456 -11 OFFCURVE",
"544 87 OFFCURVE",
"571 239 CURVE SMOOTH",
"628 560 LINE",
"535 560 LINE",
"485 274 LINE SMOOTH",
"466 168 OFFCURVE",
"429 77 OFFCURVE",
"319 77 CURVE SMOOTH",
"208 77 OFFCURVE",
"202 168 OFFCURVE",
"221 274 CURVE SMOOTH",
"271 560 LINE",
"180 560 LINE",
"123 239 LINE SMOOTH",
"96 87 OFFCURVE",
"151 -11 OFFCURVE",
"303 -11 CURVE SMOOTH"
);
}
);
};
layerId = UUID0;
paths = (
{
closed = 1;
nodes = (
"303 -11 LINE",
"456 -11 OFFCURVE",
"544 87 OFFCURVE",
"571 239 CURVE SMOOTH",
"628 560 LINE",
"535 560 LINE",
"485 274 LINE SMOOTH",
"466 168 OFFCURVE",
"429 77 OFFCURVE",
"319 77 CURVE SMOOTH",
"238 77 OFFCURVE",
"213 126 OFFCURVE",
"213 194 CURVE SMOOTH",
"213 219 OFFCURVE",
"216 246 OFFCURVE",
"221 274 CURVE SMOOTH",
"271 560 LINE",
"180 560 LINE",
"123 239 LINE SMOOTH",
"119 214 OFFCURVE",
"116 191 OFFCURVE",
"116 169 CURVE SMOOTH",
"116 57 OFFCURVE",
"176 -11 OFFCURVE",
"303 -11 CURVE SMOOTH"
);
}
);
width = 610;
},
{
background = {
paths = (
{
closed = 1;
nodes = (
"499 -12 OFFCURVE",
"597 94 OFFCURVE",
"624 250 CURVE SMOOTH",
"682 581 LINE",
"559 581 LINE",
"507 285 LINE SMOOTH",
"488 180 OFFCURVE",
"454 107 OFFCURVE",
"352 107 CURVE SMOOTH",
"251 107 OFFCURVE",
"241 180 OFFCURVE",
"260 285 CURVE SMOOTH",
"312 581 LINE",
"190 581 LINE",
"132 250 LINE SMOOTH",
"105 94 OFFCURVE",
"164 -12 OFFCURVE",
"331 -12 CURVE SMOOTH"
);
}
);
};
layerId = "D879A026-05F7-4E99-AC55-D533E46CE7AB";
paths = (
{
closed = 1;
nodes = (
"331 -12 LINE",
"499 -12 OFFCURVE",
"597 94 OFFCURVE",
"624 250 CURVE SMOOTH",
"682 581 LINE",
"559 581 LINE",
"507 285 LINE SMOOTH",
"488 180 OFFCURVE",
"454 107 OFFCURVE",
"352 107 CURVE SMOOTH",
"278 107 OFFCURVE",
"253 147 OFFCURVE",
"252 209 CURVE SMOOTH",
"252 232 OFFCURVE",
"255 257 OFFCURVE",
"260 285 CURVE SMOOTH",
"312 581 LINE",
"190 581 LINE",
"132 250 LINE SMOOTH",
"128 225 OFFCURVE",
"126 200 OFFCURVE",
"126 178 CURVE SMOOTH",
"127 62 OFFCURVE",
"191 -12 OFFCURVE",
"331 -12 CURVE SMOOTH"
);
}
);
width = 667;
}
);
},
{
glyphname = V;
lastChange = "2016-08-23 13:01:52 +0000";
layers = (
{
layerId = UUID0;
paths = (
{
closed = 1;
nodes = (
"708 700 LINE",
"608 700 LINE",
"316 115 LINE",
"230 700 LINE",
"130 700 LINE",
"243 0 LINE",
"349 0 LINE"
);
}
);
width = 593;
},
{
layerId = "D879A026-05F7-4E99-AC55-D533E46CE7AB";
paths = (
{
closed = 1;
nodes = (
"754 700 LINE",
"622 700 LINE",
"348 149 LINE",
"256 700 LINE",
"123 700 LINE",
"239 0 LINE",
"397 0 LINE"
);
}
);
width = 632;
}
);
unicode = 0056;
},
{
glyphname = V.sc;
lastChange = "2016-08-23 13:01:52 +0000";
layers = (
{
background = {
paths = (
{
closed = 1;
nodes = (
"631 560 LINE",
"534 560 LINE",
"303 118 LINE",
"225 560 LINE",
"128 560 LINE",
"228 0 LINE",
"337 0 LINE"
);
}
);
};
layerId = UUID0;
paths = (
{
closed = 1;
nodes = (
"631 560 LINE",
"534 560 LINE",
"303 118 LINE",
"225 560 LINE",
"128 560 LINE",
"228 0 LINE",
"337 0 LINE"
);
}
);
width = 564;
},
{
background = {
paths = (
{
closed = 1;
nodes = (
"691 581 LINE",
"566 581 LINE",
"339 167 LINE",
"256 581 LINE",
"128 581 LINE",
"233 0 LINE",
"390 0 LINE"
);
}
);
};
layerId = "D879A026-05F7-4E99-AC55-D533E46CE7AB";
paths = (
{
closed = 1;
nodes = (
"691 581 LINE",
"566 581 LINE",
"339 167 LINE",
"256 581 LINE",
"128 581 LINE",
"233 0 LINE",
"390 0 LINE"
);
}
);
width = 616;
}
);
},
{
glyphname = W;
lastChange = "2016-08-23 13:01:52 +0000";
layers = (
{
layerId = UUID0;
paths = (
{
closed = 1;
nodes = (
"985 700 LINE",
"886 700 LINE",
"648 119 LINE",
"596 686 LINE",
"517 686 LINE",
"262 118 LINE",
"233 700 LINE",
"133 700 LINE",
"186 0 LINE",
"285 0 LINE",
"536 574 LINE",
"581 0 LINE",
"677 0 LINE"
);
}
);
width = 865;
},
{
layerId = "D879A026-05F7-4E99-AC55-D533E46CE7AB";
paths = (
{
closed = 1;
nodes = (
"1043 700 LINE",
"910 700 LINE",
"699 216 LINE",
"632 700 LINE",
"546 700 LINE",
"311 203 LINE",
"267 700 LINE",
"134 700 LINE",
"200 0 LINE",
"318 0 LINE",
"547 467 LINE",
"613 0 LINE",
"723 0 LINE"
);
}
);
width = 927;
}
);
unicode = 0057;
},
{
glyphname = W.sc;
lastChange = "2016-08-23 13:01:52 +0000";
layers = (
{
background = {
paths = (
{
closed = 1;
nodes = (
"867 560 LINE",
"770 560 LINE",
"589 142 LINE",
"533 556 LINE",
"465 556 LINE",
"267 135 LINE",
"231 560 LINE",
"134 560 LINE",
"188 0 LINE",
"278 0 LINE",
"473 404 LINE",
"523 0 LINE",
"609 0 LINE"
);
}
);
};
layerId = UUID0;
paths = (
{
closed = 1;
nodes = (
"867 560 LINE",
"770 560 LINE",
"589 142 LINE",
"533 556 LINE",
"465 556 LINE",
"267 135 LINE",
"231 560 LINE",
"134 560 LINE",
"188 0 LINE",
"278 0 LINE",
"473 404 LINE",
"523 0 LINE",
"609 0 LINE"
);
}
);
width = 800;
},
{
background = {
paths = (
{
closed = 1;
nodes = (
"945 581 LINE",
"819 581 LINE",
"650 227 LINE",
"582 587 LINE",
"506 587 LINE",
"315 211 LINE",
"269 581 LINE",
"141 581 LINE",
"207 0 LINE",
"316 0 LINE",
"501 340 LINE",
"570 0 LINE",
"669 0 LINE"
);
}
);
};
layerId = "D879A026-05F7-4E99-AC55-D533E46CE7AB";
paths = (
{
closed = 1;
nodes = (
"945 581 LINE",
"819 581 LINE",
"650 227 LINE",
"582 587 LINE",
"506 587 LINE",
"315 211 LINE",
"269 581 LINE",
"141 581 LINE",
"207 0 LINE",
"316 0 LINE",
"501 340 LINE",
"570 0 LINE",
"669 0 LINE"
);
}
);
width = 879;
}
);
},
{
glyphname = X;
lastChange = "2016-08-23 13:01:52 +0000";
layers = (
{
background = {
paths = (
{
closed = 1;
nodes = (
"551 0 LINE",
"392 356 LINE",
"670 700 LINE",
"567 700 LINE",
"357 422 LINE",
"249 700 LINE",
"139 700 LINE",
"283 357 LINE",
"12 0 LINE",
"116 0 LINE",
"326 287 LINE",
"448 0 LINE"
);
}
);
};
layerId = UUID0;
paths = (
{
closed = 1;
nodes = (
"551 0 LINE",
"392 356 LINE",
"670 700 LINE",
"567 700 LINE",
"357 422 LINE",
"249 700 LINE",
"139 700 LINE",
"283 357 LINE",
"12 0 LINE",
"116 0 LINE",
"326 287 LINE",
"448 0 LINE"
);
}
);
width = 576;
},
{
background = {
paths = (
{
closed = 1;
nodes = (
"602 0 LINE",
"433 355 LINE",
"710 700 LINE",
"561 700 LINE",
"378 448 LINE",
"274 700 LINE",
"126 700 LINE",
"288 360 LINE",
"-10 0 LINE",
"138 0 LINE",
"339 257 LINE",
"452 0 LINE"
);
}
);
};
layerId = "D879A026-05F7-4E99-AC55-D533E46CE7AB";
paths = (
{
closed = 1;
nodes = (
"602 0 LINE",
"433 355 LINE",
"710 700 LINE",
"561 700 LINE",
"378 448 LINE",
"274 700 LINE",
"126 700 LINE",
"288 360 LINE",
"-10 0 LINE",
"138 0 LINE",
"339 257 LINE",
"452 0 LINE"
);
}
);
width = 588;
}
);
unicode = 0058;
},
{
glyphname = X.sc;
lastChange = "2016-08-23 13:01:52 +0000";
layers = (
{
background = {
paths = (
{
closed = 1;
nodes = (
"507 0 LINE",
"368 290 LINE",
"597 560 LINE",
"493 560 LINE",
"333 355 LINE",
"240 560 LINE",
"133 560 LINE",
"266 279 LINE",
"28 0 LINE",
"133 0 LINE",
"302 214 LINE",
"401 0 LINE"
);
}
);
};
layerId = UUID0;
paths = (
{
closed = 1;
nodes = (
"507 0 LINE",
"368 290 LINE",
"597 560 LINE",
"493 560 LINE",
"333 355 LINE",
"240 560 LINE",
"133 560 LINE",
"266 279 LINE",
"28 0 LINE",
"133 0 LINE",
"302 214 LINE",
"401 0 LINE"
);
}
);
width = 538;
},
{
background = {
paths = (
{
closed = 1;
nodes = (
"567 0 LINE",
"415 302 LINE",
"651 581 LINE",
"506 581 LINE",
"366 389 LINE",
"271 581 LINE",
"128 581 LINE",
"278 290 LINE",
"12 0 LINE",
"157 0 LINE",
"325 200 LINE",
"420 0 LINE"
);
}
);
};
layerId = "D879A026-05F7-4E99-AC55-D533E46CE7AB";
paths = (
{
closed = 1;
nodes = (
"567 0 LINE",
"415 302 LINE",
"651 581 LINE",
"506 581 LINE",
"366 389 LINE",
"271 581 LINE",
"128 581 LINE",
"278 290 LINE",
"12 0 LINE",
"157 0 LINE",
"325 200 LINE",
"420 0 LINE"
);
}
);
width = 568;
}
);
},
{
glyphname = Y;
lastChange = "2016-08-23 13:01:52 +0000";
layers = (
{
background = {
paths = (
{
closed = 1;
nodes = (
"650 700 LINE",
"550 700 LINE",
"338 409 LINE",
"224 700 LINE",
"124 700 LINE",
"272 323 LINE",
"215 0 LINE",
"313 0 LINE",
"370 323 LINE"
);
}
);
};
layerId = UUID0;
paths = (
{
closed = 1;
nodes = (
"650 700 LINE",
"550 700 LINE",
"338 409 LINE",
"224 700 LINE",
"124 700 LINE",
"272 323 LINE",
"215 0 LINE",
"313 0 LINE",
"370 323 LINE"
);
}
);
width = 543;
},
{
background = {
paths = (
{
closed = 1;
nodes = (
"702 700 LINE",
"566 700 LINE",
"358 420 LINE",
"244 700 LINE",
"108 700 LINE",
"272 310 LINE",
"218 0 LINE",
"345 0 LINE",
"400 310 LINE"
);
}
);
};
layerId = "D879A026-05F7-4E99-AC55-D533E46CE7AB";
paths = (
{
closed = 1;
nodes = (
"702 700 LINE",
"566 700 LINE",
"358 420 LINE",
"244 700 LINE",
"108 700 LINE",
"272 310 LINE",
"218 0 LINE",
"345 0 LINE",
"400 310 LINE"
);
}
);
width = 559;
}
);
leftKerningGroup = Y;
rightKerningGroup = Y;
unicode = 0059;
},
{
glyphname = Y.sc;
lastChange = "2016-08-23 13:01:52 +0000";
layers = (
{
background = {
paths = (
{
closed = 1;
nodes = (
"585 560 LINE",
"487 560 LINE",
"312 335 LINE",
"217 560 LINE",
"119 560 LINE",
"251 252 LINE",
"206 0 LINE",
"300 0 LINE",
"344 252 LINE"
);
}
);
};
layerId = UUID0;
paths = (
{
closed = 1;
nodes = (
"585 560 LINE",
"487 560 LINE",
"312 335 LINE",
"217 560 LINE",
"119 560 LINE",
"251 252 LINE",
"206 0 LINE",
"300 0 LINE",
"344 252 LINE"
);
}
);
width = 512;
},
{
background = {
paths = (
{
closed = 1;
nodes = (
"648 581 LINE",
"517 581 LINE",
"341 359 LINE",
"242 581 LINE",
"111 581 LINE",
"261 251 LINE",
"217 0 LINE",
"337 0 LINE",
"381 251 LINE"
);
}
);
};
layerId = "D879A026-05F7-4E99-AC55-D533E46CE7AB";
paths = (
{
closed = 1;
nodes = (
"648 581 LINE",
"517 581 LINE",
"341 359 LINE",
"242 581 LINE",
"111 581 LINE",
"261 251 LINE",
"217 0 LINE",
"337 0 LINE",
"381 251 LINE"
);
}
);
width = 544;
}
);
},
{
glyphname = Z;
lastChange = "2016-08-23 13:01:52 +0000";
layers = (
{
background = {
paths = (
{
closed = 1;
nodes = (
"610 700 LINE",
"171 700 LINE",
"156 614 LINE",
"438 614 LINE",
"7 0 LINE",
"446 0 LINE",
"461 86 LINE",
"178 86 LINE"
);
}
);
};
layerId = UUID0;
paths = (
{
closed = 1;
nodes = (
"610 700 LINE",
"171 700 LINE",
"156 614 LINE",
"438 614 LINE",
"7 0 LINE",
"446 0 LINE",
"461 86 LINE",
"178 86 LINE"
);
}
);
width = 504;
},
{
background = {
paths = (
{
closed = 1;
nodes = (
"643 700 LINE",
"175 700 LINE",
"153 576 LINE",
"410 576 LINE",
"8 0 LINE",
"476 0 LINE",
"498 124 LINE",
"241 124 LINE"
);
}
);
};
layerId = "D879A026-05F7-4E99-AC55-D533E46CE7AB";
paths = (
{
closed = 1;
nodes = (
"643 700 LINE",
"175 700 LINE",
"153 576 LINE",
"410 576 LINE",
"8 0 LINE",
"476 0 LINE",
"498 124 LINE",
"241 124 LINE"
);
}
);
width = 522;
}
);
leftKerningGroup = Z;
rightKerningGroup = Z;
unicode = 005A;
},
{
glyphname = Z.sc;
lastChange = "2016-08-23 13:01:52 +0000";
layers = (
{
background = {
paths = (
{
closed = 1;
nodes = (
"544 560 LINE",
"167 560 LINE",
"151 472 LINE",
"376 472 LINE",
"33 0 LINE",
"411 0 LINE",
"426 88 LINE",
"201 88 LINE"
);
}
);
};
layerId = UUID0;
paths = (
{
closed = 1;
nodes = (
"544 560 LINE",
"167 560 LINE",
"151 472 LINE",
"376 472 LINE",
"33 0 LINE",
"411 0 LINE",
"426 88 LINE",
"201 88 LINE"
);
}
);
width = 481;
},
{
background = {
paths = (
{
closed = 1;
nodes = (
"591 581 LINE",
"177 581 LINE",
"156 461 LINE",
"368 461 LINE",
"36 0 LINE",
"450 0 LINE",
"471 120 LINE",
"260 120 LINE"
);
}
);
};
layerId = "D879A026-05F7-4E99-AC55-D533E46CE7AB";
paths = (
{
closed = 1;
nodes = (
"591 581 LINE",
"177 581 LINE",
"156 461 LINE",
"368 461 LINE",
"36 0 LINE",
"450 0 LINE",
"471 120 LINE",
"260 120 LINE"
);
}
);
width = 514;
}
);
},
{
glyphname = a;
lastChange = "2016-08-23 13:01:52 +0000";
layers = (
{
background = {
paths = (
{
closed = 1;
nodes = (
"541 490 LINE",
"461 490 LINE",
"442 438 LINE",
"416 489 OFFCURVE",
"369 500 OFFCURVE",
"327 500 CURVE SMOOTH",
"178 500 OFFCURVE",
"70 349 OFFCURVE",
"70 196 CURVE SMOOTH",
"70 79 OFFCURVE",
"133 -10 OFFCURVE",
"237 -10 CURVE SMOOTH",
"285 -10 OFFCURVE",
"346 15 OFFCURVE",
"386 62 CURVE",
"400 -8 OFFCURVE",
"443 -10 OFFCURVE",
"500 -10 CURVE",
"525 62 LINE",
"491 62 OFFCURVE",
"478 72 OFFCURVE",
"478 103 CURVE SMOOTH",
"478 114 OFFCURVE",
"479 127 OFFCURVE",
"482 143 CURVE SMOOTH"
);
},
{
closed = 1;
nodes = (
"376 420 OFFCURVE",
"420 373 OFFCURVE",
"420 284 CURVE SMOOTH",
"420 136 OFFCURVE",
"339 70 OFFCURVE",
"258 70 CURVE SMOOTH",
"196 70 OFFCURVE",
"164 130 OFFCURVE",
"164 205 CURVE SMOOTH",
"164 319 OFFCURVE",
"229 420 OFFCURVE",
"320 420 CURVE SMOOTH"
);
}
);
};
layerId = UUID0;
paths = (
{
closed = 1;
nodes = (
"541 490 LINE",
"461 490 LINE",
"442 438 LINE",
"416 489 OFFCURVE",
"369 500 OFFCURVE",
"328 500 CURVE SMOOTH",
"178 500 OFFCURVE",
"70 349 OFFCURVE",
"70 196 CURVE SMOOTH",
"70 79 OFFCURVE",
"134 -10 OFFCURVE",
"233 -10 CURVE SMOOTH",
"286 -10 OFFCURVE",
"346 15 OFFCURVE",
"386 62 CURVE",
"400 -8 OFFCURVE",
"443 -10 OFFCURVE",
"500 -10 CURVE",
"525 62 LINE",
"490 62 OFFCURVE",
"478 72 OFFCURVE",
"478 104 CURVE SMOOTH",
"478 113 OFFCURVE",
"479 127 OFFCURVE",
"482 143 CURVE SMOOTH"
);
},
{
closed = 1;
nodes = (
"318 420 LINE SMOOTH",
"376 420 OFFCURVE",
"420 377 OFFCURVE",
"420 277 CURVE SMOOTH",
"420 142 OFFCURVE",
"339 70 OFFCURVE",
"263 70 CURVE SMOOTH",
"193 70 OFFCURVE",
"164 130 OFFCURVE",
"164 205 CURVE SMOOTH",
"164 319 OFFCURVE",
"230 420 OFFCURVE",
"318 420 CURVE SMOOTH"
);
}
);
width = 535;
},
{
background = {
paths = (
{
closed = 1;
nodes = (
"582 500 LINE",
"468 500 LINE",
"454 475 LINE",
"429 496 OFFCURVE",
"403 508 OFFCURVE",
"353 508 CURVE SMOOTH",
"171 508 OFFCURVE",
"63 359 OFFCURVE",
"63 200 CURVE SMOOTH",
"63 85 OFFCURVE",
"126 -10 OFFCURVE",
"261 -10 CURVE SMOOTH",
"312 -10 OFFCURVE",
"366 19 OFFCURVE",
"395 48 CURVE",
"420 0 OFFCURVE",
"439 -10 OFFCURVE",
"541 -10 CURVE",
"569 92 LINE",
"533 92 OFFCURVE",
"520 92 OFFCURVE",
"520 119 CURVE SMOOTH",
"520 128 OFFCURVE",
"521 141 OFFCURVE",
"524 158 CURVE SMOOTH"
);
},
{
closed = 1;
nodes = (
"402 406 OFFCURVE",
"425 362 OFFCURVE",
"425 298 CURVE SMOOTH",
"425 215 OFFCURVE",
"404 92 OFFCURVE",
"287 92 CURVE SMOOTH",
"224 92 OFFCURVE",
"192 141 OFFCURVE",
"192 212 CURVE SMOOTH",
"192 320 OFFCURVE",
"251 406 OFFCURVE",
"343 406 CURVE SMOOTH"
);
}
);
};
layerId = "D879A026-05F7-4E99-AC55-D533E46CE7AB";
paths = (
{
closed = 1;
nodes = (
"582 500 LINE",
"468 500 LINE",
"454 475 LINE",
"429 496 OFFCURVE",
"403 508 OFFCURVE",
"352 508 CURVE SMOOTH",
"171 508 OFFCURVE",
"63 357 OFFCURVE",
"63 204 CURVE SMOOTH",
"63 81 OFFCURVE",
"133 -10 OFFCURVE",
"252 -10 CURVE SMOOTH",
"322 -10 OFFCURVE",
"366 21 OFFCURVE",
"395 48 CURVE",
"420 0 OFFCURVE",
"439 -10 OFFCURVE",
"541 -10 CURVE",
"569 92 LINE",
"532 92 OFFCURVE",
"520 92 OFFCURVE",
"520 120 CURVE SMOOTH",
"520 128 OFFCURVE",
"521 141 OFFCURVE",
"524 158 CURVE SMOOTH"
);
},
{
closed = 1;
nodes = (
"341 406 LINE SMOOTH",
"405 406 OFFCURVE",
"425 362 OFFCURVE",
"425 292 CURVE SMOOTH",
"425 216 OFFCURVE",
"401 92 OFFCURVE",
"290 92 CURVE SMOOTH",
"221 92 OFFCURVE",
"192 141 OFFCURVE",
"192 214 CURVE SMOOTH",
"192 319 OFFCURVE",
"252 406 OFFCURVE",
"341 406 CURVE SMOOTH"
);
}
);
width = 561;
}
);
leftKerningGroup = a;
rightKerningGroup = a;
unicode = 0061;
},
{
glyphname = acute;
lastChange = "2016-08-23 13:01:52 +0000";
layers = (
{
background = {
paths = (
{
closed = 1;
nodes = (
"337 660 LINE",
"349 732 LINE",
"164 637 LINE",
"157 596 LINE"
);
}
);
};
layerId = UUID0;
paths = (
{
closed = 1;
nodes = (
"337 660 LINE",
"349 732 LINE",
"164 637 LINE",
"157 596 LINE"
);
}
);
width = 272;
},
{
background = {
paths = (
{
closed = 1;
nodes = (
"349 646 LINE",
"368 750 LINE",
"172 659 LINE",
"159 585 LINE"
);
}
);
};
layerId = "D879A026-05F7-4E99-AC55-D533E46CE7AB";
paths = (
{
closed = 1;
nodes = (
"349 646 LINE",
"368 750 LINE",
"172 659 LINE",
"159 585 LINE"
);
}
);
width = 291;
}
);
unicode = 00B4;
},
{
glyphname = ae;
lastChange = "2016-08-23 13:01:52 +0000";
layers = (
{
background = {
paths = (
{
closed = 1;
nodes = (
"728 245 LINE",
"738 275 OFFCURVE",
"747 304 OFFCURVE",
"747 343 CURVE SMOOTH",
"747 444 OFFCURVE",
"692 500 OFFCURVE",
"604 500 CURVE SMOOTH",
"532 500 OFFCURVE",
"456 469 OFFCURVE",
"418 380 CURVE",
"418 481 OFFCURVE",
"349 500 OFFCURVE",
"299 500 CURVE SMOOTH",
"253 500 OFFCURVE",
"200 487 OFFCURVE",
"144 461 CURVE",
"140 391 LINE",
"185 410 OFFCURVE",
"220 420 OFFCURVE",
"259 420 CURVE SMOOTH",
"324 420 OFFCURVE",
"344 387 OFFCURVE",
"338 307 CURVE",
"225 300 OFFCURVE",
"36 266 OFFCURVE",
"36 93 CURVE SMOOTH",
"36 28 OFFCURVE",
"75 -14 OFFCURVE",
"155 -14 CURVE SMOOTH",
"238 -14 OFFCURVE",
"311 25 OFFCURVE",
"358 103 CURVE",
"376 22 OFFCURVE",
"432 -10 OFFCURVE",
"519 -10 CURVE SMOOTH",
"580 -10 OFFCURVE",
"629 8 OFFCURVE",
"674 30 CURVE",
"674 99 LINE",
"625 76 OFFCURVE",
"584 62 OFFCURVE",
"541 62 CURVE SMOOTH",
"463 62 OFFCURVE",
"413 122 OFFCURVE",
"431 245 CURVE"
);
},
{
closed = 1;
nodes = (
"648 420 OFFCURVE",
"673 386 OFFCURVE",
"659 307 CURVE",
"448 307 LINE",
"478 387 OFFCURVE",
"527 420 OFFCURVE",
"586 420 CURVE SMOOTH"
);
},
{
closed = 1;
nodes = (
"332 227 OFFCURVE",
"329 211 OFFCURVE",
"327 198 CURVE SMOOTH",
"309 97 OFFCURVE",
"240 62 OFFCURVE",
"188 62 CURVE SMOOTH",
"156 62 OFFCURVE",
"132 76 OFFCURVE",
"132 112 CURVE SMOOTH",
"132 211 OFFCURVE",
"252 245 OFFCURVE",
"334 245 CURVE"
);
}
);
};
layerId = UUID0;
paths = (
{
closed = 1;
nodes = (
"728 245 LINE",
"738 275 OFFCURVE",
"747 304 OFFCURVE",
"747 343 CURVE SMOOTH",
"747 444 OFFCURVE",
"692 500 OFFCURVE",
"604 500 CURVE SMOOTH",
"532 500 OFFCURVE",
"456 469 OFFCURVE",
"418 380 CURVE",
"418 481 OFFCURVE",
"349 500 OFFCURVE",
"299 500 CURVE SMOOTH",
"253 500 OFFCURVE",
"200 487 OFFCURVE",
"144 461 CURVE",
"140 391 LINE",
"185 410 OFFCURVE",
"220 420 OFFCURVE",
"259 420 CURVE SMOOTH",
"324 420 OFFCURVE",
"338 387 OFFCURVE",
"338 307 CURVE",
"225 300 OFFCURVE",
"36 266 OFFCURVE",
"36 93 CURVE SMOOTH",
"36 28 OFFCURVE",
"75 -14 OFFCURVE",
"155 -14 CURVE SMOOTH",
"238 -14 OFFCURVE",
"311 25 OFFCURVE",
"358 103 CURVE",
"376 22 OFFCURVE",
"432 -10 OFFCURVE",
"519 -10 CURVE SMOOTH",
"580 -10 OFFCURVE",
"629 8 OFFCURVE",
"674 30 CURVE",
"674 99 LINE",
"625 76 OFFCURVE",
"584 62 OFFCURVE",
"541 62 CURVE SMOOTH",
"474 62 OFFCURVE",
"427 107 OFFCURVE",
"427 198 CURVE SMOOTH",
"427 213 OFFCURVE",
"429 228 OFFCURVE",
"431 245 CURVE"
);
},
{
closed = 1;
nodes = (
"586 420 LINE SMOOTH",
"636 420 OFFCURVE",
"662 398 OFFCURVE",
"663 348 CURVE SMOOTH",
"663 336 OFFCURVE",
"662 322 OFFCURVE",
"659 307 CURVE",
"448 307 LINE",
"478 387 OFFCURVE",
"527 420 OFFCURVE",
"586 420 CURVE SMOOTH"
);
},
{
closed = 1;
nodes = (
"334 245 LINE",
"332 227 OFFCURVE",
"329 211 OFFCURVE",
"327 198 CURVE SMOOTH",
"309 97 OFFCURVE",
"240 62 OFFCURVE",
"188 62 CURVE SMOOTH",
"156 62 OFFCURVE",
"132 76 OFFCURVE",
"132 112 CURVE SMOOTH",
"132 211 OFFCURVE",
"252 245 OFFCURVE",
"334 245 CURVE"
);
}
);
width = 714;
},
{
background = {
paths = (
{
closed = 1;
nodes = (
"767 223 LINE",
"786 272 OFFCURVE",
"792 299 OFFCURVE",
"792 335 CURVE SMOOTH",
"792 440 OFFCURVE",
"730 508 OFFCURVE",
"634 508 CURVE SMOOTH",
"550 508 OFFCURVE",
"475 462 OFFCURVE",
"454 419 CURVE",
"443 488 OFFCURVE",
"404 508 OFFCURVE",
"326 508 CURVE SMOOTH",
"267 508 OFFCURVE",
"204 493 OFFCURVE",
"141 464 CURVE",
"134 363 LINE",
"191 389 OFFCURVE",
"231 401 OFFCURVE",
"275 401 CURVE SMOOTH",
"337 401 OFFCURVE",
"352 375 OFFCURVE",
"343 314 CURVE",
"242 309 OFFCURVE",
"39 277 OFFCURVE",
"39 102 CURVE SMOOTH",
"39 30 OFFCURVE",
"87 -15 OFFCURVE",
"176 -15 CURVE SMOOTH",
"266 -15 OFFCURVE",
"324 28 OFFCURVE",
"378 84 CURVE",
"397 28 OFFCURVE",
"455 -10 OFFCURVE",
"553 -10 CURVE SMOOTH",
"621 -10 OFFCURVE",
"681 8 OFFCURVE",
"720 28 CURVE",
"734 133 LINE",
"693 111 OFFCURVE",
"621 92 OFFCURVE",
"576 92 CURVE SMOOTH",
"517 92 OFFCURVE",
"464 130 OFFCURVE",
"465 223 CURVE"
);
},
{
closed = 1;
nodes = (
"678 406 OFFCURVE",
"687 352 OFFCURVE",
"679 307 CURVE",
"482 307 LINE",
"502 365 OFFCURVE",
"555 406 OFFCURVE",
"612 406 CURVE SMOOTH"
);
},
{
closed = 1;
nodes = (
"334 219 OFFCURVE",
"333 213 OFFCURVE",
"331 202 CURVE SMOOTH",
"317 122 OFFCURVE",
"259 81 OFFCURVE",
"219 81 CURVE SMOOTH",
"193 81 OFFCURVE",
"173 99 OFFCURVE",
"173 128 CURVE SMOOTH",
"173 201 OFFCURVE",
"271 229 OFFCURVE",
"335 230 CURVE"
);
}
);
};
layerId = "D879A026-05F7-4E99-AC55-D533E46CE7AB";
paths = (
{
closed = 1;
nodes = (
"767 223 LINE",
"786 272 OFFCURVE",
"792 299 OFFCURVE",
"792 335 CURVE SMOOTH",
"792 440 OFFCURVE",
"730 508 OFFCURVE",
"634 508 CURVE SMOOTH",
"550 508 OFFCURVE",
"475 462 OFFCURVE",
"454 419 CURVE",
"443 488 OFFCURVE",
"404 508 OFFCURVE",
"326 508 CURVE SMOOTH",
"267 508 OFFCURVE",
"204 493 OFFCURVE",
"141 464 CURVE",
"134 363 LINE",
"191 389 OFFCURVE",
"231 401 OFFCURVE",
"275 401 CURVE SMOOTH",
"337 401 OFFCURVE",
"343 375 OFFCURVE",
"343 314 CURVE",
"242 309 OFFCURVE",
"39 277 OFFCURVE",
"39 102 CURVE SMOOTH",
"39 30 OFFCURVE",
"87 -15 OFFCURVE",
"176 -15 CURVE SMOOTH",
"266 -15 OFFCURVE",
"324 28 OFFCURVE",
"378 84 CURVE",
"397 28 OFFCURVE",
"455 -10 OFFCURVE",
"553 -10 CURVE SMOOTH",
"621 -10 OFFCURVE",
"681 8 OFFCURVE",
"720 28 CURVE",
"734 133 LINE",
"693 111 OFFCURVE",
"621 92 OFFCURVE",
"576 92 CURVE SMOOTH",
"525 92 OFFCURVE",
"479 121 OFFCURVE",
"468 188 CURVE SMOOTH",
"466 199 OFFCURVE",
"465 210 OFFCURVE",
"465 223 CURVE"
);
},
{
closed = 1;
nodes = (
"612 406 LINE SMOOTH",
"665 406 OFFCURVE",
"681 370 OFFCURVE",
"681 333 CURVE SMOOTH",
"681 324 OFFCURVE",
"681 316 OFFCURVE",
"679 307 CURVE",
"482 307 LINE",
"502 365 OFFCURVE",
"555 406 OFFCURVE",
"612 406 CURVE SMOOTH"
);
},
{
closed = 1;
nodes = (
"335 230 LINE",
"334 219 OFFCURVE",
"333 213 OFFCURVE",
"331 202 CURVE SMOOTH",
"317 122 OFFCURVE",
"259 81 OFFCURVE",
"219 81 CURVE SMOOTH",
"193 81 OFFCURVE",
"173 99 OFFCURVE",
"173 128 CURVE SMOOTH",
"173 201 OFFCURVE",
"271 229 OFFCURVE",
"335 230 CURVE"
);
}
);
width = 763;
}
);
leftKerningGroup = a;
rightKerningGroup = e;
unicode = 00E6;
},
{
glyphname = ampersand;
lastChange = "2016-08-23 13:01:52 +0000";
layers = (
{
background = {
paths = (
{
closed = 1;
nodes = (
"540 0 LINE",
"475 100 LINE",
"534 184 OFFCURVE",
"561 292 OFFCURVE",
"573 351 CURVE",
"489 351 LINE",
"480 309 OFFCURVE",
"455 197 OFFCURVE",
"429 161 CURVE",
"306 356 LINE",
"394 412 OFFCURVE",
"489 494 OFFCURVE",
"489 600 CURVE SMOOTH",
"489 658 OFFCURVE",
"454 703 OFFCURVE",
"376 703 CURVE SMOOTH",
"269 703 OFFCURVE",
"166 629 OFFCURVE",
"166 512 CURVE SMOOTH",
"166 473 OFFCURVE",
"179 422 OFFCURVE",
"206 366 CURVE",
"106 291 OFFCURVE",
"54 221 OFFCURVE",
"54 129 CURVE SMOOTH",
"54 44 OFFCURVE",
"106 -23 OFFCURVE",
"235 -23 CURVE SMOOTH",
"305 -23 OFFCURVE",
"356 -6 OFFCURVE",
"415 46 CURVE",
"443 0 LINE"
);
},
{
closed = 1;
nodes = (
"388 634 OFFCURVE",
"408 613 OFFCURVE",
"408 576 CURVE SMOOTH",
"408 505 OFFCURVE",
"359 476 OFFCURVE",
"277 406 CURVE",
"257 447 OFFCURVE",
"251 486 OFFCURVE",
"251 513 CURVE SMOOTH",
"251 592 OFFCURVE",
"302 634 OFFCURVE",
"354 634 CURVE SMOOTH"
);
},
{
closed = 1;
nodes = (
"380 105 LINE",
"347 69 OFFCURVE",
"307 45 OFFCURVE",
"253 45 CURVE SMOOTH",
"176 45 OFFCURVE",
"146 89 OFFCURVE",
"146 144 CURVE SMOOTH",
"146 212 OFFCURVE",
"187 274 OFFCURVE",
"239 313 CURVE"
);
}
);
};
layerId = UUID0;
paths = (
{
closed = 1;
nodes = (
"540 0 LINE",
"475 100 LINE",
"534 184 OFFCURVE",
"561 292 OFFCURVE",
"573 351 CURVE",
"489 351 LINE",
"480 309 OFFCURVE",
"455 197 OFFCURVE",
"429 161 CURVE",
"306 356 LINE",
"393 411 OFFCURVE",
"489 495 OFFCURVE",
"489 598 CURVE SMOOTH",
"489 660 OFFCURVE",
"454 703 OFFCURVE",
"374 703 CURVE SMOOTH",
"270 703 OFFCURVE",
"166 629 OFFCURVE",
"166 513 CURVE SMOOTH",
"166 472 OFFCURVE",
"179 422 OFFCURVE",
"206 366 CURVE",
"106 291 OFFCURVE",
"54 220 OFFCURVE",
"54 131 CURVE SMOOTH",
"54 42 OFFCURVE",
"106 -23 OFFCURVE",
"237 -23 CURVE SMOOTH",
"304 -23 OFFCURVE",
"356 -6 OFFCURVE",
"415 46 CURVE",
"443 0 LINE"
);
},
{
closed = 1;
nodes = (
"353 634 LINE",
"388 634 OFFCURVE",
"408 615 OFFCURVE",
"408 574 CURVE SMOOTH",
"408 505 OFFCURVE",
"353 471 OFFCURVE",
"277 406 CURVE",
"257 447 OFFCURVE",
"251 486 OFFCURVE",
"251 513 CURVE SMOOTH",
"251 592 OFFCURVE",
"302 634 OFFCURVE",
"353 634 CURVE SMOOTH"
);
},
{
closed = 1;
nodes = (
"380 105 LINE",
"347 69 OFFCURVE",
"308 45 OFFCURVE",
"252 45 CURVE SMOOTH",
"176 45 OFFCURVE",
"146 89 OFFCURVE",
"146 145 CURVE SMOOTH",
"146 212 OFFCURVE",
"188 275 OFFCURVE",
"239 313 CURVE"
);
}
);
width = 565;
},
{
background = {
paths = (
{
closed = 1;
nodes = (
"604 0 LINE",
"522 120 LINE",
"575 200 OFFCURVE",
"598 295 OFFCURVE",
"607 352 CURVE",
"487 352 LINE",
"479 309 OFFCURVE",
"471 258 OFFCURVE",
"457 211 CURVE",
"359 371 LINE",
"444 428 OFFCURVE",
"528 481 OFFCURVE",
"528 585 CURVE SMOOTH",
"528 655 OFFCURVE",
"481 703 OFFCURVE",
"395 703 CURVE SMOOTH",
"285 703 OFFCURVE",
"167 632 OFFCURVE",
"167 513 CURVE SMOOTH",
"167 461 OFFCURVE",
"189 409 OFFCURVE",
"212 367 CURVE",
"135 312 OFFCURVE",
"57 247 OFFCURVE",
"57 138 CURVE SMOOTH",
"57 52 OFFCURVE",
"114 -24 OFFCURVE",
"250 -24 CURVE SMOOTH",
"329 -24 OFFCURVE",
"390 -1 OFFCURVE",
"436 34 CURVE",
"458 0 LINE"
);
},
{
closed = 1;
nodes = (
"399 604 OFFCURVE",
"415 592 OFFCURVE",
"415 561 CURVE SMOOTH",
"415 506 OFFCURVE",
"371 470 OFFCURVE",
"318 432 CURVE",
"301 464 OFFCURVE",
"291 491 OFFCURVE",
"291 518 CURVE SMOOTH",
"291 574 OFFCURVE",
"327 604 OFFCURVE",
"373 604 CURVE SMOOTH"
);
},
{
closed = 1;
nodes = (
"386 105 LINE",
"360 84 OFFCURVE",
"327 71 OFFCURVE",
"285 71 CURVE SMOOTH",
"210 71 OFFCURVE",
"190 113 OFFCURVE",
"190 155 CURVE SMOOTH",
"190 214 OFFCURVE",
"218 258 OFFCURVE",
"259 300 CURVE"
);
}
);
};
layerId = "D879A026-05F7-4E99-AC55-D533E46CE7AB";
paths = (
{
closed = 1;
nodes = (
"604 0 LINE",
"522 120 LINE",
"575 200 OFFCURVE",
"598 295 OFFCURVE",
"607 352 CURVE",
"487 352 LINE",
"479 309 OFFCURVE",
"471 258 OFFCURVE",
"457 211 CURVE",
"359 371 LINE",
"435 421 OFFCURVE",
"528 479 OFFCURVE",
"528 583 CURVE SMOOTH",
"528 657 OFFCURVE",
"481 703 OFFCURVE",
"394 703 CURVE SMOOTH",
"285 703 OFFCURVE",
"167 632 OFFCURVE",
"167 513 CURVE SMOOTH",
"167 461 OFFCURVE",
"189 409 OFFCURVE",
"212 367 CURVE",
"136 313 OFFCURVE",
"57 246 OFFCURVE",
"57 140 CURVE SMOOTH",
"57 50 OFFCURVE",
"114 -24 OFFCURVE",
"251 -24 CURVE SMOOTH",
"328 -24 OFFCURVE",
"390 -1 OFFCURVE",
"436 34 CURVE",
"458 0 LINE"
);
},
{
closed = 1;
nodes = (
"372 604 LINE",
"399 604 OFFCURVE",
"415 593 OFFCURVE",
"415 560 CURVE SMOOTH",
"415 506 OFFCURVE",
"371 470 OFFCURVE",
"318 432 CURVE",
"301 464 OFFCURVE",
"291 491 OFFCURVE",
"291 519 CURVE SMOOTH",
"291 574 OFFCURVE",
"328 604 OFFCURVE",
"372 604 CURVE SMOOTH"
);
},
{
closed = 1;
nodes = (
"386 105 LINE",
"360 84 OFFCURVE",
"327 71 OFFCURVE",
"285 71 CURVE SMOOTH",
"209 71 OFFCURVE",
"190 113 OFFCURVE",
"190 158 CURVE SMOOTH",
"190 213 OFFCURVE",
"218 258 OFFCURVE",
"259 300 CURVE"
);
}
);
width = 601;
}
);
unicode = 0026;
},
{
glyphname = asciicircum;
lastChange = "2016-08-23 13:01:52 +0000";
layers = (
{
background = {
paths = (
{
closed = 1;
nodes = (
"492 437 LINE",
"510 543 LINE",
"363 759 LINE",
"140 543 LINE",
"121 437 LINE",
"344 653 LINE"
);
}
);
};
layerId = UUID0;
paths = (
{
closed = 1;
nodes = (
"492 437 LINE",
"510 543 LINE",
"363 759 LINE",
"140 543 LINE",
"121 437 LINE",
"344 653 LINE"
);
}
);
width = 459;
},
{
background = {
paths = (
{
closed = 1;
nodes = (
"514 400 LINE",
"539 547 LINE",
"379 759 LINE",
"144 547 LINE",
"118 400 LINE",
"353 612 LINE"
);
}
);
};
layerId = "D879A026-05F7-4E99-AC55-D533E46CE7AB";
paths = (
{
closed = 1;
nodes = (
"514 400 LINE",
"539 547 LINE",
"379 759 LINE",
"144 547 LINE",
"118 400 LINE",
"353 612 LINE"
);
}
);
width = 491;
}
);
unicode = 005E;
},
{
glyphname = asciitilde;
lastChange = "2016-08-23 13:01:52 +0000";
layers = (
{
background = {
paths = (
{
closed = 1;
nodes = (
"381 179 OFFCURVE",
"425 215 OFFCURVE",
"447 273 CURVE",
"406 282 LINE",
"388 250 OFFCURVE",
"366 231 OFFCURVE",
"338 231 CURVE SMOOTH",
"306 231 OFFCURVE",
"269 280 OFFCURVE",
"227 280 CURVE SMOOTH",
"190 280 OFFCURVE",
"135 256 OFFCURVE",
"112 190 CURVE",
"156 181 LINE",
"170 211 OFFCURVE",
"190 230 OFFCURVE",
"222 230 CURVE SMOOTH",
"253 230 OFFCURVE",
"292 179 OFFCURVE",
"331 179 CURVE SMOOTH"
);
}
);
};
layerId = UUID0;
paths = (
{
closed = 1;
nodes = (
"331 179 LINE SMOOTH",
"381 179 OFFCURVE",
"425 215 OFFCURVE",
"447 273 CURVE",
"406 282 LINE",
"388 250 OFFCURVE",
"366 231 OFFCURVE",
"338 231 CURVE SMOOTH",
"306 231 OFFCURVE",
"269 280 OFFCURVE",
"227 280 CURVE SMOOTH",
"190 280 OFFCURVE",
"135 256 OFFCURVE",
"112 190 CURVE",
"156 181 LINE",
"170 211 OFFCURVE",
"190 230 OFFCURVE",
"222 230 CURVE SMOOTH",
"253 230 OFFCURVE",
"292 179 OFFCURVE",
"331 179 CURVE SMOOTH"
);
}
);
width = 416;
},
{
background = {
paths = (
{
closed = 1;
nodes = (
"420 176 OFFCURVE",
"470 228 OFFCURVE",
"485 278 CURVE",
"409 298 LINE",
"404 278 OFFCURVE",
"377 251 OFFCURVE",
"348 251 CURVE SMOOTH",
"311 251 OFFCURVE",
"306 293 OFFCURVE",
"245 293 CURVE SMOOTH",
"189 293 OFFCURVE",
"121 258 OFFCURVE",
"104 191 CURVE",
"187 171 LINE",
"194 191 OFFCURVE",
"211 218 OFFCURVE",
"238 218 CURVE SMOOTH",
"276 218 OFFCURVE",
"298 176 OFFCURVE",
"352 176 CURVE SMOOTH"
);
}
);
};
layerId = "D879A026-05F7-4E99-AC55-D533E46CE7AB";
paths = (
{
closed = 1;
nodes = (
"352 176 LINE SMOOTH",
"420 176 OFFCURVE",
"470 228 OFFCURVE",
"485 278 CURVE",
"409 298 LINE",
"404 278 OFFCURVE",
"377 251 OFFCURVE",
"348 251 CURVE SMOOTH",
"311 251 OFFCURVE",
"306 293 OFFCURVE",
"245 293 CURVE SMOOTH",
"189 293 OFFCURVE",
"121 258 OFFCURVE",
"104 191 CURVE",
"187 171 LINE",
"194 191 OFFCURVE",
"211 218 OFFCURVE",
"238 218 CURVE SMOOTH",
"276 218 OFFCURVE",
"298 176 OFFCURVE",
"352 176 CURVE SMOOTH"
);
}
);
width = 442;
}
);
unicode = 007E;
},
{
glyphname = asterisk;
lastChange = "2016-08-23 13:01:52 +0000";
layers = (
{
background = {
paths = (
{
closed = 1;
nodes = (
"365 427 LINE",
"411 459 LINE",
"327 574 LINE",
"481 637 LINE",
"461 679 LINE",
"316 593 LINE",
"363 749 LINE",
"308 749 LINE",
"299 593 LINE",
"185 679 LINE",
"150 638 LINE",
"281 573 LINE",
"159 456 LINE",
"192 424 LINE",
"302 560 LINE"
);
}
);
};
layerId = UUID0;
paths = (
{
closed = 1;
nodes = (
"365 427 LINE",
"411 459 LINE",
"327 574 LINE",
"481 637 LINE",
"461 679 LINE",
"316 593 LINE",
"363 749 LINE",
"308 749 LINE",
"299 593 LINE",
"185 679 LINE",
"150 638 LINE",
"281 573 LINE",
"159 456 LINE",
"192 424 LINE",
"302 560 LINE"
);
}
);
width = 406;
},
{
background = {
paths = (
{
closed = 1;
nodes = (
"369 412 LINE",
"450 477 LINE",
"350 567 LINE",
"511 617 LINE",
"477 699 LINE",
"332 592 LINE",
"397 749 LINE",
"299 749 LINE",
"309 592 LINE",
"202 699 LINE",
"139 617 LINE",
"286 565 LINE",
"152 474 LINE",
"210 409 LINE",
"315 549 LINE"
);
}
);
};
layerId = "D879A026-05F7-4E99-AC55-D533E46CE7AB";
paths = (
{
closed = 1;
nodes = (
"369 412 LINE",
"450 477 LINE",
"350 567 LINE",
"511 617 LINE",
"477 699 LINE",
"332 592 LINE",
"397 749 LINE",
"299 749 LINE",
"309 592 LINE",
"202 699 LINE",
"139 617 LINE",
"286 565 LINE",
"152 474 LINE",
"210 409 LINE",
"315 549 LINE"
);
}
);
width = 432;
}
);
unicode = 002A;
},
{
glyphname = at;
lastChange = "2016-08-23 13:01:52 +0000";
layers = (
{
background = {
paths = (
{
closed = 1;
nodes = (
"502 254 OFFCURVE",
"458 187 OFFCURVE",
"458 128 CURVE SMOOTH",
"458 98 OFFCURVE",
"471 94 OFFCURVE",
"490 94 CURVE SMOOTH",
"606 94 OFFCURVE",
"660 244 OFFCURVE",
"660 353 CURVE SMOOTH",
"660 475 OFFCURVE",
"594 553 OFFCURVE",
"474 553 CURVE SMOOTH",
"270 553 OFFCURVE",
"61 356 OFFCURVE",
"61 114 CURVE SMOOTH",
"61 -12 OFFCURVE",
"129 -87 OFFCURVE",
"245 -87 CURVE SMOOTH",
"370 -87 OFFCURVE",
"498 -8 OFFCURVE",
"574 106 CURVE",
"540 73 OFFCURVE",
"479 42 OFFCURVE",
"446 42 CURVE SMOOTH",
"415 42 OFFCURVE",
"406 74 OFFCURVE",
"406 102 CURVE SMOOTH",
"406 128 OFFCURVE",
"415 146 OFFCURVE",
"417 156 CURVE",
"365 81 OFFCURVE",
"287 40 OFFCURVE",
"234 40 CURVE SMOOTH",
"186 40 OFFCURVE",
"169 80 OFFCURVE",
"169 124 CURVE SMOOTH",
"169 267 OFFCURVE",
"328 432 OFFCURVE",
"451 432 CURVE SMOOTH",
"501 432 OFFCURVE",
"533 405 OFFCURVE",
"551 379 CURVE"
);
},
{
closed = 1;
nodes = (
"376 371 OFFCURVE",
"245 269 OFFCURVE",
"245 152 CURVE SMOOTH",
"245 126 OFFCURVE",
"254 106 OFFCURVE",
"276 106 CURVE SMOOTH",
"336 106 OFFCURVE",
"449 242 OFFCURVE",
"485 349 CURVE",
"481 370 OFFCURVE",
"458 371 OFFCURVE",
"448 371 CURVE SMOOTH"
);
}
);
};
layerId = UUID0;
paths = (
{
closed = 1;
nodes = (
"551 379 LINE",
"502 254 OFFCURVE",
"458 187 OFFCURVE",
"458 128 CURVE SMOOTH",
"458 98 OFFCURVE",
"471 94 OFFCURVE",
"490 94 CURVE SMOOTH",
"606 94 OFFCURVE",
"660 244 OFFCURVE",
"660 353 CURVE SMOOTH",
"660 475 OFFCURVE",
"594 553 OFFCURVE",
"474 553 CURVE SMOOTH",
"270 553 OFFCURVE",
"61 356 OFFCURVE",
"61 114 CURVE SMOOTH",
"61 -12 OFFCURVE",
"129 -87 OFFCURVE",
"245 -87 CURVE SMOOTH",
"370 -87 OFFCURVE",
"498 -8 OFFCURVE",
"574 106 CURVE",
"540 73 OFFCURVE",
"479 42 OFFCURVE",
"446 42 CURVE SMOOTH",
"415 42 OFFCURVE",
"406 74 OFFCURVE",
"406 102 CURVE SMOOTH",
"406 128 OFFCURVE",
"415 146 OFFCURVE",
"417 156 CURVE",
"365 81 OFFCURVE",
"287 40 OFFCURVE",
"234 40 CURVE SMOOTH",
"186 40 OFFCURVE",
"169 80 OFFCURVE",
"169 124 CURVE SMOOTH",
"169 267 OFFCURVE",
"328 432 OFFCURVE",
"451 432 CURVE SMOOTH",
"501 432 OFFCURVE",
"533 405 OFFCURVE",
"551 379 CURVE"
);
},
{
closed = 1;
nodes = (
"448 371 LINE SMOOTH",
"376 371 OFFCURVE",
"245 269 OFFCURVE",
"245 152 CURVE SMOOTH",
"245 126 OFFCURVE",
"254 106 OFFCURVE",
"276 106 CURVE SMOOTH",
"336 106 OFFCURVE",
"449 242 OFFCURVE",
"485 349 CURVE",
"481 370 OFFCURVE",
"458 371 OFFCURVE",
"448 371 CURVE SMOOTH"
);
}
);
width = 637;
},
{
background = {
paths = (
{
closed = 1;
nodes = (
"532 255 OFFCURVE",
"486 188 OFFCURVE",
"486 128 CURVE SMOOTH",
"486 99 OFFCURVE",
"500 94 OFFCURVE",
"520 94 CURVE SMOOTH",
"642 94 OFFCURVE",
"699 241 OFFCURVE",
"699 350 CURVE SMOOTH",
"699 474 OFFCURVE",
"628 553 OFFCURVE",
"498 553 CURVE SMOOTH",
"282 553 OFFCURVE",
"63 358 OFFCURVE",
"63 117 CURVE SMOOTH",
"63 -11 OFFCURVE",
"136 -87 OFFCURVE",
"262 -87 CURVE SMOOTH",
"395 -87 OFFCURVE",
"530 -8 OFFCURVE",
"611 106 CURVE",
"574 73 OFFCURVE",
"509 42 OFFCURVE",
"475 42 CURVE SMOOTH",
"441 42 OFFCURVE",
"431 75 OFFCURVE",
"431 103 CURVE SMOOTH",
"431 128 OFFCURVE",
"440 146 OFFCURVE",
"442 156 CURVE",
"387 81 OFFCURVE",
"304 40 OFFCURVE",
"249 40 CURVE SMOOTH",
"197 40 OFFCURVE",
"178 80 OFFCURVE",
"178 126 CURVE SMOOTH",
"178 269 OFFCURVE",
"344 432 OFFCURVE",
"475 432 CURVE SMOOTH",
"528 432 OFFCURVE",
"563 405 OFFCURVE",
"582 379 CURVE"
);
},
{
closed = 1;
nodes = (
"396 371 OFFCURVE",
"259 270 OFFCURVE",
"259 153 CURVE SMOOTH",
"259 126 OFFCURVE",
"269 106 OFFCURVE",
"292 106 CURVE SMOOTH",
"356 106 OFFCURVE",
"475 242 OFFCURVE",
"512 349 CURVE",
"508 370 OFFCURVE",
"484 371 OFFCURVE",
"473 371 CURVE SMOOTH"
);
}
);
};
layerId = "D879A026-05F7-4E99-AC55-D533E46CE7AB";
paths = (
{
closed = 1;
nodes = (
"582 379 LINE",
"532 255 OFFCURVE",
"486 188 OFFCURVE",
"486 128 CURVE SMOOTH",
"486 99 OFFCURVE",
"500 94 OFFCURVE",
"520 94 CURVE SMOOTH",
"642 94 OFFCURVE",
"699 241 OFFCURVE",
"699 350 CURVE SMOOTH",
"699 474 OFFCURVE",
"628 553 OFFCURVE",
"498 553 CURVE SMOOTH",
"282 553 OFFCURVE",
"63 358 OFFCURVE",
"63 117 CURVE SMOOTH",
"63 -11 OFFCURVE",
"136 -87 OFFCURVE",
"262 -87 CURVE SMOOTH",
"395 -87 OFFCURVE",
"530 -8 OFFCURVE",
"611 106 CURVE",
"574 73 OFFCURVE",
"509 42 OFFCURVE",
"475 42 CURVE SMOOTH",
"441 42 OFFCURVE",
"431 75 OFFCURVE",
"431 103 CURVE SMOOTH",
"431 128 OFFCURVE",
"440 146 OFFCURVE",
"442 156 CURVE",
"387 81 OFFCURVE",
"304 40 OFFCURVE",
"249 40 CURVE SMOOTH",
"197 40 OFFCURVE",
"178 80 OFFCURVE",
"178 126 CURVE SMOOTH",
"178 269 OFFCURVE",
"344 432 OFFCURVE",
"475 432 CURVE SMOOTH",
"528 432 OFFCURVE",
"563 405 OFFCURVE",
"582 379 CURVE"
);
},
{
closed = 1;
nodes = (
"473 371 LINE SMOOTH",
"396 371 OFFCURVE",
"259 270 OFFCURVE",
"259 153 CURVE SMOOTH",
"259 126 OFFCURVE",
"269 106 OFFCURVE",
"292 106 CURVE SMOOTH",
"356 106 OFFCURVE",
"475 242 OFFCURVE",
"512 349 CURVE",
"508 370 OFFCURVE",
"484 371 OFFCURVE",
"473 371 CURVE SMOOTH"
);
}
);
width = 679;
}
);
unicode = 0040;
},
{
glyphname = b;
lastChange = "2016-08-23 13:01:52 +0000";
layers = (
{
background = {
paths = (
{
closed = 1;
nodes = (
"408 -10 OFFCURVE",
"524 130 OFFCURVE",
"524 294 CURVE SMOOTH",
"524 405 OFFCURVE",
"468 500 OFFCURVE",
"358 500 CURVE SMOOTH",
"316 500 OFFCURVE",
"264 488 OFFCURVE",
"220 437 CURVE",
"275 750 LINE",
"184 750 LINE",
"52 0 LINE",
"134 0 LINE",
"152 62 LINE",
"176 14 OFFCURVE",
"224 -10 OFFCURVE",
"267 -10 CURVE SMOOTH"
);
},
{
closed = 1;
nodes = (
"397 420 OFFCURVE",
"430 363 OFFCURVE",
"430 286 CURVE SMOOTH",
"430 173 OFFCURVE",
"363 70 OFFCURVE",
"273 70 CURVE SMOOTH",
"217 70 OFFCURVE",
"176 110 OFFCURVE",
"176 199 CURVE SMOOTH",
"176 343 OFFCURVE",
"253 420 OFFCURVE",
"335 420 CURVE SMOOTH"
);
}
);
};
layerId = UUID0;
paths = (
{
closed = 1;
nodes = (
"273 -10 LINE SMOOTH",
"404 -10 OFFCURVE",
"524 130 OFFCURVE",
"524 294 CURVE SMOOTH",
"524 405 OFFCURVE",
"469 500 OFFCURVE",
"357 500 CURVE SMOOTH",
"317 500 OFFCURVE",
"264 488 OFFCURVE",
"220 437 CURVE",
"275 750 LINE",
"184 750 LINE",
"52 0 LINE",
"134 0 LINE",
"152 62 LINE",
"176 16 OFFCURVE",
"217 -10 OFFCURVE",
"273 -10 CURVE SMOOTH"
);
},
{
closed = 1;
nodes = (
"332 420 LINE SMOOTH",
"399 420 OFFCURVE",
"430 362 OFFCURVE",
"430 285 CURVE SMOOTH",
"430 172 OFFCURVE",
"363 70 OFFCURVE",
"272 70 CURVE SMOOTH",
"217 70 OFFCURVE",
"176 107 OFFCURVE",
"176 204 CURVE SMOOTH",
"176 338 OFFCURVE",
"253 420 OFFCURVE",
"332 420 CURVE SMOOTH"
);
}
);
width = 515;
},
{
background = {
paths = (
{
closed = 1;
nodes = (
"470 -10 OFFCURVE",
"575 140 OFFCURVE",
"575 297 CURVE SMOOTH",
"575 413 OFFCURVE",
"512 508 OFFCURVE",
"377 508 CURVE SMOOTH",
"326 508 OFFCURVE",
"297 496 OFFCURVE",
"264 475 CURVE",
"313 750 LINE",
"188 750 LINE",
"56 0 LINE",
"173 0 LINE",
"179 28 LINE",
"208 4 OFFCURVE",
"231 -10 OFFCURVE",
"286 -10 CURVE SMOOTH"
);
},
{
closed = 1;
nodes = (
"415 406 OFFCURVE",
"447 357 OFFCURVE",
"447 286 CURVE SMOOTH",
"447 178 OFFCURVE",
"388 92 OFFCURVE",
"296 92 CURVE SMOOTH",
"236 92 OFFCURVE",
"213 136 OFFCURVE",
"213 201 CURVE SMOOTH",
"213 290 OFFCURVE",
"240 406 OFFCURVE",
"352 406 CURVE SMOOTH"
);
}
);
};
layerId = "D879A026-05F7-4E99-AC55-D533E46CE7AB";
paths = (
{
closed = 1;
nodes = (
"286 -10 LINE SMOOTH",
"470 -10 OFFCURVE",
"575 141 OFFCURVE",
"575 295 CURVE SMOOTH",
"575 415 OFFCURVE",
"512 508 OFFCURVE",
"376 508 CURVE SMOOTH",
"327 508 OFFCURVE",
"297 496 OFFCURVE",
"264 475 CURVE",
"313 750 LINE",
"188 750 LINE",
"56 0 LINE",
"173 0 LINE",
"179 28 LINE",
"208 4 OFFCURVE",
"231 -10 OFFCURVE",
"286 -10 CURVE SMOOTH"
);
},
{
closed = 1;
nodes = (
"349 406 LINE SMOOTH",
"418 406 OFFCURVE",
"447 356 OFFCURVE",
"447 283 CURVE SMOOTH",
"447 180 OFFCURVE",
"388 92 OFFCURVE",
"298 92 CURVE SMOOTH",
"234 92 OFFCURVE",
"213 136 OFFCURVE",
"213 206 CURVE SMOOTH",
"213 290 OFFCURVE",
"243 406 OFFCURVE",
"349 406 CURVE SMOOTH"
);
}
);
width = 549;
}
);
leftKerningGroup = h;
rightKerningGroup = b;
unicode = 0062;
},
{
glyphname = backslash;
lastChange = "2016-08-23 13:01:52 +0000";
layers = (
{
background = {
paths = (
{
closed = 1;
nodes = (
"456 -85 LINE",
"258 700 LINE",
"162 700 LINE",
"360 -85 LINE"
);
}
);
};
layerId = UUID0;
paths = (
{
closed = 1;
nodes = (
"456 -85 LINE",
"258 700 LINE",
"162 700 LINE",
"360 -85 LINE"
);
}
);
width = 497;
},
{
background = {
paths = (
{
closed = 1;
nodes = (
"498 -85 LINE",
"288 700 LINE",
"153 700 LINE",
"363 -85 LINE"
);
}
);
};
layerId = "D879A026-05F7-4E99-AC55-D533E46CE7AB";
paths = (
{
closed = 1;
nodes = (
"498 -85 LINE",
"288 700 LINE",
"153 700 LINE",
"363 -85 LINE"
);
}
);
width = 529;
}
);
unicode = 005C;
},
{
glyphname = bar;
lastChange = "2016-08-23 13:01:52 +0000";
layers = (
{
background = {
paths = (
{
closed = 1;
nodes = (
"104 -209 LINE",
"273 750 LINE",
"190 750 LINE",
"21 -209 LINE"
);
}
);
};
layerId = UUID0;
paths = (
{
closed = 1;
nodes = (
"104 -209 LINE",
"273 750 LINE",
"190 750 LINE",
"21 -209 LINE"
);
}
);
width = 199;
},
{
background = {
paths = (
{
closed = 1;
nodes = (
"119 -210 LINE",
"288 750 LINE",
"190 750 LINE",
"21 -210 LINE"
);
}
);
};
layerId = "D879A026-05F7-4E99-AC55-D533E46CE7AB";
paths = (
{
closed = 1;
nodes = (
"119 -210 LINE",
"288 750 LINE",
"190 750 LINE",
"21 -210 LINE"
);
}
);
width = 213;
}
);
unicode = 007C;
},
{
glyphname = braceleft;
lastChange = "2016-08-23 13:01:52 +0000";
layers = (
{
background = {
paths = (
{
closed = 1;
nodes = (
"81 -89 OFFCURVE",
"129 -131 OFFCURVE",
"252 -135 CURVE",
"264 -66 LINE",
"185 -63 OFFCURVE",
"161 -40 OFFCURVE",
"161 25 CURVE SMOOTH",
"161 122 OFFCURVE",
"195 164 OFFCURVE",
"195 222 CURVE SMOOTH",
"195 250 OFFCURVE",
"184 276 OFFCURVE",
"146 307 CURVE",
"212 349 OFFCURVE",
"224 381 OFFCURVE",
"232 424 CURVE SMOOTH",
"237 452 OFFCURVE",
"239 483 OFFCURVE",
"244 510 CURVE SMOOTH",
"267 639 OFFCURVE",
"278 677 OFFCURVE",
"395 681 CURVE",
"408 750 LINE",
"259 745 OFFCURVE",
"203 690 OFFCURVE",
"187 600 CURVE SMOOTH",
"180 560 OFFCURVE",
"177 503 OFFCURVE",
"169 456 CURVE SMOOTH",
"156 383 OFFCURVE",
"129 341 OFFCURVE",
"75 307 CURVE",
"108 281 OFFCURVE",
"122 245 OFFCURVE",
"122 200 CURVE SMOOTH",
"122 128 OFFCURVE",
"81 41 OFFCURVE",
"81 -15 CURVE SMOOTH"
);
}
);
};
layerId = UUID0;
paths = (
{
closed = 1;
nodes = (
"81 -15 LINE",
"81 -89 OFFCURVE",
"129 -131 OFFCURVE",
"252 -135 CURVE",
"264 -66 LINE",
"185 -63 OFFCURVE",
"161 -40 OFFCURVE",
"161 25 CURVE SMOOTH",
"161 122 OFFCURVE",
"195 164 OFFCURVE",
"195 222 CURVE SMOOTH",
"195 250 OFFCURVE",
"184 276 OFFCURVE",
"146 307 CURVE",
"212 349 OFFCURVE",
"224 381 OFFCURVE",
"232 424 CURVE SMOOTH",
"237 452 OFFCURVE",
"239 483 OFFCURVE",
"244 510 CURVE SMOOTH",
"267 639 OFFCURVE",
"278 677 OFFCURVE",
"395 681 CURVE",
"408 750 LINE",
"259 745 OFFCURVE",
"203 690 OFFCURVE",
"187 600 CURVE SMOOTH",
"180 560 OFFCURVE",
"177 503 OFFCURVE",
"169 456 CURVE SMOOTH",
"156 383 OFFCURVE",
"129 341 OFFCURVE",
"75 307 CURVE",
"108 281 OFFCURVE",
"122 245 OFFCURVE",
"122 200 CURVE SMOOTH",
"122 128 OFFCURVE",
"81 41 OFFCURVE",
"81 -15 CURVE SMOOTH"
);
}
);
width = 287;
},
{
background = {
paths = (
{
closed = 1;
nodes = (
"85 -93 OFFCURVE",
"138 -136 OFFCURVE",
"269 -136 CURVE",
"289 -27 LINE",
"213 -27 OFFCURVE",
"190 -17 OFFCURVE",
"190 41 CURVE SMOOTH",
"190 132 OFFCURVE",
"224 172 OFFCURVE",
"224 234 CURVE SMOOTH",
"224 262 OFFCURVE",
"217 289 OFFCURVE",
"195 307 CURVE",
"236 334 OFFCURVE",
"250 375 OFFCURVE",
"258 418 CURVE SMOOTH",
"263 445 OFFCURVE",
"265 474 OFFCURVE",
"270 500 CURVE SMOOTH",
"292 624 OFFCURVE",
"295 641 OFFCURVE",
"407 641 CURVE",
"426 750 LINE",
"267 750 OFFCURVE",
"206 691 OFFCURVE",
"187 585 CURVE SMOOTH",
"180 547 OFFCURVE",
"177 493 OFFCURVE",
"169 449 CURVE SMOOTH",
"155 372 OFFCURVE",
"129 339 OFFCURVE",
"64 307 CURVE",
"107 282 OFFCURVE",
"124 250 OFFCURVE",
"124 203 CURVE SMOOTH",
"124 135 OFFCURVE",
"85 56 OFFCURVE",
"85 -7 CURVE SMOOTH"
);
}
);
};
layerId = "D879A026-05F7-4E99-AC55-D533E46CE7AB";
paths = (
{
closed = 1;
nodes = (
"85 -7 LINE",
"85 -93 OFFCURVE",
"138 -136 OFFCURVE",
"269 -136 CURVE",
"289 -27 LINE",
"213 -27 OFFCURVE",
"190 -17 OFFCURVE",
"190 41 CURVE SMOOTH",
"190 132 OFFCURVE",
"224 172 OFFCURVE",
"224 234 CURVE SMOOTH",
"224 262 OFFCURVE",
"217 289 OFFCURVE",
"195 307 CURVE",
"236 334 OFFCURVE",
"250 375 OFFCURVE",
"258 418 CURVE SMOOTH",
"263 445 OFFCURVE",
"265 474 OFFCURVE",
"270 500 CURVE SMOOTH",
"292 624 OFFCURVE",
"295 641 OFFCURVE",
"407 641 CURVE",
"426 750 LINE",
"267 750 OFFCURVE",
"206 691 OFFCURVE",
"187 585 CURVE SMOOTH",
"180 547 OFFCURVE",
"177 493 OFFCURVE",
"169 449 CURVE SMOOTH",
"155 372 OFFCURVE",
"129 339 OFFCURVE",
"64 307 CURVE",
"107 282 OFFCURVE",
"124 250 OFFCURVE",
"124 203 CURVE SMOOTH",
"124 135 OFFCURVE",
"85 56 OFFCURVE",
"85 -7 CURVE SMOOTH"
);
}
);
width = 305;
}
);
unicode = 007B;
},
{
glyphname = braceright;
lastChange = "2016-08-23 13:01:52 +0000";
layers = (
{
background = {
paths = (
{
closed = 1;
nodes = (
"201 -79 OFFCURVE",
"140 -130 OFFCURVE",
"-3 -135 CURVE",
"9 -66 LINE",
"127 -62 OFFCURVE",
"137 -24 OFFCURVE",
"160 105 CURVE SMOOTH",
"166 139 OFFCURVE",
"169 170 OFFCURVE",
"174 199 CURVE SMOOTH",
"181 239 OFFCURVE",
"193 266 OFFCURVE",
"259 307 CURVE",
"221 338 OFFCURVE",
"210 368 OFFCURVE",
"210 398 CURVE SMOOTH",
"210 438 OFFCURVE",
"244 492 OFFCURVE",
"244 590 CURVE SMOOTH",
"244 655 OFFCURVE",
"220 678 OFFCURVE",
"141 681 CURVE",
"153 750 LINE",
"279 746 OFFCURVE",
"324 701 OFFCURVE",
"324 629 CURVE SMOOTH",
"324 573 OFFCURVE",
"283 487 OFFCURVE",
"283 415 CURVE SMOOTH",
"283 367 OFFCURVE",
"298 332 OFFCURVE",
"329 307 CURVE",
"271 272 OFFCURVE",
"248 227 OFFCURVE",
"236 159 CURVE SMOOTH",
"228 111 OFFCURVE",
"224 54 OFFCURVE",
"217 14 CURVE SMOOTH"
);
}
);
};
layerId = UUID0;
paths = (
{
closed = 1;
nodes = (
"217 14 LINE",
"201 -79 OFFCURVE",
"140 -130 OFFCURVE",
"-3 -135 CURVE",
"9 -66 LINE",
"127 -62 OFFCURVE",
"137 -24 OFFCURVE",
"160 105 CURVE SMOOTH",
"166 139 OFFCURVE",
"169 170 OFFCURVE",
"174 199 CURVE SMOOTH",
"181 239 OFFCURVE",
"193 266 OFFCURVE",
"259 307 CURVE",
"221 338 OFFCURVE",
"210 368 OFFCURVE",
"210 398 CURVE SMOOTH",
"210 438 OFFCURVE",
"244 492 OFFCURVE",
"244 590 CURVE SMOOTH",
"244 655 OFFCURVE",
"220 678 OFFCURVE",
"141 681 CURVE",
"153 750 LINE",
"279 746 OFFCURVE",
"324 701 OFFCURVE",
"324 629 CURVE SMOOTH",
"324 573 OFFCURVE",
"283 487 OFFCURVE",
"283 415 CURVE SMOOTH",
"283 367 OFFCURVE",
"298 332 OFFCURVE",
"329 307 CURVE",
"271 272 OFFCURVE",
"248 227 OFFCURVE",
"236 159 CURVE SMOOTH",
"228 111 OFFCURVE",
"224 54 OFFCURVE",
"217 14 CURVE SMOOTH"
);
}
);
width = 286;
},
{
background = {
paths = (
{
closed = 1;
nodes = (
"205 -82 OFFCURVE",
"139 -136 OFFCURVE",
"-14 -136 CURVE",
"5 -27 LINE",
"117 -27 OFFCURVE",
"120 -10 OFFCURVE",
"142 115 CURVE SMOOTH",
"148 147 OFFCURVE",
"150 177 OFFCURVE",
"155 204 CURVE SMOOTH",
"162 246 OFFCURVE",
"176 281 OFFCURVE",
"217 307 CURVE",
"196 325 OFFCURVE",
"189 356 OFFCURVE",
"189 385 CURVE SMOOTH",
"189 435 OFFCURVE",
"222 479 OFFCURVE",
"222 573 CURVE SMOOTH",
"222 631 OFFCURVE",
"199 641 OFFCURVE",
"123 641 CURVE",
"142 750 LINE",
"278 750 OFFCURVE",
"327 703 OFFCURVE",
"327 621 CURVE SMOOTH",
"327 558 OFFCURVE",
"288 480 OFFCURVE",
"288 411 CURVE SMOOTH",
"288 361 OFFCURVE",
"306 332 OFFCURVE",
"348 307 CURVE",
"279 274 OFFCURVE",
"256 237 OFFCURVE",
"243 166 CURVE SMOOTH",
"235 121 OFFCURVE",
"232 67 OFFCURVE",
"225 29 CURVE SMOOTH"
);
}
);
};
layerId = "D879A026-05F7-4E99-AC55-D533E46CE7AB";
paths = (
{
closed = 1;
nodes = (
"225 29 LINE",
"205 -82 OFFCURVE",
"139 -136 OFFCURVE",
"-14 -136 CURVE",
"5 -27 LINE",
"117 -27 OFFCURVE",
"120 -10 OFFCURVE",
"142 115 CURVE SMOOTH",
"148 147 OFFCURVE",
"150 177 OFFCURVE",
"155 204 CURVE SMOOTH",
"162 246 OFFCURVE",
"176 281 OFFCURVE",
"217 307 CURVE",
"196 325 OFFCURVE",
"189 356 OFFCURVE",
"189 385 CURVE SMOOTH",
"189 435 OFFCURVE",
"222 479 OFFCURVE",
"222 573 CURVE SMOOTH",
"222 631 OFFCURVE",
"199 641 OFFCURVE",
"123 641 CURVE",
"142 750 LINE",
"278 750 OFFCURVE",
"327 703 OFFCURVE",
"327 621 CURVE SMOOTH",
"327 558 OFFCURVE",
"288 480 OFFCURVE",
"288 411 CURVE SMOOTH",
"288 361 OFFCURVE",
"306 332 OFFCURVE",
"348 307 CURVE",
"279 274 OFFCURVE",
"256 237 OFFCURVE",
"243 166 CURVE SMOOTH",
"235 121 OFFCURVE",
"232 67 OFFCURVE",
"225 29 CURVE SMOOTH"
);
}
);
width = 305;
}
);
unicode = 007D;
},
{
glyphname = bracketleft;
lastChange = "2016-08-23 13:01:52 +0000";
layers = (
{
background = {
paths = (
{
closed = 1;
nodes = (
"267 -135 LINE",
"279 -67 LINE",
"131 -67 LINE",
"263 682 LINE",
"411 682 LINE",
"423 750 LINE",
"192 750 LINE",
"36 -135 LINE"
);
}
);
};
layerId = UUID0;
paths = (
{
closed = 1;
nodes = (
"267 -135 LINE",
"279 -67 LINE",
"131 -67 LINE",
"263 682 LINE",
"411 682 LINE",
"423 750 LINE",
"192 750 LINE",
"36 -135 LINE"
);
}
);
width = 301;
},
{
background = {
paths = (
{
closed = 1;
nodes = (
"287 -136 LINE",
"306 -27 LINE",
"172 -27 LINE",
"290 641 LINE",
"424 641 LINE",
"443 750 LINE",
"196 750 LINE",
"40 -136 LINE"
);
}
);
};
layerId = "D879A026-05F7-4E99-AC55-D533E46CE7AB";
paths = (
{
closed = 1;
nodes = (
"287 -136 LINE",
"306 -27 LINE",
"172 -27 LINE",
"290 641 LINE",
"424 641 LINE",
"443 750 LINE",
"196 750 LINE",
"40 -136 LINE"
);
}
);
width = 321;
}
);
unicode = 005B;
},
{
glyphname = bracketright;
lastChange = "2016-08-23 13:01:52 +0000";
layers = (
{
background = {
paths = (
{
closed = 1;
nodes = (
"222 -135 LINE",
"378 750 LINE",
"147 750 LINE",
"132 666 LINE",
"280 666 LINE",
"154 -51 LINE",
"6 -51 LINE",
"-9 -135 LINE"
);
}
);
};
layerId = UUID0;
paths = (
{
closed = 1;
nodes = (
"222 -135 LINE",
"378 750 LINE",
"147 750 LINE",
"132 666 LINE",
"280 666 LINE",
"154 -51 LINE",
"6 -51 LINE",
"-9 -135 LINE"
);
}
);
width = 306;
},
{
background = {
paths = (
{
closed = 1;
nodes = (
"238 -136 LINE",
"394 750 LINE",
"147 750 LINE",
"125 626 LINE",
"259 626 LINE",
"146 -12 LINE",
"13 -12 LINE",
"-9 -136 LINE"
);
}
);
};
layerId = "D879A026-05F7-4E99-AC55-D533E46CE7AB";
paths = (
{
closed = 1;
nodes = (
"238 -136 LINE",
"394 750 LINE",
"147 750 LINE",
"125 626 LINE",
"259 626 LINE",
"146 -12 LINE",
"13 -12 LINE",
"-9 -136 LINE"
);
}
);
width = 326;
}
);
unicode = 005D;
},
{
glyphname = brokenbar;
lastChange = "2016-08-23 13:01:52 +0000";
layers = (
{
background = {
paths = (
{
closed = 1;
nodes = (
"195 308 LINE",
"272 750 LINE",
"193 750 LINE",
"115 308 LINE"
);
},
{
closed = 1;
nodes = (
"103 -210 LINE",
"169 163 LINE",
"90 163 LINE",
"24 -210 LINE"
);
}
);
};
layerId = UUID0;
paths = (
{
closed = 1;
nodes = (
"195 308 LINE",
"272 750 LINE",
"193 750 LINE",
"115 308 LINE"
);
},
{
closed = 1;
nodes = (
"103 -210 LINE",
"169 163 LINE",
"90 163 LINE",
"24 -210 LINE"
);
}
);
width = 201;
},
{
background = {
paths = (
{
closed = 1;
nodes = (
"200 284 LINE",
"282 750 LINE",
"197 750 LINE",
"115 284 LINE"
);
},
{
closed = 1;
nodes = (
"112 -210 LINE",
"183 190 LINE",
"99 190 LINE",
"28 -210 LINE"
);
}
);
};
layerId = "D879A026-05F7-4E99-AC55-D533E46CE7AB";
paths = (
{
closed = 1;
nodes = (
"200 284 LINE",
"282 750 LINE",
"197 750 LINE",
"115 284 LINE"
);
},
{
closed = 1;
nodes = (
"112 -210 LINE",
"183 190 LINE",
"99 190 LINE",
"28 -210 LINE"
);
}
);
width = 215;
}
);
unicode = 00A6;
},
{
glyphname = bullet;
lastChange = "2016-08-23 13:01:52 +0000";
layers = (
{
background = {
paths = (
{
closed = 1;
nodes = (
"224 169 OFFCURVE",
"283 227 OFFCURVE",
"283 295 CURVE SMOOTH",
"283 346 OFFCURVE",
"250 387 OFFCURVE",
"202 387 CURVE SMOOTH",
"142 387 OFFCURVE",
"83 329 OFFCURVE",
"83 261 CURVE SMOOTH",
"83 210 OFFCURVE",
"116 169 OFFCURVE",
"164 169 CURVE SMOOTH"
);
}
);
};
layerId = UUID0;
paths = (
{
closed = 1;
nodes = (
"164 169 LINE",
"224 169 OFFCURVE",
"283 227 OFFCURVE",
"283 295 CURVE SMOOTH",
"283 346 OFFCURVE",
"250 387 OFFCURVE",
"202 387 CURVE SMOOTH",
"142 387 OFFCURVE",
"83 329 OFFCURVE",
"83 261 CURVE SMOOTH",
"83 210 OFFCURVE",
"116 169 OFFCURVE",
"164 169 CURVE SMOOTH"
);
}
);
width = 268;
},
{
background = {
paths = (
{
closed = 1;
nodes = (
"237 169 OFFCURVE",
"299 227 OFFCURVE",
"299 294 CURVE SMOOTH",
"299 346 OFFCURVE",
"263 387 OFFCURVE",
"212 387 CURVE SMOOTH",
"148 387 OFFCURVE",
"86 329 OFFCURVE",
"86 262 CURVE SMOOTH",
"86 210 OFFCURVE",
"122 169 OFFCURVE",
"173 169 CURVE SMOOTH"
);
}
);
};
layerId = "D879A026-05F7-4E99-AC55-D533E46CE7AB";
paths = (
{
closed = 1;
nodes = (
"173 169 LINE",
"237 169 OFFCURVE",
"299 227 OFFCURVE",
"299 294 CURVE SMOOTH",
"299 346 OFFCURVE",
"263 387 OFFCURVE",
"212 387 CURVE SMOOTH",
"148 387 OFFCURVE",
"86 329 OFFCURVE",
"86 262 CURVE SMOOTH",
"86 210 OFFCURVE",
"122 169 OFFCURVE",
"173 169 CURVE SMOOTH"
);
}
);
width = 287;
}
);
unicode = 2022;
},
{
glyphname = c;
lastChange = "2016-08-23 13:01:52 +0000";
layers = (
{
background = {
paths = (
{
closed = 1;
nodes = (
"314 -10 OFFCURVE",
"353 8 OFFCURVE",
"384 27 CURVE",
"387 99 LINE",
"348 80 OFFCURVE",
"307 69 OFFCURVE",
"265 69 CURVE SMOOTH",
"192 69 OFFCURVE",
"156 121 OFFCURVE",
"156 201 CURVE SMOOTH",
"156 327 OFFCURVE",
"214 420 OFFCURVE",
"327 420 CURVE SMOOTH",
"369 420 OFFCURVE",
"404 409 OFFCURVE",
"437 390 CURVE",
"463 471 LINE",
"438 487 OFFCURVE",
"400 500 OFFCURVE",
"332 500 CURVE SMOOTH",
"159 500 OFFCURVE",
"63 355 OFFCURVE",
"63 195 CURVE SMOOTH",
"63 83 OFFCURVE",
"120 -10 OFFCURVE",
"243 -10 CURVE SMOOTH"
);
}
);
};
layerId = UUID0;
paths = (
{
closed = 1;
nodes = (
"250 -10 LINE",
"309 -10 OFFCURVE",
"354 8 OFFCURVE",
"384 27 CURVE",
"387 99 LINE",
"348 80 OFFCURVE",
"306 69 OFFCURVE",
"269 69 CURVE SMOOTH",
"192 69 OFFCURVE",
"156 116 OFFCURVE",
"156 208 CURVE SMOOTH",
"156 325 OFFCURVE",
"214 420 OFFCURVE",
"329 420 CURVE SMOOTH",
"368 420 OFFCURVE",
"404 409 OFFCURVE",
"437 390 CURVE",
"463 471 LINE",
"436 489 OFFCURVE",
"389 500 OFFCURVE",
"339 500 CURVE SMOOTH",
"157 500 OFFCURVE",
"63 355 OFFCURVE",
"63 199 CURVE SMOOTH",
"63 83 OFFCURVE",
"115 -10 OFFCURVE",
"250 -10 CURVE SMOOTH"
);
}
);
width = 404;
},
{
background = {
paths = (
{
closed = 1;
nodes = (
"335 -10 OFFCURVE",
"374 7 OFFCURVE",
"409 27 CURVE",
"417 133 LINE",
"372 106 OFFCURVE",
"332 92 OFFCURVE",
"286 92 CURVE SMOOTH",
"226 92 OFFCURVE",
"194 141 OFFCURVE",
"194 212 CURVE SMOOTH",
"194 320 OFFCURVE",
"254 406 OFFCURVE",
"341 406 CURVE SMOOTH",
"387 406 OFFCURVE",
"423 392 OFFCURVE",
"458 365 CURVE",
"487 471 LINE",
"459 491 OFFCURVE",
"427 508 OFFCURVE",
"349 508 CURVE SMOOTH",
"172 508 OFFCURVE",
"65 358 OFFCURVE",
"65 200 CURVE SMOOTH",
"65 84 OFFCURVE",
"127 -10 OFFCURVE",
"258 -10 CURVE SMOOTH"
);
}
);
};
layerId = "D879A026-05F7-4E99-AC55-D533E46CE7AB";
paths = (
{
closed = 1;
nodes = (
"267 -10 LINE",
"330 -10 OFFCURVE",
"377 8 OFFCURVE",
"409 27 CURVE",
"417 133 LINE",
"373 106 OFFCURVE",
"328 92 OFFCURVE",
"291 92 CURVE SMOOTH",
"222 92 OFFCURVE",
"194 141 OFFCURVE",
"194 214 CURVE SMOOTH",
"194 319 OFFCURVE",
"252 406 OFFCURVE",
"346 406 CURVE SMOOTH",
"385 406 OFFCURVE",
"425 391 OFFCURVE",
"458 365 CURVE",
"487 471 LINE",
"459 492 OFFCURVE",
"419 508 OFFCURVE",
"357 508 CURVE SMOOTH",
"168 508 OFFCURVE",
"65 358 OFFCURVE",
"65 201 CURVE SMOOTH",
"65 84 OFFCURVE",
"122 -10 OFFCURVE",
"267 -10 CURVE SMOOTH"
);
}
);
width = 430;
}
);
leftKerningGroup = o;
rightKerningGroup = c;
unicode = 0063;
},
{
glyphname = caron;
lastChange = "2016-08-23 13:01:52 +0000";
layers = (
{
background = {
paths = (
{
closed = 1;
nodes = (
"457 699 LINE",
"464 740 LINE",
"318 664 LINE",
"199 740 LINE",
"192 699 LINE",
"307 600 LINE"
);
}
);
};
layerId = UUID0;
paths = (
{
closed = 1;
nodes = (
"457 699 LINE",
"464 740 LINE",
"318 664 LINE",
"199 740 LINE",
"192 699 LINE",
"307 600 LINE"
);
}
);
width = 402;
},
{
background = {
paths = (
{
closed = 1;
nodes = (
"474 676 LINE",
"487 750 LINE",
"334 679 LINE",
"205 750 LINE",
"192 676 LINE",
"317 585 LINE"
);
}
);
};
layerId = "D879A026-05F7-4E99-AC55-D533E46CE7AB";
paths = (
{
closed = 1;
nodes = (
"474 676 LINE",
"487 750 LINE",
"334 679 LINE",
"205 750 LINE",
"192 676 LINE",
"317 585 LINE"
);
}
);
width = 428;
}
);
unicode = 02C7;
},
{
glyphname = cedilla;
lastChange = "2016-08-23 13:01:52 +0000";
layers = (
{
background = {
paths = (
{
closed = 1;
nodes = (
"247 -54 LINE",
"176 -60 LINE",
"91 -192 LINE",
"141 -187 LINE"
);
}
);
};
layerId = UUID0;
paths = (
{
closed = 1;
nodes = (
"247 -54 LINE",
"176 -60 LINE",
"91 -192 LINE",
"141 -187 LINE"
);
}
);
width = 272;
},
{
background = {
paths = (
{
closed = 1;
nodes = (
"285 -52 LINE",
"178 -61 LINE",
"87 -194 LINE",
"164 -185 LINE"
);
}
);
};
layerId = "D879A026-05F7-4E99-AC55-D533E46CE7AB";
paths = (
{
closed = 1;
nodes = (
"285 -52 LINE",
"178 -61 LINE",
"87 -194 LINE",
"164 -185 LINE"
);
}
);
width = 290;
}
);
unicode = 00B8;
},
{
glyphname = cent;
lastChange = "2016-08-23 13:01:52 +0000";
layers = (
{
background = {
paths = (
{
closed = 1;
nodes = (
"281 87 LINE",
"345 91 OFFCURVE",
"377 104 OFFCURVE",
"405 119 CURVE",
"410 197 LINE",
"370 176 OFFCURVE",
"332 165 OFFCURVE",
"290 165 CURVE SMOOTH",
"222 165 OFFCURVE",
"188 227 OFFCURVE",
"188 305 CURVE SMOOTH",
"188 420 OFFCURVE",
"255 531 OFFCURVE",
"354 531 CURVE SMOOTH",
"397 531 OFFCURVE",
"431 519 OFFCURVE",
"463 498 CURVE",
"485 576 LINE",
"462 592 OFFCURVE",
"434 604 OFFCURVE",
"371 608 CURVE",
"412 748 LINE",
"343 748 LINE",
"335 608 LINE",
"175 586 OFFCURVE",
"86 443 OFFCURVE",
"86 296 CURVE SMOOTH",
"86 193 OFFCURVE",
"135 104 OFFCURVE",
"241 87 CURVE",
"205 -31 LINE",
"275 -31 LINE"
);
}
);
};
layerId = UUID0;
paths = (
{
closed = 1;
nodes = (
"281 87 LINE",
"345 91 OFFCURVE",
"377 104 OFFCURVE",
"405 119 CURVE",
"410 197 LINE",
"370 176 OFFCURVE",
"332 165 OFFCURVE",
"290 165 CURVE SMOOTH",
"222 165 OFFCURVE",
"188 227 OFFCURVE",
"188 305 CURVE SMOOTH",
"188 420 OFFCURVE",
"255 531 OFFCURVE",
"354 531 CURVE SMOOTH",
"397 531 OFFCURVE",
"431 519 OFFCURVE",
"463 498 CURVE",
"485 576 LINE",
"462 592 OFFCURVE",
"434 604 OFFCURVE",
"371 608 CURVE",
"412 748 LINE",
"343 748 LINE",
"335 608 LINE",
"175 586 OFFCURVE",
"86 443 OFFCURVE",
"86 296 CURVE SMOOTH",
"86 193 OFFCURVE",
"135 104 OFFCURVE",
"241 87 CURVE",
"205 -31 LINE",
"275 -31 LINE"
);
}
);
width = 426;
},
{
background = {
paths = (
{
closed = 1;
nodes = (
"310 89 LINE",
"368 93 OFFCURVE",
"403 108 OFFCURVE",
"433 126 CURVE",
"440 232 LINE",
"396 205 OFFCURVE",
"355 191 OFFCURVE",
"309 191 CURVE SMOOTH",
"248 191 OFFCURVE",
"215 240 OFFCURVE",
"215 311 CURVE SMOOTH",
"215 419 OFFCURVE",
"275 505 OFFCURVE",
"364 505 CURVE SMOOTH",
"411 505 OFFCURVE",
"447 491 OFFCURVE",
"481 464 CURVE",
"511 570 LINE",
"486 588 OFFCURVE",
"457 603 OFFCURVE",
"399 606 CURVE",
"440 748 LINE",
"344 748 LINE",
"336 605 LINE",
"182 585 OFFCURVE",
"89 446 OFFCURVE",
"89 298 CURVE SMOOTH",
"89 194 OFFCURVE",
"139 106 OFFCURVE",
"243 91 CURVE",
"206 -32 LINE",
"303 -32 LINE"
);
}
);
};
layerId = "D879A026-05F7-4E99-AC55-D533E46CE7AB";
paths = (
{
closed = 1;
nodes = (
"310 89 LINE",
"368 93 OFFCURVE",
"403 108 OFFCURVE",
"433 126 CURVE",
"440 232 LINE",
"396 205 OFFCURVE",
"355 191 OFFCURVE",
"309 191 CURVE SMOOTH",
"248 191 OFFCURVE",
"215 240 OFFCURVE",
"215 311 CURVE SMOOTH",
"215 419 OFFCURVE",
"275 505 OFFCURVE",
"364 505 CURVE SMOOTH",
"411 505 OFFCURVE",
"447 491 OFFCURVE",
"481 464 CURVE",
"511 570 LINE",
"486 588 OFFCURVE",
"457 603 OFFCURVE",
"399 606 CURVE",
"440 748 LINE",
"344 748 LINE",
"336 605 LINE",
"182 585 OFFCURVE",
"89 446 OFFCURVE",
"89 298 CURVE SMOOTH",
"89 194 OFFCURVE",
"139 106 OFFCURVE",
"243 91 CURVE",
"206 -32 LINE",
"303 -32 LINE"
);
}
);
width = 455;
}
);
unicode = 00A2;
},
{
glyphname = circumflex;
lastChange = "2016-08-23 13:01:52 +0000";
layers = (
{
background = {
paths = (
{
closed = 1;
nodes = (
"440 603 LINE",
"446 639 LINE",
"332 745 LINE",
"181 639 LINE",
"175 603 LINE",
"322 685 LINE"
);
}
);
};
layerId = UUID0;
paths = (
{
closed = 1;
nodes = (
"440 603 LINE",
"446 639 LINE",
"332 745 LINE",
"181 639 LINE",
"175 603 LINE",
"322 685 LINE"
);
}
);
width = 402;
},
{
background = {
paths = (
{
closed = 1;
nodes = (
"458 585 LINE",
"471 659 LINE",
"346 750 LINE",
"189 659 LINE",
"176 585 LINE",
"330 656 LINE"
);
}
);
};
layerId = "D879A026-05F7-4E99-AC55-D533E46CE7AB";
paths = (
{
closed = 1;
nodes = (
"458 585 LINE",
"471 659 LINE",
"346 750 LINE",
"189 659 LINE",
"176 585 LINE",
"330 656 LINE"
);
}
);
width = 428;
}
);
unicode = 02C6;
},
{
glyphname = colon;
lastChange = "2016-08-23 13:01:52 +0000";
layers = (
{
background = {
paths = (
{
closed = 1;
nodes = (
"226 354 LINE",
"241 440 LINE",
"151 440 LINE",
"135 354 LINE"
);
},
{
closed = 1;
nodes = (
"164 0 LINE",
"179 86 LINE",
"88 86 LINE",
"73 0 LINE"
);
}
);
};
layerId = UUID0;
paths = (
{
closed = 1;
nodes = (
"226 354 LINE",
"241 440 LINE",
"151 440 LINE",
"135 354 LINE"
);
},
{
closed = 1;
nodes = (
"164 0 LINE",
"179 86 LINE",
"88 86 LINE",
"73 0 LINE"
);
}
);
width = 236;
},
{
background = {
paths = (
{
closed = 1;
nodes = (
"243 310 LINE",
"266 440 LINE",
"142 440 LINE",
"119 310 LINE"
);
},
{
closed = 1;
nodes = (
"188 0 LINE",
"211 130 LINE",
"87 130 LINE",
"64 0 LINE"
);
}
);
};
layerId = "D879A026-05F7-4E99-AC55-D533E46CE7AB";
paths = (
{
closed = 1;
nodes = (
"243 310 LINE",
"266 440 LINE",
"142 440 LINE",
"119 310 LINE"
);
},
{
closed = 1;
nodes = (
"188 0 LINE",
"211 130 LINE",
"87 130 LINE",
"64 0 LINE"
);
}
);
width = 252;
}
);
unicode = 003A;
},
{
glyphname = comma;
lastChange = "2016-08-23 13:01:52 +0000";
layers = (
{
background = {
paths = (
{
closed = 1;
nodes = (
"155 0 LINE",
"171 86 LINE",
"74 86 LINE",
"59 0 LINE",
"87 -9 LINE",
"41 -96 LINE",
"60 -109 LINE"
);
}
);
};
layerId = UUID0;
paths = (
{
closed = 1;
nodes = (
"155 0 LINE",
"171 86 LINE",
"74 86 LINE",
"59 0 LINE",
"87 -9 LINE",
"41 -96 LINE",
"60 -109 LINE"
);
}
);
width = 213;
},
{
background = {
paths = (
{
closed = 1;
nodes = (
"175 0 LINE",
"197 130 LINE",
"75 130 LINE",
"52 0 LINE",
"82 -10 LINE",
"35 -96 LINE",
"58 -110 LINE"
);
}
);
};
layerId = "D879A026-05F7-4E99-AC55-D533E46CE7AB";
paths = (
{
closed = 1;
nodes = (
"175 0 LINE",
"197 130 LINE",
"75 130 LINE",
"52 0 LINE",
"82 -10 LINE",
"35 -96 LINE",
"58 -110 LINE"
);
}
);
width = 226;
}
);
unicode = 002C;
},
{
glyphname = copyright;
lastChange = "2016-08-23 13:01:52 +0000";
layers = (
{
background = {
paths = (
{
closed = 1;
nodes = (
"510 37 OFFCURVE",
"666 200 OFFCURVE",
"666 430 CURVE SMOOTH",
"666 590 OFFCURVE",
"577 693 OFFCURVE",
"438 693 CURVE SMOOTH",
"251 693 OFFCURVE",
"93 531 OFFCURVE",
"93 301 CURVE SMOOTH",
"93 141 OFFCURVE",
"183 37 OFFCURVE",
"322 37 CURVE SMOOTH"
);
},
{
closed = 1;
nodes = (
"555 648 OFFCURVE",
"612 554 OFFCURVE",
"612 429 CURVE SMOOTH",
"612 247 OFFCURVE",
"512 81 OFFCURVE",
"330 81 CURVE SMOOTH",
"204 81 OFFCURVE",
"147 175 OFFCURVE",
"147 300 CURVE SMOOTH",
"147 483 OFFCURVE",
"247 648 OFFCURVE",
"430 648 CURVE SMOOTH"
);
},
{
closed = 1;
nodes = (
"387 197 OFFCURVE",
"421 204 OFFCURVE",
"446 217 CURVE",
"450 276 LINE",
"422 264 OFFCURVE",
"396 256 OFFCURVE",
"369 256 CURVE SMOOTH",
"327 256 OFFCURVE",
"308 291 OFFCURVE",
"308 337 CURVE SMOOTH",
"308 407 OFFCURVE",
"344 470 OFFCURVE",
"406 470 CURVE SMOOTH",
"434 470 OFFCURVE",
"457 462 OFFCURVE",
"480 451 CURVE",
"498 511 LINE",
"477 522 OFFCURVE",
"446 530 OFFCURVE",
"417 530 CURVE SMOOTH",
"320 530 OFFCURVE",
"240 448 OFFCURVE",
"240 330 CURVE SMOOTH",
"240 249 OFFCURVE",
"286 197 OFFCURVE",
"358 197 CURVE SMOOTH"
);
}
);
};
layerId = UUID0;
paths = (
{
closed = 1;
nodes = (
"322 37 LINE",
"510 37 OFFCURVE",
"666 200 OFFCURVE",
"666 430 CURVE SMOOTH",
"666 590 OFFCURVE",
"577 693 OFFCURVE",
"438 693 CURVE SMOOTH",
"251 693 OFFCURVE",
"93 531 OFFCURVE",
"93 301 CURVE SMOOTH",
"93 141 OFFCURVE",
"183 37 OFFCURVE",
"322 37 CURVE SMOOTH"
);
},
{
closed = 1;
nodes = (
"430 648 LINE",
"555 648 OFFCURVE",
"612 554 OFFCURVE",
"612 429 CURVE SMOOTH",
"612 247 OFFCURVE",
"512 81 OFFCURVE",
"330 81 CURVE SMOOTH",
"204 81 OFFCURVE",
"147 175 OFFCURVE",
"147 300 CURVE SMOOTH",
"147 483 OFFCURVE",
"247 648 OFFCURVE",
"430 648 CURVE SMOOTH"
);
},
{
closed = 1;
nodes = (
"358 197 LINE",
"387 197 OFFCURVE",
"421 204 OFFCURVE",
"446 217 CURVE",
"450 276 LINE",
"422 264 OFFCURVE",
"396 256 OFFCURVE",
"369 256 CURVE SMOOTH",
"327 256 OFFCURVE",
"308 291 OFFCURVE",
"308 337 CURVE SMOOTH",
"308 407 OFFCURVE",
"344 470 OFFCURVE",
"406 470 CURVE SMOOTH",
"434 470 OFFCURVE",
"457 462 OFFCURVE",
"480 451 CURVE",
"498 511 LINE",
"477 522 OFFCURVE",
"446 530 OFFCURVE",
"417 530 CURVE SMOOTH",
"320 530 OFFCURVE",
"240 448 OFFCURVE",
"240 330 CURVE SMOOTH",
"240 249 OFFCURVE",
"286 197 OFFCURVE",
"358 197 CURVE SMOOTH"
);
}
);
width = 630;
},
{
background = {
paths = (
{
closed = 1;
nodes = (
"541 37 OFFCURVE",
"706 199 OFFCURVE",
"706 426 CURVE SMOOTH",
"706 587 OFFCURVE",
"609 693 OFFCURVE",
"459 693 CURVE SMOOTH",
"261 693 OFFCURVE",
"96 532 OFFCURVE",
"96 305 CURVE SMOOTH",
"96 144 OFFCURVE",
"193 37 OFFCURVE",
"343 37 CURVE SMOOTH"
);
},
{
closed = 1;
nodes = (
"570 623 OFFCURVE",
"627 538 OFFCURVE",
"627 421 CURVE SMOOTH",
"627 253 OFFCURVE",
"532 106 OFFCURVE",
"356 106 CURVE SMOOTH",
"232 106 OFFCURVE",
"174 192 OFFCURVE",
"174 309 CURVE SMOOTH",
"174 477 OFFCURVE",
"270 623 OFFCURVE",
"447 623 CURVE SMOOTH"
);
},
{
closed = 1;
nodes = (
"412 190 OFFCURVE",
"452 199 OFFCURVE",
"482 215 CURVE",
"487 299 LINE",
"454 284 OFFCURVE",
"425 274 OFFCURVE",
"393 274 CURVE SMOOTH",
"357 274 OFFCURVE",
"339 301 OFFCURVE",
"339 342 CURVE SMOOTH",
"339 405 OFFCURVE",
"372 452 OFFCURVE",
"424 452 CURVE SMOOTH",
"456 452 OFFCURVE",
"482 442 OFFCURVE",
"510 429 CURVE",
"535 514 LINE",
"510 527 OFFCURVE",
"474 537 OFFCURVE",
"439 537 CURVE SMOOTH",
"333 537 OFFCURVE",
"247 451 OFFCURVE",
"247 331 CURVE SMOOTH",
"247 246 OFFCURVE",
"298 190 OFFCURVE",
"378 190 CURVE SMOOTH"
);
}
);
};
layerId = "D879A026-05F7-4E99-AC55-D533E46CE7AB";
paths = (
{
closed = 1;
nodes = (
"343 37 LINE",
"541 37 OFFCURVE",
"706 199 OFFCURVE",
"706 426 CURVE SMOOTH",
"706 587 OFFCURVE",
"609 693 OFFCURVE",
"459 693 CURVE SMOOTH",
"261 693 OFFCURVE",
"96 532 OFFCURVE",
"96 305 CURVE SMOOTH",
"96 144 OFFCURVE",
"193 37 OFFCURVE",
"343 37 CURVE SMOOTH"
);
},
{
closed = 1;
nodes = (
"447 623 LINE",
"570 623 OFFCURVE",
"627 538 OFFCURVE",
"627 421 CURVE SMOOTH",
"627 253 OFFCURVE",
"532 106 OFFCURVE",
"356 106 CURVE SMOOTH",
"232 106 OFFCURVE",
"174 192 OFFCURVE",
"174 309 CURVE SMOOTH",
"174 477 OFFCURVE",
"270 623 OFFCURVE",
"447 623 CURVE SMOOTH"
);
},
{
closed = 1;
nodes = (
"378 190 LINE",
"412 190 OFFCURVE",
"452 199 OFFCURVE",
"482 215 CURVE",
"487 299 LINE",
"454 284 OFFCURVE",
"425 274 OFFCURVE",
"393 274 CURVE SMOOTH",
"357 274 OFFCURVE",
"339 301 OFFCURVE",
"339 342 CURVE SMOOTH",
"339 405 OFFCURVE",
"372 452 OFFCURVE",
"424 452 CURVE SMOOTH",
"456 452 OFFCURVE",
"482 442 OFFCURVE",
"510 429 CURVE",
"535 514 LINE",
"510 527 OFFCURVE",
"474 537 OFFCURVE",
"439 537 CURVE SMOOTH",
"333 537 OFFCURVE",
"247 451 OFFCURVE",
"247 331 CURVE SMOOTH",
"247 246 OFFCURVE",
"298 190 OFFCURVE",
"378 190 CURVE SMOOTH"
);
}
);
width = 673;
}
);
unicode = 00A9;
},
{
glyphname = currency;
lastChange = "2016-08-23 13:01:52 +0000";
layers = (
{
background = {
paths = (
{
closed = 1;
nodes = (
"511 53 LINE",
"459 154 LINE",
"534 233 OFFCURVE",
"567 308 OFFCURVE",
"567 393 CURVE SMOOTH",
"567 443 OFFCURVE",
"555 497 OFFCURVE",
"528 540 CURVE",
"615 643 LINE",
"585 667 LINE",
"496 563 LINE",
"459 591 OFFCURVE",
"423 602 OFFCURVE",
"379 602 CURVE SMOOTH",
"336 602 OFFCURVE",
"296 591 OFFCURVE",
"249 564 CURVE",
"198 667 LINE",
"159 643 LINE",
"210 541 LINE",
"133 462 OFFCURVE",
"102 385 OFFCURVE",
"102 302 CURVE SMOOTH",
"102 252 OFFCURVE",
"115 198 OFFCURVE",
"141 155 CURVE",
"55 53 LINE",
"85 29 LINE",
"173 132 LINE",
"210 104 OFFCURVE",
"246 94 OFFCURVE",
"290 94 CURVE SMOOTH",
"334 94 OFFCURVE",
"373 104 OFFCURVE",
"420 132 CURVE",
"472 29 LINE"
);
},
{
closed = 1;
nodes = (
"440 540 OFFCURVE",
"475 476 OFFCURVE",
"475 394 CURVE SMOOTH",
"475 271 OFFCURVE",
"407 156 OFFCURVE",
"301 156 CURVE SMOOTH",
"229 156 OFFCURVE",
"194 220 OFFCURVE",
"194 302 CURVE SMOOTH",
"194 425 OFFCURVE",
"262 540 OFFCURVE",
"368 540 CURVE SMOOTH"
);
}
);
};
layerId = UUID0;
paths = (
{
closed = 1;
nodes = (
"511 53 LINE",
"459 154 LINE",
"534 233 OFFCURVE",
"567 308 OFFCURVE",
"567 393 CURVE SMOOTH",
"567 443 OFFCURVE",
"555 497 OFFCURVE",
"528 540 CURVE",
"615 643 LINE",
"585 667 LINE",
"496 563 LINE",
"459 591 OFFCURVE",
"423 602 OFFCURVE",
"379 602 CURVE SMOOTH",
"336 602 OFFCURVE",
"296 591 OFFCURVE",
"249 564 CURVE",
"198 667 LINE",
"159 643 LINE",
"210 541 LINE",
"133 462 OFFCURVE",
"102 385 OFFCURVE",
"102 302 CURVE SMOOTH",
"102 252 OFFCURVE",
"115 198 OFFCURVE",
"141 155 CURVE",
"55 53 LINE",
"85 29 LINE",
"173 132 LINE",
"210 104 OFFCURVE",
"246 94 OFFCURVE",
"290 94 CURVE SMOOTH",
"334 94 OFFCURVE",
"373 104 OFFCURVE",
"420 132 CURVE",
"472 29 LINE"
);
},
{
closed = 1;
nodes = (
"368 540 LINE",
"440 540 OFFCURVE",
"475 476 OFFCURVE",
"475 394 CURVE SMOOTH",
"475 271 OFFCURVE",
"407 156 OFFCURVE",
"301 156 CURVE SMOOTH",
"229 156 OFFCURVE",
"194 220 OFFCURVE",
"194 302 CURVE SMOOTH",
"194 425 OFFCURVE",
"262 540 OFFCURVE",
"368 540 CURVE SMOOTH"
);
}
);
width = 548;
},
{
background = {
paths = (
{
closed = 1;
nodes = (
"555 69 LINE",
"502 166 LINE",
"562 225 OFFCURVE",
"601 305 OFFCURVE",
"601 393 CURVE SMOOTH",
"601 443 OFFCURVE",
"589 495 OFFCURVE",
"567 529 CURVE",
"653 627 LINE",
"600 677 LINE",
"511 577 LINE",
"483 596 OFFCURVE",
"445 607 OFFCURVE",
"399 607 CURVE SMOOTH",
"353 607 OFFCURVE",
"311 596 OFFCURVE",
"277 578 CURVE",
"224 677 LINE",
"152 627 LINE",
"205 530 LINE",
"143 470 OFFCURVE",
"105 389 OFFCURVE",
"105 302 CURVE SMOOTH",
"105 252 OFFCURVE",
"117 200 OFFCURVE",
"139 166 CURVE",
"54 69 LINE",
"108 19 LINE",
"195 118 LINE",
"223 99 OFFCURVE",
"262 89 OFFCURVE",
"308 89 CURVE SMOOTH",
"353 89 OFFCURVE",
"396 99 OFFCURVE",
"430 118 CURVE",
"484 19 LINE"
);
},
{
closed = 1;
nodes = (
"441 505 OFFCURVE",
"473 456 OFFCURVE",
"473 385 CURVE SMOOTH",
"473 277 OFFCURVE",
"413 191 OFFCURVE",
"326 191 CURVE SMOOTH",
"265 191 OFFCURVE",
"234 240 OFFCURVE",
"234 311 CURVE SMOOTH",
"234 419 OFFCURVE",
"293 505 OFFCURVE",
"381 505 CURVE SMOOTH"
);
}
);
};
layerId = "D879A026-05F7-4E99-AC55-D533E46CE7AB";
paths = (
{
closed = 1;
nodes = (
"555 69 LINE",
"502 166 LINE",
"562 225 OFFCURVE",
"601 305 OFFCURVE",
"601 393 CURVE SMOOTH",
"601 443 OFFCURVE",
"589 495 OFFCURVE",
"567 529 CURVE",
"653 627 LINE",
"600 677 LINE",
"511 577 LINE",
"483 596 OFFCURVE",
"445 607 OFFCURVE",
"399 607 CURVE SMOOTH",
"353 607 OFFCURVE",
"311 596 OFFCURVE",
"277 578 CURVE",
"224 677 LINE",
"152 627 LINE",
"205 530 LINE",
"143 470 OFFCURVE",
"105 389 OFFCURVE",
"105 302 CURVE SMOOTH",
"105 252 OFFCURVE",
"117 200 OFFCURVE",
"139 166 CURVE",
"54 69 LINE",
"108 19 LINE",
"195 118 LINE",
"223 99 OFFCURVE",
"262 89 OFFCURVE",
"308 89 CURVE SMOOTH",
"353 89 OFFCURVE",
"396 99 OFFCURVE",
"430 118 CURVE",
"484 19 LINE"
);
},
{
closed = 1;
nodes = (
"381 505 LINE",
"441 505 OFFCURVE",
"473 456 OFFCURVE",
"473 385 CURVE SMOOTH",
"473 277 OFFCURVE",
"413 191 OFFCURVE",
"326 191 CURVE SMOOTH",
"265 191 OFFCURVE",
"234 240 OFFCURVE",
"234 311 CURVE SMOOTH",
"234 419 OFFCURVE",
"293 505 OFFCURVE",
"381 505 CURVE SMOOTH"
);
}
);
width = 584;
}
);
unicode = 00A4;
},
{
glyphname = d;
lastChange = "2016-08-23 13:01:52 +0000";
layers = (
{
background = {
paths = (
{
closed = 1;
nodes = (
"457 0 LINE",
"589 750 LINE",
"498 750 LINE",
"443 438 LINE",
"417 489 OFFCURVE",
"370 500 OFFCURVE",
"328 500 CURVE SMOOTH",
"179 500 OFFCURVE",
"71 349 OFFCURVE",
"71 196 CURVE SMOOTH",
"71 79 OFFCURVE",
"134 -10 OFFCURVE",
"238 -10 CURVE SMOOTH",
"281 -10 OFFCURVE",
"337 14 OFFCURVE",
"378 62 CURVE",
"374 0 LINE"
);
},
{
closed = 1;
nodes = (
"377 420 OFFCURVE",
"421 373 OFFCURVE",
"421 284 CURVE SMOOTH",
"421 136 OFFCURVE",
"340 70 OFFCURVE",
"259 70 CURVE SMOOTH",
"197 70 OFFCURVE",
"165 130 OFFCURVE",
"165 205 CURVE SMOOTH",
"165 319 OFFCURVE",
"230 420 OFFCURVE",
"321 420 CURVE SMOOTH"
);
}
);
};
layerId = UUID0;
paths = (
{
closed = 1;
nodes = (
"457 0 LINE",
"589 750 LINE",
"498 750 LINE",
"443 438 LINE",
"417 489 OFFCURVE",
"370 500 OFFCURVE",
"329 500 CURVE SMOOTH",
"179 500 OFFCURVE",
"71 349 OFFCURVE",
"71 197 CURVE SMOOTH",
"71 79 OFFCURVE",
"136 -10 OFFCURVE",
"234 -10 CURVE SMOOTH",
"286 -10 OFFCURVE",
"337 15 OFFCURVE",
"378 62 CURVE",
"374 0 LINE"
);
},
{
closed = 1;
nodes = (
"319 420 LINE",
"377 420 OFFCURVE",
"421 377 OFFCURVE",
"421 277 CURVE SMOOTH",
"421 142 OFFCURVE",
"340 70 OFFCURVE",
"264 70 CURVE SMOOTH",
"194 70 OFFCURVE",
"165 130 OFFCURVE",
"165 205 CURVE SMOOTH",
"165 319 OFFCURVE",
"231 420 OFFCURVE",
"319 420 CURVE SMOOTH"
);
}
);
width = 515;
},
{
background = {
paths = (
{
closed = 1;
nodes = (
"495 0 LINE",
"627 750 LINE",
"503 750 LINE",
"454 475 LINE",
"429 496 OFFCURVE",
"403 508 OFFCURVE",
"353 508 CURVE SMOOTH",
"171 508 OFFCURVE",
"63 359 OFFCURVE",
"63 200 CURVE SMOOTH",
"63 85 OFFCURVE",
"126 -10 OFFCURVE",
"261 -10 CURVE SMOOTH",
"315 -10 OFFCURVE",
"343 4 OFFCURVE",
"381 28 CURVE",
"377 0 LINE"
);
},
{
closed = 1;
nodes = (
"402 406 OFFCURVE",
"425 362 OFFCURVE",
"425 298 CURVE SMOOTH",
"425 215 OFFCURVE",
"404 92 OFFCURVE",
"287 92 CURVE SMOOTH",
"224 92 OFFCURVE",
"192 141 OFFCURVE",
"192 212 CURVE SMOOTH",
"192 320 OFFCURVE",
"251 406 OFFCURVE",
"343 406 CURVE SMOOTH"
);
}
);
};
layerId = "D879A026-05F7-4E99-AC55-D533E46CE7AB";
paths = (
{
closed = 1;
nodes = (
"495 0 LINE",
"627 750 LINE",
"503 750 LINE",
"454 475 LINE",
"429 496 OFFCURVE",
"403 508 OFFCURVE",
"352 508 CURVE SMOOTH",
"171 508 OFFCURVE",
"63 357 OFFCURVE",
"63 202 CURVE SMOOTH",
"63 83 OFFCURVE",
"126 -10 OFFCURVE",
"262 -10 CURVE SMOOTH",
"315 -10 OFFCURVE",
"343 4 OFFCURVE",
"381 28 CURVE",
"377 0 LINE"
);
},
{
closed = 1;
nodes = (
"341 406 LINE",
"405 406 OFFCURVE",
"425 362 OFFCURVE",
"425 292 CURVE SMOOTH",
"425 216 OFFCURVE",
"401 92 OFFCURVE",
"290 92 CURVE SMOOTH",
"221 92 OFFCURVE",
"192 141 OFFCURVE",
"192 214 CURVE SMOOTH",
"192 319 OFFCURVE",
"252 406 OFFCURVE",
"341 406 CURVE SMOOTH"
);
}
);
width = 549;
}
);
leftKerningGroup = o;
unicode = 0064;
},
{
glyphname = dagger;
lastChange = "2016-08-23 13:01:52 +0000";
layers = (
{
background = {
paths = (
{
closed = 1;
nodes = (
"417 373 LINE",
"432 458 LINE",
"293 427 LINE",
"354 607 LINE",
"243 607 LINE",
"241 427 LINE",
"113 458 LINE",
"98 373 LINE",
"238 403 LINE",
"178 252 LINE",
"161 0 LINE",
"222 0 LINE",
"294 252 LINE",
"287 403 LINE"
);
}
);
};
layerId = UUID0;
paths = (
{
closed = 1;
nodes = (
"417 373 LINE",
"432 458 LINE",
"293 427 LINE",
"354 607 LINE",
"241 607 LINE",
"241 427 LINE",
"113 458 LINE",
"98 373 LINE",
"238 403 LINE",
"178 252 LINE",
"161 0 LINE",
"222 0 LINE",
"294 252 LINE",
"287 403 LINE"
);
}
);
width = 384;
},
{
background = {
paths = (
{
closed = 1;
nodes = (
"436 349 LINE",
"459 481 LINE",
"332 454 LINE",
"387 607 LINE",
"236 607 LINE",
"236 454 LINE",
"119 481 LINE",
"96 349 LINE",
"222 375 LINE",
"175 257 LINE",
"159 0 LINE",
"250 0 LINE",
"324 257 LINE",
"319 375 LINE"
);
}
);
};
layerId = "D879A026-05F7-4E99-AC55-D533E46CE7AB";
paths = (
{
closed = 1;
nodes = (
"436 349 LINE",
"459 481 LINE",
"332 454 LINE",
"387 607 LINE",
"236 607 LINE",
"236 454 LINE",
"119 481 LINE",
"96 349 LINE",
"222 375 LINE",
"175 257 LINE",
"159 0 LINE",
"250 0 LINE",
"324 257 LINE",
"319 375 LINE"
);
}
);
width = 409;
}
);
unicode = 2020;
},
{
glyphname = daggerdbl;
lastChange = "2016-08-23 13:01:52 +0000";
layers = (
{
background = {
paths = (
{
closed = 1;
nodes = (
"378 88 LINE",
"392 172 LINE",
"251 142 LINE",
"309 274 LINE",
"298 407 LINE",
"429 377 LINE",
"443 461 LINE",
"305 431 LINE",
"365 607 LINE",
"255 607 LINE",
"253 431 LINE",
"125 461 LINE",
"110 377 LINE",
"251 407 LINE",
"193 274 LINE",
"204 142 LINE",
"74 172 LINE",
"59 88 LINE",
"197 118 LINE",
"137 -59 LINE",
"248 -59 LINE",
"250 118 LINE"
);
}
);
};
layerId = UUID0;
paths = (
{
closed = 1;
nodes = (
"378 88 LINE",
"392 172 LINE",
"251 142 LINE",
"309 274 LINE",
"298 407 LINE",
"429 377 LINE",
"443 461 LINE",
"305 431 LINE",
"365 607 LINE",
"253 607 LINE",
"253 431 LINE",
"125 461 LINE",
"110 377 LINE",
"251 407 LINE",
"193 274 LINE",
"204 142 LINE",
"74 172 LINE",
"59 88 LINE",
"197 118 LINE",
"137 -59 LINE",
"250 -59 LINE",
"250 118 LINE"
);
}
);
width = 405;
},
{
background = {
paths = (
{
closed = 1;
nodes = (
"398 67 LINE",
"421 199 LINE",
"295 173 LINE",
"339 274 LINE",
"331 375 LINE",
"448 349 LINE",
"471 481 LINE",
"344 454 LINE",
"398 607 LINE",
"248 607 LINE",
"248 454 LINE",
"131 481 LINE",
"108 349 LINE",
"234 375 LINE",
"190 274 LINE",
"198 173 LINE",
"81 199 LINE",
"58 67 LINE",
"185 94 LINE",
"131 -59 LINE",
"281 -59 LINE",
"281 94 LINE"
);
}
);
};
layerId = "D879A026-05F7-4E99-AC55-D533E46CE7AB";
paths = (
{
closed = 1;
nodes = (
"398 67 LINE",
"421 199 LINE",
"295 173 LINE",
"339 274 LINE",
"331 375 LINE",
"448 349 LINE",
"471 481 LINE",
"344 454 LINE",
"398 607 LINE",
"248 607 LINE",
"248 454 LINE",
"131 481 LINE",
"108 349 LINE",
"234 375 LINE",
"190 274 LINE",
"198 173 LINE",
"81 199 LINE",
"58 67 LINE",
"185 94 LINE",
"131 -59 LINE",
"281 -59 LINE",
"281 94 LINE"
);
}
);
width = 432;
}
);
unicode = 2021;
},
{
glyphname = degree;
lastChange = "2016-08-23 13:01:52 +0000";
layers = (
{
background = {
paths = (
{
closed = 1;
nodes = (
"318 482 OFFCURVE",
"377 557 OFFCURVE",
"377 644 CURVE SMOOTH",
"377 706 OFFCURVE",
"344 755 OFFCURVE",
"279 755 CURVE SMOOTH",
"193 755 OFFCURVE",
"133 678 OFFCURVE",
"133 592 CURVE SMOOTH",
"133 530 OFFCURVE",
"167 482 OFFCURVE",
"231 482 CURVE SMOOTH"
);
},
{
closed = 1;
nodes = (
"313 729 OFFCURVE",
"330 687 OFFCURVE",
"330 644 CURVE SMOOTH",
"330 581 OFFCURVE",
"294 508 OFFCURVE",
"235 508 CURVE SMOOTH",
"198 508 OFFCURVE",
"180 548 OFFCURVE",
"180 593 CURVE SMOOTH",
"180 656 OFFCURVE",
"219 729 OFFCURVE",
"274 729 CURVE SMOOTH"
);
}
);
};
layerId = UUID0;
paths = (
{
closed = 1;
nodes = (
"231 482 LINE",
"318 482 OFFCURVE",
"377 557 OFFCURVE",
"377 644 CURVE SMOOTH",
"377 706 OFFCURVE",
"344 755 OFFCURVE",
"279 755 CURVE SMOOTH",
"193 755 OFFCURVE",
"133 678 OFFCURVE",
"133 592 CURVE SMOOTH",
"133 530 OFFCURVE",
"167 482 OFFCURVE",
"231 482 CURVE SMOOTH"
);
},
{
closed = 1;
nodes = (
"274 729 LINE",
"313 729 OFFCURVE",
"330 687 OFFCURVE",
"330 644 CURVE SMOOTH",
"330 581 OFFCURVE",
"294 508 OFFCURVE",
"235 508 CURVE SMOOTH",
"198 508 OFFCURVE",
"180 548 OFFCURVE",
"180 593 CURVE SMOOTH",
"180 656 OFFCURVE",
"219 729 OFFCURVE",
"274 729 CURVE SMOOTH"
);
}
);
width = 292;
},
{
background = {
paths = (
{
closed = 1;
nodes = (
"332 482 OFFCURVE",
"395 558 OFFCURVE",
"395 642 CURVE SMOOTH",
"395 704 OFFCURVE",
"358 755 OFFCURVE",
"288 755 CURVE SMOOTH",
"197 755 OFFCURVE",
"135 678 OFFCURVE",
"135 594 CURVE SMOOTH",
"135 532 OFFCURVE",
"171 482 OFFCURVE",
"240 482 CURVE SMOOTH"
);
},
{
closed = 1;
nodes = (
"310 704 OFFCURVE",
"325 678 OFFCURVE",
"325 641 CURVE SMOOTH",
"325 582 OFFCURVE",
"296 533 OFFCURVE",
"249 533 CURVE SMOOTH",
"220 533 OFFCURVE",
"204 558 OFFCURVE",
"204 596 CURVE SMOOTH",
"204 656 OFFCURVE",
"236 704 OFFCURVE",
"279 704 CURVE SMOOTH"
);
}
);
};
layerId = "D879A026-05F7-4E99-AC55-D533E46CE7AB";
paths = (
{
closed = 1;
nodes = (
"240 482 LINE",
"332 482 OFFCURVE",
"395 558 OFFCURVE",
"395 642 CURVE SMOOTH",
"395 704 OFFCURVE",
"358 755 OFFCURVE",
"288 755 CURVE SMOOTH",
"197 755 OFFCURVE",
"135 678 OFFCURVE",
"135 594 CURVE SMOOTH",
"135 532 OFFCURVE",
"171 482 OFFCURVE",
"240 482 CURVE SMOOTH"
);
},
{
closed = 1;
nodes = (
"279 704 LINE",
"310 704 OFFCURVE",
"325 678 OFFCURVE",
"325 641 CURVE SMOOTH",
"325 582 OFFCURVE",
"296 533 OFFCURVE",
"249 533 CURVE SMOOTH",
"220 533 OFFCURVE",
"204 558 OFFCURVE",
"204 596 CURVE SMOOTH",
"204 656 OFFCURVE",
"236 704 OFFCURVE",
"279 704 CURVE SMOOTH"
);
}
);
width = 312;
}
);
unicode = 00B0;
},
{
glyphname = dieresis;
lastChange = "2016-08-23 13:01:52 +0000";
layers = (
{
background = {
paths = (
{
closed = 1;
nodes = (
"407 600 LINE",
"425 700 LINE",
"354 700 LINE",
"336 600 LINE"
);
},
{
closed = 1;
nodes = (
"255 600 LINE",
"272 700 LINE",
"202 700 LINE",
"184 600 LINE"
);
}
);
};
layerId = UUID0;
paths = (
{
closed = 1;
nodes = (
"407 600 LINE",
"425 700 LINE",
"354 700 LINE",
"336 600 LINE"
);
},
{
closed = 1;
nodes = (
"255 600 LINE",
"272 700 LINE",
"202 700 LINE",
"184 600 LINE"
);
}
);
width = 380;
},
{
background = {
paths = (
{
closed = 1;
nodes = (
"426 594 LINE",
"445 700 LINE",
"347 700 LINE",
"329 594 LINE"
);
},
{
closed = 1;
nodes = (
"285 594 LINE",
"304 700 LINE",
"207 700 LINE",
"188 594 LINE"
);
}
);
};
layerId = "D879A026-05F7-4E99-AC55-D533E46CE7AB";
paths = (
{
closed = 1;
nodes = (
"426 594 LINE",
"445 700 LINE",
"347 700 LINE",
"329 594 LINE"
);
},
{
closed = 1;
nodes = (
"285 594 LINE",
"304 700 LINE",
"207 700 LINE",
"188 594 LINE"
);
}
);
width = 405;
}
);
unicode = 00A8;
},
{
glyphname = divide;
lastChange = "2016-08-23 13:01:52 +0000";
layers = (
{
background = {
paths = (
{
closed = 1;
nodes = (
"366 440 LINE",
"382 534 LINE",
"292 534 LINE",
"275 440 LINE"
);
},
{
closed = 1;
nodes = (
"497 245 LINE",
"510 319 LINE",
"96 319 LINE",
"83 245 LINE"
);
},
{
closed = 1;
nodes = (
"292 20 LINE",
"308 114 LINE",
"218 114 LINE",
"201 20 LINE"
);
}
);
};
layerId = UUID0;
paths = (
{
closed = 1;
nodes = (
"366 440 LINE",
"382 534 LINE",
"292 534 LINE",
"275 440 LINE"
);
},
{
closed = 1;
nodes = (
"497 245 LINE",
"510 319 LINE",
"96 319 LINE",
"83 245 LINE"
);
},
{
closed = 1;
nodes = (
"292 20 LINE",
"308 114 LINE",
"218 114 LINE",
"201 20 LINE"
);
}
);
width = 493;
},
{
background = {
paths = (
{
closed = 1;
nodes = (
"393 404 LINE",
"416 534 LINE",
"291 534 LINE",
"268 404 LINE"
);
},
{
closed = 1;
nodes = (
"525 230 LINE",
"541 324 LINE",
"100 324 LINE",
"83 230 LINE"
);
},
{
closed = 1;
nodes = (
"325 20 LINE",
"348 150 LINE",
"224 150 LINE",
"201 20 LINE"
);
}
);
};
layerId = "D879A026-05F7-4E99-AC55-D533E46CE7AB";
paths = (
{
closed = 1;
nodes = (
"393 404 LINE",
"416 534 LINE",
"291 534 LINE",
"268 404 LINE"
);
},
{
closed = 1;
nodes = (
"525 230 LINE",
"541 324 LINE",
"100 324 LINE",
"83 230 LINE"
);
},
{
closed = 1;
nodes = (
"325 20 LINE",
"348 150 LINE",
"224 150 LINE",
"201 20 LINE"
);
}
);
width = 526;
}
);
unicode = 00F7;
},
{
glyphname = dollar;
lastChange = "2016-08-23 13:01:52 +0000";
layers = (
{
background = {
paths = (
{
closed = 1;
nodes = (
"271 82 LINE",
"460 99 OFFCURVE",
"474 215 OFFCURVE",
"474 259 CURVE SMOOTH",
"474 423 OFFCURVE",
"219 387 OFFCURVE",
"219 480 CURVE SMOOTH",
"219 531 OFFCURVE",
"282 546 OFFCURVE",
"337 546 CURVE SMOOTH",
"381 546 OFFCURVE",
"435 524 OFFCURVE",
"480 498 CURVE",
"506 594 LINE",
"483 610 OFFCURVE",
"429 627 OFFCURVE",
"368 631 CURVE",
"403 748 LINE",
"317 748 LINE",
"311 631 LINE",
"163 616 OFFCURVE",
"115 522 OFFCURVE",
"115 457 CURVE SMOOTH",
"115 317 OFFCURVE",
"361 344 OFFCURVE",
"361 243 CURVE SMOOTH",
"361 187 OFFCURVE",
"318 170 OFFCURVE",
"252 170 CURVE SMOOTH",
"175 170 OFFCURVE",
"122 197 OFFCURVE",
"94 228 CURVE",
"63 119 LINE",
"88 102 OFFCURVE",
"142 85 OFFCURVE",
"214 81 CURVE",
"179 -32 LINE",
"265 -32 LINE"
);
}
);
};
layerId = UUID0;
paths = (
{
closed = 1;
nodes = (
"271 82 LINE",
"460 99 OFFCURVE",
"474 215 OFFCURVE",
"474 259 CURVE SMOOTH",
"474 423 OFFCURVE",
"219 387 OFFCURVE",
"219 480 CURVE SMOOTH",
"219 531 OFFCURVE",
"282 546 OFFCURVE",
"337 546 CURVE SMOOTH",
"381 546 OFFCURVE",
"435 524 OFFCURVE",
"480 498 CURVE",
"506 594 LINE",
"483 610 OFFCURVE",
"429 627 OFFCURVE",
"368 631 CURVE",
"403 748 LINE",
"317 748 LINE",
"311 631 LINE",
"163 616 OFFCURVE",
"115 522 OFFCURVE",
"115 457 CURVE SMOOTH",
"115 317 OFFCURVE",
"361 344 OFFCURVE",
"361 243 CURVE SMOOTH",
"361 187 OFFCURVE",
"318 170 OFFCURVE",
"252 170 CURVE SMOOTH",
"175 170 OFFCURVE",
"122 197 OFFCURVE",
"94 228 CURVE",
"63 119 LINE",
"88 102 OFFCURVE",
"142 85 OFFCURVE",
"214 81 CURVE",
"179 -32 LINE",
"265 -32 LINE"
);
}
);
width = 464;
},
{
background = {
paths = (
{
closed = 1;
nodes = (
"300 80 LINE",
"488 97 OFFCURVE",
"513 208 OFFCURVE",
"513 261 CURVE SMOOTH",
"513 430 OFFCURVE",
"240 395 OFFCURVE",
"240 479 CURVE SMOOTH",
"240 525 OFFCURVE",
"303 533 OFFCURVE",
"355 533 CURVE SMOOTH",
"402 533 OFFCURVE",
"463 510 OFFCURVE",
"512 481 CURVE",
"543 594 LINE",
"519 610 OFFCURVE",
"459 629 OFFCURVE",
"397 633 CURVE",
"433 748 LINE",
"328 748 LINE",
"322 633 LINE",
"170 618 OFFCURVE",
"117 523 OFFCURVE",
"117 455 CURVE SMOOTH",
"117 311 OFFCURVE",
"380 334 OFFCURVE",
"380 243 CURVE SMOOTH",
"380 200 OFFCURVE",
"343 183 OFFCURVE",
"273 183 CURVE SMOOTH",
"188 183 OFFCURVE",
"130 214 OFFCURVE",
"103 246 CURVE",
"64 119 LINE",
"92 100 OFFCURVE",
"151 83 OFFCURVE",
"225 79 CURVE",
"190 -32 LINE",
"296 -32 LINE"
);
}
);
};
layerId = "D879A026-05F7-4E99-AC55-D533E46CE7AB";
paths = (
{
closed = 1;
nodes = (
"300 80 LINE",
"488 97 OFFCURVE",
"513 208 OFFCURVE",
"513 261 CURVE SMOOTH",
"513 430 OFFCURVE",
"240 395 OFFCURVE",
"240 479 CURVE SMOOTH",
"240 525 OFFCURVE",
"303 533 OFFCURVE",
"355 533 CURVE SMOOTH",
"402 533 OFFCURVE",
"463 510 OFFCURVE",
"512 481 CURVE",
"543 594 LINE",
"519 610 OFFCURVE",
"459 629 OFFCURVE",
"397 633 CURVE",
"433 748 LINE",
"328 748 LINE",
"322 633 LINE",
"170 618 OFFCURVE",
"117 523 OFFCURVE",
"117 455 CURVE SMOOTH",
"117 311 OFFCURVE",
"380 334 OFFCURVE",
"380 243 CURVE SMOOTH",
"380 200 OFFCURVE",
"343 183 OFFCURVE",
"273 183 CURVE SMOOTH",
"188 183 OFFCURVE",
"130 214 OFFCURVE",
"103 246 CURVE",
"64 119 LINE",
"92 100 OFFCURVE",
"151 83 OFFCURVE",
"225 79 CURVE",
"190 -32 LINE",
"296 -32 LINE"
);
}
);
width = 505;
}
);
unicode = 0024;
},
{
glyphname = dotlessi;
lastChange = "2016-08-23 13:01:52 +0000";
layers = (
{
background = {
paths = (
{
closed = 1;
nodes = (
"154 0 LINE",
"240 490 LINE",
"149 490 LINE",
"63 0 LINE"
);
}
);
};
layerId = UUID0;
paths = (
{
closed = 1;
nodes = (
"154 0 LINE",
"240 490 LINE",
"149 490 LINE",
"63 0 LINE"
);
}
);
width = 216;
},
{
background = {
paths = (
{
closed = 1;
nodes = (
"177 0 LINE",
"265 500 LINE",
"141 500 LINE",
"53 0 LINE"
);
}
);
};
layerId = "D879A026-05F7-4E99-AC55-D533E46CE7AB";
paths = (
{
closed = 1;
nodes = (
"177 0 LINE",
"265 500 LINE",
"141 500 LINE",
"53 0 LINE"
);
}
);
width = 230;
}
);
leftKerningGroup = i;
rightKerningGroup = i;
unicode = 0131;
},
{
glyphname = dotlessj;
lastChange = "2016-08-23 13:01:52 +0000";
layers = (
{
background = {
paths = (
{
closed = 1;
nodes = (
"-1 -237 LINE SMOOTH",
"57 -228 OFFCURVE",
"117 -201 OFFCURVE",
"134 -107 CURVE SMOOTH",
"239 490 LINE",
"148 490 LINE",
"49 -73 LINE SMOOTH",
"35 -152 OFFCURVE",
"22 -167 OFFCURVE",
"-30 -173 CURVE",
"-33 -242 LINE"
);
}
);
};
layerId = UUID0;
paths = (
{
closed = 1;
nodes = (
"-1 -237 LINE SMOOTH",
"57 -228 OFFCURVE",
"117 -201 OFFCURVE",
"134 -107 CURVE SMOOTH",
"239 490 LINE",
"148 490 LINE",
"49 -73 LINE SMOOTH",
"35 -152 OFFCURVE",
"22 -167 OFFCURVE",
"-30 -173 CURVE",
"-33 -242 LINE"
);
}
);
width = 216;
},
{
background = {
paths = (
{
closed = 1;
nodes = (
"12 -242 LINE SMOOTH",
"103 -242 OFFCURVE",
"145 -183 OFFCURVE",
"158 -111 CURVE SMOOTH",
"266 500 LINE",
"142 500 LINE",
"43 -60 LINE SMOOTH",
"29 -139 OFFCURVE",
"23 -140 OFFCURVE",
"-27 -140 CURVE",
"-34 -242 LINE"
);
}
);
};
layerId = "D879A026-05F7-4E99-AC55-D533E46CE7AB";
paths = (
{
closed = 1;
nodes = (
"12 -242 LINE SMOOTH",
"103 -242 OFFCURVE",
"145 -183 OFFCURVE",
"158 -111 CURVE SMOOTH",
"266 500 LINE",
"142 500 LINE",
"43 -60 LINE SMOOTH",
"29 -139 OFFCURVE",
"23 -140 OFFCURVE",
"-27 -140 CURVE",
"-34 -242 LINE"
);
}
);
width = 231;
}
);
unicode = 0237;
},
{
glyphname = e;
lastChange = "2016-08-23 13:01:52 +0000";
layers = (
{
background = {
paths = (
{
closed = 1;
nodes = (
"480 449 OFFCURVE",
"429 500 OFFCURVE",
"334 500 CURVE SMOOTH",
"174 500 OFFCURVE",
"67 357 OFFCURVE",
"67 202 CURVE SMOOTH",
"67 83 OFFCURVE",
"131 -10 OFFCURVE",
"267 -10 CURVE SMOOTH",
"331 -10 OFFCURVE",
"385 11 OFFCURVE",
"422 28 CURVE",
"426 99 LINE",
"383 79 OFFCURVE",
"330 70 OFFCURVE",
"291 70 CURVE SMOOTH",
"220 70 OFFCURVE",
"164 100 OFFCURVE",
"164 218 CURVE",
"178 215 OFFCURVE",
"211 210 OFFCURVE",
"252 210 CURVE SMOOTH",
"428 210 OFFCURVE",
"480 301 OFFCURVE",
"480 375 CURVE SMOOTH"
);
},
{
closed = 1;
nodes = (
"364 420 OFFCURVE",
"397 404 OFFCURVE",
"397 364 CURVE SMOOTH",
"397 324 OFFCURVE",
"364 271 OFFCURVE",
"244 271 CURVE SMOOTH",
"200 271 OFFCURVE",
"195 278 OFFCURVE",
"174 281 CURVE",
"208 378 OFFCURVE",
"263 420 OFFCURVE",
"325 420 CURVE SMOOTH"
);
}
);
};
layerId = UUID0;
paths = (
{
closed = 1;
nodes = (
"480 375 LINE SMOOTH",
"480 449 OFFCURVE",
"429 500 OFFCURVE",
"334 500 CURVE SMOOTH",
"174 500 OFFCURVE",
"67 357 OFFCURVE",
"67 202 CURVE SMOOTH",
"67 83 OFFCURVE",
"131 -10 OFFCURVE",
"267 -10 CURVE SMOOTH",
"331 -10 OFFCURVE",
"385 11 OFFCURVE",
"422 28 CURVE",
"426 99 LINE",
"383 79 OFFCURVE",
"330 70 OFFCURVE",
"291 70 CURVE SMOOTH",
"220 70 OFFCURVE",
"164 100 OFFCURVE",
"164 218 CURVE",
"178 215 OFFCURVE",
"211 210 OFFCURVE",
"252 210 CURVE SMOOTH",
"428 210 OFFCURVE",
"480 301 OFFCURVE",
"480 375 CURVE SMOOTH"
);
},
{
closed = 1;
nodes = (
"325 420 LINE SMOOTH",
"364 420 OFFCURVE",
"397 404 OFFCURVE",
"397 364 CURVE SMOOTH",
"397 324 OFFCURVE",
"364 271 OFFCURVE",
"244 271 CURVE SMOOTH",
"200 271 OFFCURVE",
"195 278 OFFCURVE",
"174 281 CURVE",
"208 378 OFFCURVE",
"263 420 OFFCURVE",
"325 420 CURVE SMOOTH"
);
}
);
width = 458;
},
{
background = {
paths = (
{
closed = 1;
nodes = (
"510 450 OFFCURVE",
"453 508 OFFCURVE",
"347 508 CURVE SMOOTH",
"176 508 OFFCURVE",
"65 358 OFFCURVE",
"65 205 CURVE SMOOTH",
"65 85 OFFCURVE",
"134 -10 OFFCURVE",
"286 -10 CURVE SMOOTH",
"352 -10 OFFCURVE",
"413 8 OFFCURVE",
"453 28 CURVE",
"467 133 LINE",
"424 111 OFFCURVE",
"355 92 OFFCURVE",
"310 92 CURVE SMOOTH",
"255 92 OFFCURVE",
"200 122 OFFCURVE",
"195 205 CURVE",
"208 202 OFFCURVE",
"238 199 OFFCURVE",
"271 199 CURVE SMOOTH",
"396 199 OFFCURVE",
"510 241 OFFCURVE",
"510 363 CURVE SMOOTH"
);
},
{
closed = 1;
nodes = (
"360 406 OFFCURVE",
"406 402 OFFCURVE",
"406 357 CURVE SMOOTH",
"406 319 OFFCURVE",
"373 280 OFFCURVE",
"251 280 CURVE SMOOTH",
"232 280 OFFCURVE",
"217 281 OFFCURVE",
"205 284 CURVE",
"218 330 OFFCURVE",
"264 406 OFFCURVE",
"342 406 CURVE SMOOTH"
);
}
);
};
layerId = "D879A026-05F7-4E99-AC55-D533E46CE7AB";
paths = (
{
closed = 1;
nodes = (
"510 363 LINE SMOOTH",
"510 450 OFFCURVE",
"453 508 OFFCURVE",
"347 508 CURVE SMOOTH",
"176 508 OFFCURVE",
"65 358 OFFCURVE",
"65 205 CURVE SMOOTH",
"65 85 OFFCURVE",
"134 -10 OFFCURVE",
"286 -10 CURVE SMOOTH",
"352 -10 OFFCURVE",
"413 8 OFFCURVE",
"453 28 CURVE",
"467 133 LINE",
"424 111 OFFCURVE",
"355 92 OFFCURVE",
"310 92 CURVE SMOOTH",
"255 92 OFFCURVE",
"200 122 OFFCURVE",
"195 205 CURVE",
"208 202 OFFCURVE",
"238 199 OFFCURVE",
"271 199 CURVE SMOOTH",
"396 199 OFFCURVE",
"510 241 OFFCURVE",
"510 363 CURVE SMOOTH"
);
},
{
closed = 1;
nodes = (
"342 406 LINE SMOOTH",
"360 406 OFFCURVE",
"406 402 OFFCURVE",
"406 357 CURVE SMOOTH",
"406 319 OFFCURVE",
"373 280 OFFCURVE",
"251 280 CURVE SMOOTH",
"232 280 OFFCURVE",
"217 281 OFFCURVE",
"205 284 CURVE",
"218 330 OFFCURVE",
"264 406 OFFCURVE",
"342 406 CURVE SMOOTH"
);
}
);
width = 496;
}
);
leftKerningGroup = o;
rightKerningGroup = e;
unicode = 0065;
},
{
glyphname = eight;
lastChange = "2016-08-23 13:01:52 +0000";
layers = (
{
background = {
paths = (
{
closed = 1;
nodes = (
"437 -14 OFFCURVE",
"528 125 OFFCURVE",
"528 234 CURVE SMOOTH",
"528 307 OFFCURVE",
"493 356 OFFCURVE",
"426 387 CURVE",
"536 471 OFFCURVE",
"555 498 OFFCURVE",
"555 581 CURVE SMOOTH",
"555 647 OFFCURVE",
"517 713 OFFCURVE",
"398 713 CURVE SMOOTH",
"227 713 OFFCURVE",
"176 597 OFFCURVE",
"176 509 CURVE SMOOTH",
"176 466 OFFCURVE",
"190 419 OFFCURVE",
"228 376 CURVE",
"101 303 OFFCURVE",
"78 219 OFFCURVE",
"78 157 CURVE SMOOTH",
"78 73 OFFCURVE",
"128 -14 OFFCURVE",
"258 -14 CURVE SMOOTH"
);
},
{
closed = 1;
nodes = (
"433 628 OFFCURVE",
"460 603 OFFCURVE",
"460 561 CURVE SMOOTH",
"460 508 OFFCURVE",
"424 449 OFFCURVE",
"337 421 CURVE",
"288 443 OFFCURVE",
"263 480 OFFCURVE",
"263 520 CURVE SMOOTH",
"263 583 OFFCURVE",
"303 628 OFFCURVE",
"378 628 CURVE SMOOTH"
);
},
{
closed = 1;
nodes = (
"385 321 OFFCURVE",
"428 279 OFFCURVE",
"428 218 CURVE SMOOTH",
"428 135 OFFCURVE",
"361 72 OFFCURVE",
"277 72 CURVE SMOOTH",
"214 72 OFFCURVE",
"177 103 OFFCURVE",
"177 164 CURVE SMOOTH",
"177 264 OFFCURVE",
"248 320 OFFCURVE",
"330 338 CURVE"
);
}
);
};
layerId = UUID0;
paths = (
{
closed = 1;
nodes = (
"262 -14 LINE",
"436 -14 OFFCURVE",
"528 125 OFFCURVE",
"528 236 CURVE SMOOTH",
"528 304 OFFCURVE",
"494 356 OFFCURVE",
"426 387 CURVE",
"526 463 OFFCURVE",
"555 497 OFFCURVE",
"555 570 CURVE SMOOTH",
"555 647 OFFCURVE",
"523 713 OFFCURVE",
"396 713 CURVE SMOOTH",
"228 713 OFFCURVE",
"176 596 OFFCURVE",
"176 510 CURVE SMOOTH",
"176 465 OFFCURVE",
"190 419 OFFCURVE",
"228 376 CURVE",
"97 301 OFFCURVE",
"78 213 OFFCURVE",
"78 159 CURVE SMOOTH",
"78 73 OFFCURVE",
"125 -14 OFFCURVE",
"262 -14 CURVE SMOOTH"
);
},
{
closed = 1;
nodes = (
"378 628 LINE",
"432 628 OFFCURVE",
"460 604 OFFCURVE",
"460 559 CURVE SMOOTH",
"460 509 OFFCURVE",
"424 449 OFFCURVE",
"337 421 CURVE",
"291 442 OFFCURVE",
"263 475 OFFCURVE",
"263 523 CURVE SMOOTH",
"263 581 OFFCURVE",
"303 628 OFFCURVE",
"378 628 CURVE SMOOTH"
);
},
{
closed = 1;
nodes = (
"330 338 LINE",
"387 320 OFFCURVE",
"428 279 OFFCURVE",
"428 216 CURVE SMOOTH",
"428 135 OFFCURVE",
"361 72 OFFCURVE",
"274 72 CURVE SMOOTH",
"214 72 OFFCURVE",
"177 102 OFFCURVE",
"177 168 CURVE SMOOTH",
"177 263 OFFCURVE",
"252 322 OFFCURVE",
"330 338 CURVE"
);
}
);
width = 537;
},
{
background = {
paths = (
{
closed = 1;
nodes = (
"466 -14 OFFCURVE",
"560 126 OFFCURVE",
"560 232 CURVE SMOOTH",
"560 301 OFFCURVE",
"525 358 OFFCURVE",
"475 386 CURVE",
"541 440 OFFCURVE",
"585 501 OFFCURVE",
"585 580 CURVE SMOOTH",
"585 652 OFFCURVE",
"542 714 OFFCURVE",
"416 714 CURVE SMOOTH",
"234 714 OFFCURVE",
"178 602 OFFCURVE",
"178 499 CURVE SMOOTH",
"178 456 OFFCURVE",
"189 406 OFFCURVE",
"217 377 CURVE",
"115 305 OFFCURVE",
"80 224 OFFCURVE",
"80 154 CURVE SMOOTH",
"80 66 OFFCURVE",
"138 -14 OFFCURVE",
"274 -14 CURVE SMOOTH"
);
},
{
closed = 1;
nodes = (
"447 614 OFFCURVE",
"464 584 OFFCURVE",
"464 549 CURVE SMOOTH",
"464 503 OFFCURVE",
"446 450 OFFCURVE",
"355 425 CURVE",
"303 441 OFFCURVE",
"289 473 OFFCURVE",
"289 504 CURVE SMOOTH",
"289 554 OFFCURVE",
"310 614 OFFCURVE",
"393 614 CURVE SMOOTH"
);
},
{
closed = 1;
nodes = (
"395 320 OFFCURVE",
"434 283 OFFCURVE",
"434 221 CURVE SMOOTH",
"434 145 OFFCURVE",
"384 88 OFFCURVE",
"297 88 CURVE SMOOTH",
"238 88 OFFCURVE",
"203 120 OFFCURVE",
"203 175 CURVE SMOOTH",
"203 267 OFFCURVE",
"283 321 OFFCURVE",
"348 332 CURVE"
);
}
);
};
layerId = "D879A026-05F7-4E99-AC55-D533E46CE7AB";
paths = (
{
closed = 1;
nodes = (
"278 -14 LINE",
"465 -14 OFFCURVE",
"560 126 OFFCURVE",
"560 234 CURVE SMOOTH",
"560 300 OFFCURVE",
"525 358 OFFCURVE",
"475 386 CURVE",
"541 440 OFFCURVE",
"585 502 OFFCURVE",
"585 578 CURVE SMOOTH",
"585 652 OFFCURVE",
"544 714 OFFCURVE",
"413 714 CURVE SMOOTH",
"236 714 OFFCURVE",
"178 602 OFFCURVE",
"178 500 CURVE SMOOTH",
"178 456 OFFCURVE",
"189 406 OFFCURVE",
"217 377 CURVE",
"115 305 OFFCURVE",
"80 224 OFFCURVE",
"80 154 CURVE SMOOTH",
"80 66 OFFCURVE",
"136 -14 OFFCURVE",
"278 -14 CURVE SMOOTH"
);
},
{
closed = 1;
nodes = (
"392 614 LINE",
"449 614 OFFCURVE",
"464 584 OFFCURVE",
"464 546 CURVE SMOOTH",
"464 504 OFFCURVE",
"446 450 OFFCURVE",
"355 425 CURVE",
"304 441 OFFCURVE",
"289 470 OFFCURVE",
"289 508 CURVE SMOOTH",
"289 552 OFFCURVE",
"310 614 OFFCURVE",
"392 614 CURVE SMOOTH"
);
},
{
closed = 1;
nodes = (
"348 332 LINE",
"395 320 OFFCURVE",
"434 284 OFFCURVE",
"434 219 CURVE SMOOTH",
"434 145 OFFCURVE",
"382 88 OFFCURVE",
"299 88 CURVE SMOOTH",
"238 88 OFFCURVE",
"203 118 OFFCURVE",
"203 177 CURVE SMOOTH",
"203 265 OFFCURVE",
"282 321 OFFCURVE",
"348 332 CURVE"
);
}
);
width = 572;
}
);
unicode = 0038;
},
{
glyphname = eightinferior;
lastChange = "2016-08-23 13:01:52 +0000";
layers = (
{
background = {
paths = (
{
closed = 1;
nodes = (
"281 -8 OFFCURVE",
"332 68 OFFCURVE",
"332 126 CURVE SMOOTH",
"332 162 OFFCURVE",
"313 193 OFFCURVE",
"290 208 CURVE",
"320 235 OFFCURVE",
"346 271 OFFCURVE",
"346 314 CURVE SMOOTH",
"346 353 OFFCURVE",
"321 386 OFFCURVE",
"253 386 CURVE SMOOTH",
"155 386 OFFCURVE",
"124 325 OFFCURVE",
"124 268 CURVE SMOOTH",
"124 245 OFFCURVE",
"129 218 OFFCURVE",
"142 204 CURVE",
"92 166 OFFCURVE",
"71 122 OFFCURVE",
"71 83 CURVE SMOOTH",
"71 35 OFFCURVE",
"103 -8 OFFCURVE",
"176 -8 CURVE SMOOTH"
);
},
{
closed = 1;
nodes = (
"268 330 OFFCURVE",
"276 314 OFFCURVE",
"276 296 CURVE SMOOTH",
"276 262 OFFCURVE",
"259 240 OFFCURVE",
"221 230 CURVE",
"194 237 OFFCURVE",
"188 253 OFFCURVE",
"188 269 CURVE SMOOTH",
"188 308 OFFCURVE",
"206 330 OFFCURVE",
"241 330 CURVE SMOOTH"
);
},
{
closed = 1;
nodes = (
"240 173 OFFCURVE",
"260 153 OFFCURVE",
"260 120 CURVE SMOOTH",
"260 80 OFFCURVE",
"237 49 OFFCURVE",
"189 49 CURVE SMOOTH",
"158 49 OFFCURVE",
"141 66 OFFCURVE",
"141 95 CURVE SMOOTH",
"141 144 OFFCURVE",
"185 173 OFFCURVE",
"217 179 CURVE"
);
}
);
};
layerId = UUID0;
paths = (
{
closed = 1;
nodes = (
"176 -8 LINE",
"281 -8 OFFCURVE",
"332 68 OFFCURVE",
"332 126 CURVE SMOOTH",
"332 162 OFFCURVE",
"313 193 OFFCURVE",
"290 208 CURVE",
"320 235 OFFCURVE",
"346 271 OFFCURVE",
"346 314 CURVE SMOOTH",
"346 353 OFFCURVE",
"321 386 OFFCURVE",
"253 386 CURVE SMOOTH",
"155 386 OFFCURVE",
"124 325 OFFCURVE",
"124 268 CURVE SMOOTH",
"124 245 OFFCURVE",
"129 218 OFFCURVE",
"142 204 CURVE",
"92 166 OFFCURVE",
"71 122 OFFCURVE",
"71 83 CURVE SMOOTH",
"71 35 OFFCURVE",
"103 -8 OFFCURVE",
"176 -8 CURVE SMOOTH"
);
},
{
closed = 1;
nodes = (
"241 330 LINE",
"268 330 OFFCURVE",
"276 314 OFFCURVE",
"276 296 CURVE SMOOTH",
"276 262 OFFCURVE",
"259 240 OFFCURVE",
"221 230 CURVE",
"194 237 OFFCURVE",
"188 253 OFFCURVE",
"188 269 CURVE SMOOTH",
"188 308 OFFCURVE",
"206 330 OFFCURVE",
"241 330 CURVE SMOOTH"
);
},
{
closed = 1;
nodes = (
"217 179 LINE",
"240 173 OFFCURVE",
"260 153 OFFCURVE",
"260 120 CURVE SMOOTH",
"260 80 OFFCURVE",
"237 49 OFFCURVE",
"189 49 CURVE SMOOTH",
"158 49 OFFCURVE",
"141 66 OFFCURVE",
"141 95 CURVE SMOOTH",
"141 144 OFFCURVE",
"185 173 OFFCURVE",
"217 179 CURVE"
);
}
);
width = 366;
},
{
background = {
paths = (
{
closed = 1;
nodes = (
"300 -8 OFFCURVE",
"353 69 OFFCURVE",
"353 125 CURVE SMOOTH",
"353 157 OFFCURVE",
"333 195 OFFCURVE",
"327 208 CURVE",
"332 220 OFFCURVE",
"365 273 OFFCURVE",
"365 312 CURVE SMOOTH",
"365 356 OFFCURVE",
"337 386 OFFCURVE",
"265 386 CURVE SMOOTH",
"160 386 OFFCURVE",
"126 328 OFFCURVE",
"126 252 CURVE SMOOTH",
"126 233 OFFCURVE",
"128 209 OFFCURVE",
"132 204 CURVE",
"101 166 OFFCURVE",
"74 123 OFFCURVE",
"74 81 CURVE SMOOTH",
"74 29 OFFCURVE",
"112 -8 OFFCURVE",
"187 -8 CURVE SMOOTH"
);
},
{
closed = 1;
nodes = (
"272 320 OFFCURVE",
"277 305 OFFCURVE",
"277 294 CURVE SMOOTH",
"277 255 OFFCURVE",
"268 240 OFFCURVE",
"233 233 CURVE",
"211 236 OFFCURVE",
"205 247 OFFCURVE",
"205 256 CURVE SMOOTH",
"205 293 OFFCURVE",
"215 320 OFFCURVE",
"251 320 CURVE SMOOTH"
);
},
{
closed = 1;
nodes = (
"244 171 OFFCURVE",
"260 156 OFFCURVE",
"260 124 CURVE SMOOTH",
"260 79 OFFCURVE",
"243 61 OFFCURVE",
"202 61 CURVE SMOOTH",
"176 61 OFFCURVE",
"161 79 OFFCURVE",
"161 102 CURVE SMOOTH",
"161 147 OFFCURVE",
"211 174 OFFCURVE",
"229 174 CURVE"
);
}
);
};
layerId = "D879A026-05F7-4E99-AC55-D533E46CE7AB";
paths = (
{
closed = 1;
nodes = (
"187 -8 LINE",
"300 -8 OFFCURVE",
"353 69 OFFCURVE",
"353 125 CURVE SMOOTH",
"353 157 OFFCURVE",
"333 195 OFFCURVE",
"327 208 CURVE",
"332 220 OFFCURVE",
"365 273 OFFCURVE",
"365 312 CURVE SMOOTH",
"365 356 OFFCURVE",
"337 386 OFFCURVE",
"265 386 CURVE SMOOTH",
"160 386 OFFCURVE",
"126 328 OFFCURVE",
"126 252 CURVE SMOOTH",
"126 233 OFFCURVE",
"128 209 OFFCURVE",
"132 204 CURVE",
"101 166 OFFCURVE",
"74 123 OFFCURVE",
"74 81 CURVE SMOOTH",
"74 29 OFFCURVE",
"112 -8 OFFCURVE",
"187 -8 CURVE SMOOTH"
);
},
{
closed = 1;
nodes = (
"251 320 LINE",
"272 320 OFFCURVE",
"277 305 OFFCURVE",
"277 294 CURVE SMOOTH",
"277 255 OFFCURVE",
"268 240 OFFCURVE",
"233 233 CURVE",
"211 236 OFFCURVE",
"205 247 OFFCURVE",
"205 256 CURVE SMOOTH",
"205 293 OFFCURVE",
"215 320 OFFCURVE",
"251 320 CURVE SMOOTH"
);
},
{
closed = 1;
nodes = (
"229 174 LINE",
"244 171 OFFCURVE",
"260 156 OFFCURVE",
"260 124 CURVE SMOOTH",
"260 79 OFFCURVE",
"243 61 OFFCURVE",
"202 61 CURVE SMOOTH",
"176 61 OFFCURVE",
"161 79 OFFCURVE",
"161 102 CURVE SMOOTH",
"161 147 OFFCURVE",
"211 174 OFFCURVE",
"229 174 CURVE"
);
}
);
width = 390;
}
);
unicode = 2088;
},
